<?xml version="1.0" encoding="UTF-8" standalone="no"?>
<!-- Created with Inkscape (http://www.inkscape.org/) -->

<svg
   version="1.1"
   id="svg1"
   width="1122.6667"
   height="793.33331"
   viewBox="0 0 1122.6667 793.33331"
   sodipodi:docname="Placa 2 (GPS) SVG.svg"
   inkscape:version="1.4.2 (f4327f4, 2025-05-13)"
   xmlns:inkscape="http://www.inkscape.org/namespaces/inkscape"
   xmlns:sodipodi="http://sodipodi.sourceforge.net/DTD/sodipodi-0.dtd"
   xmlns="http://www.w3.org/2000/svg"
   xmlns:svg="http://www.w3.org/2000/svg">
  <defs
     id="defs1">
    <clipPath
       clipPathUnits="userSpaceOnUse"
       id="clipPath1">
      <path
         d="M 0,0 H 822 V 553 H 0 Z"
         id="path1" />
    </clipPath>
    <clipPath
       clipPathUnits="userSpaceOnUse"
       id="clipPath2">
      <path
         d="M 0,0 H 822 V 553 H 0 Z"
         id="path2" />
    </clipPath>
    <clipPath
       clipPathUnits="userSpaceOnUse"
       id="clipPath3">
      <path
         d="M 0,0 H 822 V 553 H 0 Z"
         id="path3" />
    </clipPath>
    <clipPath
       clipPathUnits="userSpaceOnUse"
       id="clipPath4">
      <path
         d="M 0,0 H 822 V 553 H 0 Z"
         id="path4" />
    </clipPath>
    <clipPath
       clipPathUnits="userSpaceOnUse"
       id="clipPath5">
      <path
         d="M 0,0 H 822 V 553 H 0 Z"
         id="path5" />
    </clipPath>
    <clipPath
       clipPathUnits="userSpaceOnUse"
       id="clipPath6">
      <path
         d="M 0,0 H 822 V 553 H 0 Z"
         id="path6" />
    </clipPath>
    <clipPath
       clipPathUnits="userSpaceOnUse"
       id="clipPath7">
      <path
         d="M 0,0 H 822 V 553 H 0 Z"
         id="path7" />
    </clipPath>
    <clipPath
       clipPathUnits="userSpaceOnUse"
       id="clipPath8">
      <path
         d="M 0,0 H 822 V 553 H 0 Z"
         id="path8" />
    </clipPath>
    <clipPath
       clipPathUnits="userSpaceOnUse"
       id="clipPath9">
      <path
         d="M 0,0 H 822 V 553 H 0 Z"
         id="path9" />
    </clipPath>
    <clipPath
       clipPathUnits="userSpaceOnUse"
       id="clipPath10">
      <path
         d="M 0,0 H 822 V 553 H 0 Z"
         id="path10" />
    </clipPath>
    <clipPath
       clipPathUnits="userSpaceOnUse"
       id="clipPath11">
      <path
         d="M 0,0 H 822 V 553 H 0 Z"
         id="path11" />
    </clipPath>
    <clipPath
       clipPathUnits="userSpaceOnUse"
       id="clipPath12">
      <path
         d="M 0,0 H 822 V 553 H 0 Z"
         id="path12" />
    </clipPath>
    <clipPath
       clipPathUnits="userSpaceOnUse"
       id="clipPath13">
      <path
         d="M 0,0 H 822 V 553 H 0 Z"
         id="path13" />
    </clipPath>
    <clipPath
       clipPathUnits="userSpaceOnUse"
       id="clipPath14">
      <path
         d="M 0,0 H 822 V 553 H 0 Z"
         id="path14" />
    </clipPath>
    <clipPath
       clipPathUnits="userSpaceOnUse"
       id="clipPath15">
      <path
         d="M 0,0 H 822 V 553 H 0 Z"
         id="path15" />
    </clipPath>
    <clipPath
       clipPathUnits="userSpaceOnUse"
       id="clipPath16">
      <path
         d="M 0,0 H 822 V 553 H 0 Z"
         id="path16" />
    </clipPath>
    <clipPath
       clipPathUnits="userSpaceOnUse"
       id="clipPath17">
      <path
         d="M 0,0 H 822 V 553 H 0 Z"
         id="path17" />
    </clipPath>
    <clipPath
       clipPathUnits="userSpaceOnUse"
       id="clipPath18">
      <path
         d="M 0,0 H 822 V 553 H 0 Z"
         id="path18" />
    </clipPath>
    <clipPath
       clipPathUnits="userSpaceOnUse"
       id="clipPath19">
      <path
         d="M 0,0 H 822 V 553 H 0 Z"
         id="path19" />
    </clipPath>
    <clipPath
       clipPathUnits="userSpaceOnUse"
       id="clipPath20">
      <path
         d="M 0,0 H 822 V 553 H 0 Z"
         id="path20" />
    </clipPath>
    <clipPath
       clipPathUnits="userSpaceOnUse"
       id="clipPath21">
      <path
         d="M 0,0 H 822 V 553 H 0 Z"
         id="path21" />
    </clipPath>
    <clipPath
       clipPathUnits="userSpaceOnUse"
       id="clipPath22">
      <path
         d="M 0,0 H 822 V 553 H 0 Z"
         id="path22" />
    </clipPath>
    <clipPath
       clipPathUnits="userSpaceOnUse"
       id="clipPath23">
      <path
         d="M 0,0 H 822 V 553 H 0 Z"
         id="path23" />
    </clipPath>
    <clipPath
       clipPathUnits="userSpaceOnUse"
       id="clipPath24">
      <path
         d="M 0,0 H 822 V 553 H 0 Z"
         id="path24" />
    </clipPath>
    <clipPath
       clipPathUnits="userSpaceOnUse"
       id="clipPath25">
      <path
         d="M 0,0 H 822 V 553 H 0 Z"
         id="path25" />
    </clipPath>
    <clipPath
       clipPathUnits="userSpaceOnUse"
       id="clipPath26">
      <path
         d="M 0,0 H 822 V 553 H 0 Z"
         id="path26" />
    </clipPath>
    <clipPath
       clipPathUnits="userSpaceOnUse"
       id="clipPath27">
      <path
         d="M 0,0 H 822 V 553 H 0 Z"
         id="path27" />
    </clipPath>
    <clipPath
       clipPathUnits="userSpaceOnUse"
       id="clipPath28">
      <path
         d="M 0,0 H 822 V 553 H 0 Z"
         id="path28" />
    </clipPath>
    <clipPath
       clipPathUnits="userSpaceOnUse"
       id="clipPath29">
      <path
         d="M 0,0 H 822 V 553 H 0 Z"
         id="path29" />
    </clipPath>
    <clipPath
       clipPathUnits="userSpaceOnUse"
       id="clipPath30">
      <path
         d="M 0,0 H 822 V 553 H 0 Z"
         id="path30" />
    </clipPath>
    <clipPath
       clipPathUnits="userSpaceOnUse"
       id="clipPath31">
      <path
         d="M 0,0 H 822 V 553 H 0 Z"
         id="path31" />
    </clipPath>
    <clipPath
       clipPathUnits="userSpaceOnUse"
       id="clipPath32">
      <path
         d="M 0,0 H 822 V 553 H 0 Z"
         id="path32" />
    </clipPath>
  </defs>
  <sodipodi:namedview
     id="namedview1"
     pagecolor="#ffffff"
     bordercolor="#000000"
     borderopacity="0.25"
     inkscape:showpageshadow="2"
     inkscape:pageopacity="0.0"
     inkscape:pagecheckerboard="0"
     inkscape:deskcolor="#d1d1d1"
     inkscape:zoom="0.6114394"
     inkscape:cx="564.24234"
     inkscape:cy="251.8647"
     inkscape:window-width="1500"
     inkscape:window-height="930"
     inkscape:window-x="-6"
     inkscape:window-y="-6"
     inkscape:window-maximized="1"
     inkscape:current-layer="layer3"
     showgrid="false">
    <inkscape:page
       x="0"
       y="0"
       inkscape:label="3"
       id="page1"
       width="1122.6667"
       height="793.33331"
       margin="0"
       bleed="0" />
  </sodipodi:namedview>
  <g
     inkscape:groupmode="layer"
     id="layer3"
     inkscape:label="Fondo">
    <rect
       style="fill:#000000;stroke:#ffffff;stroke-width:1.00157"
       id="rect1"
       width="1135.0266"
       height="804.65863"
       x="-6.5419402"
       y="-4.906455" />
  </g>
  <g
     id="g1"
     inkscape:groupmode="layer"
     inkscape:label="3">
    <g
       id="g64"
       style="fill:#000000;fill-opacity:1;stroke:#ffffff;stroke-opacity:1">
      <path
         d="m 704.2696,232.9137 0.7295,0.7291"
         style="fill:#000000;stroke:#ffffff;stroke-width:5.7427;stroke-linecap:round;stroke-linejoin:miter;stroke-miterlimit:10;stroke-dasharray:none;stroke-opacity:1;fill-opacity:1"
         transform="matrix(1.0582667,0,0,-1.0577333,0,584.95107)"
         clip-path="url(#clipPath1)"
         id="path33" />
      <path
         d="m 737.0976,207.3942 h 74.41"
         style="fill:#000000;stroke:#ffffff;stroke-width:11.4883;stroke-linecap:round;stroke-linejoin:miter;stroke-miterlimit:10;stroke-dasharray:none;stroke-opacity:1;fill-opacity:1"
         transform="matrix(1.0582667,0,0,-1.0577333,0,584.95107)"
         clip-path="url(#clipPath2)"
         id="path34" />
      <path
         d="m 704.2696,203.7486 0.7295,0.7291"
         style="fill:#000000;stroke:#ffffff;stroke-width:5.7427;stroke-linecap:round;stroke-linejoin:miter;stroke-miterlimit:10;stroke-dasharray:none;stroke-opacity:1;fill-opacity:1"
         transform="matrix(1.0582667,0,0,-1.0577333,0,584.95107)"
         clip-path="url(#clipPath3)"
         id="path35" />
      <path
         d="m 704.9991,262.8078 26.2624,-26.2485"
         style="fill:#000000;stroke:#ffffff;stroke-width:11.4883;stroke-linecap:round;stroke-linejoin:miter;stroke-miterlimit:10;stroke-dasharray:none;stroke-opacity:1;fill-opacity:1"
         transform="matrix(1.0582667,0,0,-1.0577333,0,584.95107)"
         clip-path="url(#clipPath4)"
         id="path36" />
      <path
         d="m 273.1288,203.0195 0.7295,0.7291"
         style="fill:#000000;stroke:#ffffff;stroke-width:5.7427;stroke-linecap:round;stroke-linejoin:miter;stroke-miterlimit:10;stroke-dasharray:none;stroke-opacity:1;fill-opacity:1"
         transform="matrix(1.0582667,0,0,-1.0577333,0,584.95107)"
         clip-path="url(#clipPath5)"
         id="path37" />
      <path
         d="M 273.8583,203.7486 H 704.2696"
         style="fill:#000000;stroke:#ffffff;stroke-width:5.7427;stroke-linecap:round;stroke-linejoin:miter;stroke-miterlimit:10;stroke-dasharray:none;stroke-opacity:1;fill-opacity:1"
         transform="matrix(1.0582667,0,0,-1.0577333,0,584.95107)"
         clip-path="url(#clipPath6)"
         id="path38" />
      <path
         d="m 704.9991,175.3127 32.0985,32.0815"
         style="fill:#000000;stroke:#ffffff;stroke-width:11.4883;stroke-linecap:round;stroke-linejoin:miter;stroke-miterlimit:10;stroke-dasharray:none;stroke-opacity:1;fill-opacity:1"
         transform="matrix(1.0582667,0,0,-1.0577333,0,584.95107)"
         clip-path="url(#clipPath7)"
         id="path39" />
      <path
         d="m 273.1288,232.1845 0.7295,0.7292"
         style="fill:#000000;stroke:#ffffff;stroke-width:5.7427;stroke-linecap:round;stroke-linejoin:miter;stroke-miterlimit:10;stroke-dasharray:none;stroke-opacity:1;fill-opacity:1"
         transform="matrix(1.0582667,0,0,-1.0577333,0,584.95107)"
         clip-path="url(#clipPath8)"
         id="path40" />
      <path
         d="M 273.8583,232.9137 H 704.2696"
         style="fill:#000000;stroke:#ffffff;stroke-width:5.7427;stroke-linecap:round;stroke-linejoin:miter;stroke-miterlimit:10;stroke-dasharray:none;stroke-opacity:1;fill-opacity:1"
         transform="matrix(1.0582667,0,0,-1.0577333,0,584.95107)"
         clip-path="url(#clipPath9)"
         id="path41" />
      <path
         d="m 731.2615,236.5593 h 80.2461"
         style="fill:#000000;stroke:#ffffff;stroke-width:11.4883;stroke-linecap:round;stroke-linejoin:miter;stroke-miterlimit:10;stroke-dasharray:none;stroke-opacity:1;fill-opacity:1"
         transform="matrix(1.0582667,0,0,-1.0577333,0,584.95107)"
         clip-path="url(#clipPath10)"
         id="path42" />
      <path
         d="m 529.9165,483.176 v 0"
         style="fill:#000000;stroke:#ffffff;stroke-width:48.2498;stroke-linecap:round;stroke-linejoin:miter;stroke-miterlimit:10;stroke-dasharray:none;stroke-opacity:1;fill-opacity:1"
         transform="matrix(1.0582667,0,0,-1.0577333,0,584.95107)"
         clip-path="url(#clipPath11)"
         id="path43" />
      <path
         d="m 548.2973,483.1745 c 0,10.1469 -8.23,18.3725 -18.3822,18.3725 -10.1522,0 -18.3822,-8.2256 -18.3822,-18.3725 0,-10.1468 8.23,-18.3725 18.3822,-18.3725 10.1522,0 18.3822,8.2257 18.3822,18.3725"
         style="fill:#000000;fill-opacity:1;fill-rule:nonzero;stroke:#ffffff;stroke-opacity:1"
         transform="matrix(1.0582667,0,0,-1.0577333,0,584.95107)"
         clip-path="url(#clipPath12)"
         id="path44" />
      <path
         d="m 794.1132,25.7544 v 0"
         style="fill:#000000;stroke:#ffffff;stroke-width:48.2498;stroke-linecap:round;stroke-linejoin:miter;stroke-miterlimit:10;stroke-dasharray:none;stroke-opacity:1;fill-opacity:1"
         transform="matrix(1.0582667,0,0,-1.0577333,0,584.95107)"
         clip-path="url(#clipPath13)"
         id="path45" />
      <path
         d="m 812.4969,25.7544 c 0,10.1476 -8.2307,18.3739 -18.3837,18.3739 -10.153,0 -18.3837,-8.2263 -18.3837,-18.3739 0,-10.1477 8.2307,-18.374 18.3837,-18.374 10.153,0 18.3837,8.2263 18.3837,18.374"
         style="fill:#000000;fill-opacity:1;fill-rule:nonzero;stroke:#ffffff;stroke-opacity:1"
         transform="matrix(1.0582667,0,0,-1.0577333,0,584.95107)"
         clip-path="url(#clipPath14)"
         id="path46" />
      <path
         d="m 811.5076,207.3942 v 0"
         style="fill:#000000;stroke:#ffffff;stroke-width:18.0919;stroke-linecap:round;stroke-linejoin:miter;stroke-miterlimit:10;stroke-dasharray:none;stroke-opacity:1;fill-opacity:1"
         transform="matrix(1.0582667,0,0,-1.0577333,0,584.95107)"
         clip-path="url(#clipPath15)"
         id="path47" />
      <path
         d="m 817.6355,207.3928 c 0,3.3833 -2.7442,6.1261 -6.1293,6.1261 -3.3852,0 -6.1294,-2.7428 -6.1294,-6.1261 0,-3.3834 2.7442,-6.1261 6.1294,-6.1261 3.3851,0 6.1293,2.7427 6.1293,6.1261"
         style="fill:#000000;fill-opacity:1;fill-rule:nonzero;stroke:#ffffff;stroke-opacity:1"
         transform="matrix(1.0582667,0,0,-1.0577333,0,584.95107)"
         clip-path="url(#clipPath16)"
         id="path48" />
      <path
         d="m 704.9991,262.8078 v 0"
         style="fill:#000000;stroke:#ffffff;stroke-width:18.0919;stroke-linecap:round;stroke-linejoin:miter;stroke-miterlimit:10;stroke-dasharray:none;stroke-opacity:1;fill-opacity:1"
         transform="matrix(1.0582667,0,0,-1.0577333,0,584.95107)"
         clip-path="url(#clipPath17)"
         id="path49" />
      <path
         d="m 711.127,262.8064 c 0,3.3833 -2.7442,6.1261 -6.1294,6.1261 -3.3851,0 -6.1293,-2.7428 -6.1293,-6.1261 0,-3.3834 2.7442,-6.1261 6.1293,-6.1261 3.3852,0 6.1294,2.7427 6.1294,6.1261"
         style="fill:#000000;fill-opacity:1;fill-rule:nonzero;stroke:#ffffff;stroke-opacity:1"
         transform="matrix(1.0582667,0,0,-1.0577333,0,584.95107)"
         clip-path="url(#clipPath18)"
         id="path50" />
      <path
         d="m 811.5076,236.5593 v 0"
         style="fill:#000000;stroke:#ffffff;stroke-width:18.0919;stroke-linecap:round;stroke-linejoin:miter;stroke-miterlimit:10;stroke-dasharray:none;stroke-opacity:1;fill-opacity:1"
         transform="matrix(1.0582667,0,0,-1.0577333,0,584.95107)"
         clip-path="url(#clipPath19)"
         id="path51" />
      <path
         d="m 817.6355,236.5578 c 0,3.3834 -2.7442,6.1261 -6.1293,6.1261 -3.3852,0 -6.1294,-2.7427 -6.1294,-6.1261 0,-3.3833 2.7442,-6.1261 6.1294,-6.1261 3.3851,0 6.1293,2.7428 6.1293,6.1261"
         style="fill:#000000;fill-opacity:1;fill-rule:nonzero;stroke:#ffffff;stroke-opacity:1"
         transform="matrix(1.0582667,0,0,-1.0577333,0,584.95107)"
         clip-path="url(#clipPath20)"
         id="path52" />
      <path
         d="m 268.384,25.7544 v 0"
         style="fill:#000000;stroke:#ffffff;stroke-width:48.2498;stroke-linecap:round;stroke-linejoin:miter;stroke-miterlimit:10;stroke-dasharray:none;stroke-opacity:1;fill-opacity:1"
         transform="matrix(1.0582667,0,0,-1.0577333,0,584.95107)"
         clip-path="url(#clipPath21)"
         id="path53" />
      <path
         d="m 286.7648,25.7544 c 0,10.1476 -8.23,18.3739 -18.3822,18.3739 -10.1522,0 -18.3822,-8.2263 -18.3822,-18.3739 0,-10.1477 8.23,-18.374 18.3822,-18.374 10.1522,0 18.3822,8.2263 18.3822,18.374"
         style="fill:#000000;fill-opacity:1;fill-rule:nonzero;stroke:#ffffff;stroke-opacity:1"
         transform="matrix(1.0582667,0,0,-1.0577333,0,584.95107)"
         clip-path="url(#clipPath22)"
         id="path54" />
      <path
         d="m 704.9991,204.4777 v 0"
         style="fill:#000000;stroke:#ffffff;stroke-width:18.0919;stroke-linecap:round;stroke-linejoin:miter;stroke-miterlimit:10;stroke-dasharray:none;stroke-opacity:1;fill-opacity:1"
         transform="matrix(1.0582667,0,0,-1.0577333,0,584.95107)"
         clip-path="url(#clipPath23)"
         id="path55" />
      <path
         d="m 711.127,204.4763 c 0,3.3833 -2.7442,6.1261 -6.1294,6.1261 -3.3851,0 -6.1293,-2.7428 -6.1293,-6.1261 0,-3.3834 2.7442,-6.1261 6.1293,-6.1261 3.3852,0 6.1294,2.7427 6.1294,6.1261"
         style="fill:#000000;fill-opacity:1;fill-rule:nonzero;stroke:#ffffff;stroke-opacity:1"
         transform="matrix(1.0582667,0,0,-1.0577333,0,584.95107)"
         clip-path="url(#clipPath24)"
         id="path56" />
      <path
         d="m 704.9991,233.6428 v 0"
         style="fill:#000000;stroke:#ffffff;stroke-width:18.0919;stroke-linecap:round;stroke-linejoin:miter;stroke-miterlimit:10;stroke-dasharray:none;stroke-opacity:1;fill-opacity:1"
         transform="matrix(1.0582667,0,0,-1.0577333,0,584.95107)"
         clip-path="url(#clipPath25)"
         id="path57" />
      <path
         d="m 711.127,233.6413 c 0,3.3834 -2.7442,6.1261 -6.1294,6.1261 -3.3851,0 -6.1293,-2.7427 -6.1293,-6.1261 0,-3.3833 2.7442,-6.1261 6.1293,-6.1261 3.3852,0 6.1294,2.7428 6.1294,6.1261"
         style="fill:#000000;fill-opacity:1;fill-rule:nonzero;stroke:#ffffff;stroke-opacity:1"
         transform="matrix(1.0582667,0,0,-1.0577333,0,584.95107)"
         clip-path="url(#clipPath26)"
         id="path58" />
      <path
         d="m 704.9991,175.3127 v 0"
         style="fill:#000000;stroke:#ffffff;stroke-width:18.0919;stroke-linecap:round;stroke-linejoin:miter;stroke-miterlimit:10;stroke-dasharray:none;stroke-opacity:1;fill-opacity:1"
         transform="matrix(1.0582667,0,0,-1.0577333,0,584.95107)"
         clip-path="url(#clipPath27)"
         id="path59" />
      <path
         d="m 711.127,175.3112 c 0,3.3834 -2.7442,6.1262 -6.1294,6.1262 -3.3851,0 -6.1293,-2.7428 -6.1293,-6.1262 0,-3.3833 2.7442,-6.1261 6.1293,-6.1261 3.3852,0 6.1294,2.7428 6.1294,6.1261"
         style="fill:#000000;fill-opacity:1;fill-rule:nonzero;stroke:#ffffff;stroke-opacity:1"
         transform="matrix(1.0582667,0,0,-1.0577333,0,584.95107)"
         clip-path="url(#clipPath28)"
         id="path60" />
      <path
         d="m 273.1288,232.1845 v 0"
         style="fill:#000000;stroke:#ffffff;stroke-width:18.0919;stroke-linecap:round;stroke-linejoin:miter;stroke-miterlimit:10;stroke-dasharray:none;stroke-opacity:1;fill-opacity:1"
         transform="matrix(1.0582667,0,0,-1.0577333,0,584.95107)"
         clip-path="url(#clipPath29)"
         id="path61" />
      <path
         d="m 279.2567,232.1831 c 0,3.3833 -2.7442,6.1261 -6.1294,6.1261 -3.3851,0 -6.1293,-2.7428 -6.1293,-6.1261 0,-3.3834 2.7442,-6.1261 6.1293,-6.1261 3.3852,0 6.1294,2.7427 6.1294,6.1261"
         style="fill:#000000;fill-opacity:1;fill-rule:nonzero;stroke:#ffffff;stroke-opacity:1"
         transform="matrix(1.0582667,0,0,-1.0577333,0,584.95107)"
         clip-path="url(#clipPath30)"
         id="path62" />
      <path
         d="m 273.1288,203.0195 v 0"
         style="fill:#000000;stroke:#ffffff;stroke-width:18.0919;stroke-linecap:round;stroke-linejoin:miter;stroke-miterlimit:10;stroke-dasharray:none;stroke-opacity:1;fill-opacity:1"
         transform="matrix(1.0582667,0,0,-1.0577333,0,584.95107)"
         clip-path="url(#clipPath31)"
         id="path63" />
      <path
         d="m 279.2567,203.018 c 0,3.3834 -2.7442,6.1261 -6.1294,6.1261 -3.3851,0 -6.1293,-2.7427 -6.1293,-6.1261 0,-3.3833 2.7442,-6.1261 6.1293,-6.1261 3.3852,0 6.1294,2.7428 6.1294,6.1261"
         style="fill:#000000;fill-opacity:1;fill-rule:nonzero;stroke:#ffffff;stroke-opacity:1"
         transform="matrix(1.0582667,0,0,-1.0577333,0,584.95107)"
         clip-path="url(#clipPath32)"
         id="path64" />
    </g>
  </g>
</svg>
