<?xml version="1.0" standalone="no"?>
 <!DOCTYPE svg PUBLIC "-//W3C//DTD SVG 1.1//EN" 
 "http://www.w3.org/Graphics/SVG/1.1/DTD/svg11.dtd"> 
<svg
  xmlns:svg="http://www.w3.org/2000/svg"
  xmlns="http://www.w3.org/2000/svg"
  xmlns:xlink="http://www.w3.org/1999/xlink"
  xmlns:inkscape="http://www.inkscape.org/namespaces/inkscape"
  version="1.1"
  width="62.0014mm" height="62.0014mm" viewBox="0.0000 0.0000 62.0014 62.0014">
<title>SVG Image created as carga_top.svg date 2026-07-05T22:31:43 </title>
  <desc>Image generated by PCBNEW </desc>
<g style="fill:#000000; fill-opacity:1.0000;stroke:#000000; stroke-opacity:1.0000;
stroke-linecap:round; stroke-linejoin:round;"
 transform="translate(0 0) scale(1 1)">
<path style="fill:#000000; fill-opacity:1.0000; stroke:none;fill-rule:evenodd;"
d="M 48.2625,26.4662
48.2625,24.7662
49.9625,24.7662
49.9625,26.4662
Z" /> 
</g>
<g style="fill:#000000; fill-opacity:1.0000; stroke:none;">
<circle cx="51.6525" cy="25.6162" r="0.8500" /> 
<circle cx="49.1125" cy="28.1562" r="0.8500" /> 
<circle cx="51.6525" cy="28.1562" r="0.8500" /> 
<circle cx="49.1125" cy="30.6962" r="0.8500" /> 
<circle cx="51.6525" cy="30.6962" r="0.8500" /> 
<circle cx="51.6525" cy="33.2362" r="0.8500" /> 
<path style="fill:#000000; fill-opacity:1.0000; stroke:none;fill-rule:evenodd;"
d="M 28.3725,10.1612
28.3725,11.8612
26.6725,11.8612
26.6725,10.1612
Z" /> 
<circle cx="24.9825" cy="11.0112" r="0.8500" /> 
<circle cx="22.4425" cy="11.0112" r="0.8500" /> 
<path style="fill:#000000; fill-opacity:1.0000; stroke:none;fill-rule:evenodd;"
d="M 38.1025,10.1612
39.8025,10.1612
39.8025,11.8612
38.1025,11.8612
Z" /> 
<circle cx="36.4125" cy="11.0112" r="0.8500" /> 
<path style="fill:#000000; fill-opacity:1.0000; stroke:none;fill-rule:evenodd;"
d="M 32.6625,53.5462
32.6435,53.6419
32.5893,53.7230
32.5082,53.7772
32.4125,53.7962
31.7125,53.7962
31.6168,53.7772
31.5357,53.7230
31.4815,53.6419
31.4625,53.5462
31.4625,52.2962
31.4815,52.2006
31.5357,52.1195
31.6168,52.0653
31.7125,52.0462
32.4125,52.0462
32.5082,52.0653
32.5893,52.1195
32.6435,52.2006
32.6625,52.2962
Z" /> 
</g>
<g style="fill:none; 
stroke:#000000; stroke-width:1.2000; stroke-opacity:1; 
stroke-linecap:round; stroke-linejoin:round;">
<path d="M30.0625 53.1962
L30.0625 52.6462
" />
<path style="fill:#000000; fill-opacity:1.0000; stroke:none;fill-rule:evenodd;"
d="M 27.9625,30.3262
27.9625,28.5262
29.7625,28.5262
29.7625,30.3262
Z" /> 
</g>
<g style="fill:#000000; fill-opacity:1.0000; stroke:none;">
<circle cx="28.8625" cy="31.9662" r="0.9000" /> 
<circle cx="28.8625" cy="26.8862" r="0.9000" /> 
<circle cx="28.8625" cy="34.5062" r="0.9000" /> 
</g>
<g style="fill:none; 
stroke:#000000; stroke-width:0.2500; stroke-opacity:1; 
stroke-linecap:round; stroke-linejoin:round;">
<path d="M38.9525 59.2712
L38.9525 45.9362
" />
<path d="M28.8625 34.5062
L28.8625 51.7212
" />
<path d="M51.6525 30.6962
L51.6525 28.1562
" />
<path d="M51.6525 25.6162
L51.6525 28.1562
" />
<path d="M30.0625 52.9212
L30.0625 59.2712
" />
<path d="M28.8625 34.5062
L28.8625 31.9662
" />
<path d="M28.8625 51.7212
L30.0625 52.9212
" />
<path d="M30.0625 59.2712
L38.9525 59.2712
" />
<path d="M51.6525 33.2362
L51.6525 30.6962
" />
<path d="M38.9525 45.9362
L51.6525 33.2362
" />
<path d="M44.6675 26.2512
L49.1125 30.6962
" />
<path d="M44.6675 5.9312
L44.6675 26.2512
" />
<path d="M24.9825 11.0112
L24.9825 5.9312
" />
<path d="M24.9825 5.9312
L44.6675 5.9312
" />
<path d="M27.5225 11.0112
L36.4125 11.0112
" />
<path d="M38.9525 11.0112
L38.9525 16.7962
" />
<path d="M38.9525 16.7962
L28.8625 26.8862
" />
<path d="M28.8625 29.4262
L32.0625 32.6262
" />
<path d="M32.0625 32.6262
L32.0625 52.9212
" />
</g>
<g style="fill:none; 
stroke:#000000; stroke-width:0.1000; stroke-opacity:1; 
stroke-linecap:round; stroke-linejoin:round;">
<circle cx="31.0025" cy="31.0012" r="31.0000" /> 
</g>
<g style="fill:#FFFFFF; fill-opacity:1.0000; stroke:none;">
<circle cx="49.1125" cy="25.6162" r="0.5000" /> 
</g>
<g style="fill:#FFFFFF; fill-opacity:1.0000; stroke:none;">
<circle cx="51.6525" cy="25.6162" r="0.5000" /> 
</g>
<g style="fill:#FFFFFF; fill-opacity:1.0000; stroke:none;">
<circle cx="49.1125" cy="28.1562" r="0.5000" /> 
</g>
<g style="fill:#FFFFFF; fill-opacity:1.0000; stroke:none;">
<circle cx="51.6525" cy="28.1562" r="0.5000" /> 
</g>
<g style="fill:#FFFFFF; fill-opacity:1.0000; stroke:none;">
<circle cx="49.1125" cy="30.6962" r="0.5000" /> 
</g>
<g style="fill:#FFFFFF; fill-opacity:1.0000; stroke:none;">
<circle cx="51.6525" cy="30.6962" r="0.5000" /> 
</g>
<g style="fill:#FFFFFF; fill-opacity:1.0000; stroke:none;">
<circle cx="51.6525" cy="33.2362" r="0.5000" /> 
</g>
<g style="fill:#FFFFFF; fill-opacity:1.0000; stroke:none;">
<circle cx="27.5225" cy="11.0112" r="0.5000" /> 
</g>
<g style="fill:#FFFFFF; fill-opacity:1.0000; stroke:none;">
<circle cx="24.9825" cy="11.0112" r="0.5000" /> 
</g>
<g style="fill:#FFFFFF; fill-opacity:1.0000; stroke:none;">
<circle cx="22.4425" cy="11.0112" r="0.5000" /> 
</g>
<g style="fill:#FFFFFF; fill-opacity:1.0000; stroke:none;">
<circle cx="38.9525" cy="11.0112" r="0.5000" /> 
</g>
<g style="fill:#FFFFFF; fill-opacity:1.0000; stroke:none;">
<circle cx="36.4125" cy="11.0112" r="0.5000" /> 
</g>
<g style="fill:#000000; fill-opacity:1.0000; stroke:none;">
<circle cx="50.0945" cy="11.9092" r="1.3500" /> 
</g>
<g style="fill:#FFFFFF; fill-opacity:1.0000; stroke:none;">
<circle cx="32.0625" cy="52.9212" r="0.3750" /> 
</g>
<g style="fill:#FFFFFF; fill-opacity:1.0000; stroke:none;">
<circle cx="30.0625" cy="52.9212" r="0.3750" /> 
</g>
<g style="fill:#000000; fill-opacity:1.0000; stroke:none;">
<circle cx="50.0945" cy="50.0932" r="1.3500" /> 
<circle cx="11.9105" cy="11.9092" r="1.3500" /> 
<circle cx="11.9105" cy="50.0932" r="1.3500" /> 
</g>
<g style="fill:#FFFFFF; fill-opacity:1.0000; stroke:none;">
<circle cx="28.8625" cy="29.4262" r="0.5000" /> 
</g>
<g style="fill:#FFFFFF; fill-opacity:1.0000; stroke:none;">
<circle cx="28.8625" cy="31.9662" r="0.5000" /> 
</g>
<g style="fill:#FFFFFF; fill-opacity:1.0000; stroke:none;">
<circle cx="28.8625" cy="26.8862" r="0.5000" /> 
</g>
<g style="fill:#FFFFFF; fill-opacity:1.0000; stroke:none;">
<circle cx="28.8625" cy="34.5062" r="0.5000" /> 
</g> 
</svg>
