<?xml version="1.0" standalone="no"?>
 <!DOCTYPE svg PUBLIC "-//W3C//DTD SVG 1.1//EN" 
 "http://www.w3.org/Graphics/SVG/1.1/DTD/svg11.dtd"> 
<svg
  xmlns:svg="http://www.w3.org/2000/svg"
  xmlns="http://www.w3.org/2000/svg"
  xmlns:xlink="http://www.w3.org/1999/xlink"
  xmlns:inkscape="http://www.inkscape.org/namespaces/inkscape"
  version="1.1"
  width="62.0014mm" height="62.0014mm" viewBox="0.0000 0.0000 62.0014 62.0014">
<title>SVG Image created as cerebro_top.svg date 2026-07-05T22:31:41 </title>
  <desc>Image generated by PCBNEW </desc>
<g style="fill:#000000; fill-opacity:1.0000;stroke:#000000; stroke-opacity:1.0000;
stroke-linecap:round; stroke-linejoin:round;"
 transform="translate(0 0) scale(1 1)">
<path style="fill:#000000; fill-opacity:1.0000; stroke:none;fill-rule:evenodd;"
d="M 51.4975,42.8462
51.5165,42.7506
51.5707,42.6695
51.6518,42.6153
51.7475,42.5962
52.8475,42.5962
52.9432,42.6153
53.0243,42.6695
53.0785,42.7506
53.0975,42.8462
53.0975,43.9462
53.0785,44.0419
53.0243,44.1230
52.9432,44.1772
52.8475,44.1962
51.7475,44.1962
51.6518,44.1772
51.5707,44.1230
51.5165,44.0419
51.4975,43.9462
Z" /> 
</g>
<g style="fill:#000000; fill-opacity:1.0000; stroke:none;">
<circle cx="56.0975" cy="43.3962" r="0.8000" /> 
<path style="fill:#000000; fill-opacity:1.0000; stroke:none;fill-rule:evenodd;"
d="M 3.9425,31.8012
4.0382,31.8203
4.1193,31.8745
4.1735,31.9556
4.1925,32.0512
4.1925,33.1512
4.1735,33.2469
4.1193,33.3280
4.0382,33.3822
3.9425,33.4012
2.8425,33.4012
2.7468,33.3822
2.6657,33.3280
2.6115,33.2469
2.5925,33.1512
2.5925,32.0512
2.6115,31.9556
2.6657,31.8745
2.7468,31.8203
2.8425,31.8012
Z" /> 
<circle cx="3.3925" cy="40.2212" r="0.8000" /> 
<circle cx="2.7575" cy="22.4412" r="0.8000" /> 
<circle cx="2.7575" cy="30.0612" r="0.8000" /> 
<circle cx="6.5675" cy="28.1562" r="1.0000" /> 
<circle cx="6.5675" cy="23.1562" r="1.0000" /> 
<path style="fill:#000000; fill-opacity:1.0000; stroke:none;fill-rule:evenodd;"
d="M 53.2925,16.0662
55.0925,16.0662
55.0925,17.8662
53.2925,17.8662
Z" /> 
<circle cx="54.1925" cy="25.3762" r="0.9000" /> 
<circle cx="6.5675" cy="39.5862" r="0.8000" /> 
<circle cx="6.5675" cy="31.9662" r="0.8000" /> 
<path style="fill:#000000; fill-opacity:1.0000; stroke:none;fill-rule:evenodd;"
d="M 4.3975,16.4612
6.1975,16.4612
6.1975,18.2612
4.3975,18.2612
Z" /> 
<circle cx="5.2975" cy="19.9012" r="0.9000" /> 
<path style="fill:#000000; fill-opacity:1.0000; stroke:none;fill-rule:evenodd;"
d="M 55.2475,30.2762
55.2475,28.5762
56.9475,28.5762
56.9475,30.2762
Z" /> 
<circle cx="58.6375" cy="29.4262" r="0.8500" /> 
<circle cx="56.0975" cy="31.9662" r="0.8500" /> 
<circle cx="58.6375" cy="31.9662" r="0.8500" /> 
<circle cx="56.0975" cy="34.5062" r="0.8500" /> 
<circle cx="58.6375" cy="34.5062" r="0.8500" /> 
<circle cx="58.6375" cy="37.0462" r="0.8500" /> 
<path style="fill:#000000; fill-opacity:1.0000; stroke:none;fill-rule:evenodd;"
d="M 9.5275,20.7512
9.5275,19.0512
11.2275,19.0512
11.2275,20.7512
Z" /> 
<circle cx="12.9175" cy="19.9012" r="0.8500" /> 
<circle cx="10.3775" cy="22.4412" r="0.8500" /> 
<circle cx="12.9175" cy="22.4412" r="0.8500" /> 
<circle cx="10.3775" cy="24.9812" r="0.8500" /> 
<circle cx="12.9175" cy="24.9812" r="0.8500" /> 
<circle cx="10.3775" cy="27.5212" r="0.8500" /> 
<circle cx="12.9175" cy="27.5212" r="0.8500" /> 
<circle cx="10.3775" cy="30.0612" r="0.8500" /> 
<circle cx="12.9175" cy="30.0612" r="0.8500" /> 
<circle cx="10.3775" cy="32.6012" r="0.8500" /> 
<circle cx="12.9175" cy="32.6012" r="0.8500" /> 
<circle cx="10.3775" cy="35.1412" r="0.8500" /> 
<circle cx="12.9175" cy="35.1412" r="0.8500" /> 
<circle cx="10.3775" cy="37.6812" r="0.8500" /> 
<circle cx="12.9175" cy="37.6812" r="0.8500" /> 
<circle cx="10.3775" cy="40.2212" r="0.8500" /> 
<circle cx="12.9175" cy="40.2212" r="0.8500" /> 
<circle cx="10.3775" cy="42.7612" r="0.8500" /> 
<circle cx="12.9175" cy="42.7612" r="0.8500" /> 
<path style="fill:#000000; fill-opacity:1.0000; stroke:none;fill-rule:evenodd;"
d="M 52.4525,35.3062
50.8525,35.3062
50.8525,33.7062
52.4525,33.7062
Z" /> 
<circle cx="51.6525" cy="31.9662" r="0.8000" /> 
<circle cx="51.6525" cy="37.0462" r="0.8000" /> 
<path style="fill:#000000; fill-opacity:1.0000; stroke:none;fill-rule:evenodd;"
d="M 17.4525,9.1212
17.4525,7.4212
19.1525,7.4212
19.1525,9.1212
Z" /> 
<circle cx="18.3025" cy="10.8112" r="0.8500" /> 
<circle cx="18.3025" cy="13.3512" r="0.8500" /> 
<circle cx="18.3025" cy="15.8912" r="0.8500" /> 
<circle cx="18.3025" cy="18.4312" r="0.8500" /> 
<circle cx="18.3025" cy="20.9712" r="0.8500" /> 
<circle cx="18.3025" cy="23.5112" r="0.8500" /> 
<circle cx="18.3025" cy="26.0512" r="0.8500" /> 
<circle cx="18.3025" cy="28.5912" r="0.8500" /> 
<circle cx="18.3025" cy="31.1312" r="0.8500" /> 
<circle cx="18.3025" cy="33.6712" r="0.8500" /> 
<circle cx="18.3025" cy="36.2112" r="0.8500" /> 
<circle cx="18.3025" cy="38.7512" r="0.8500" /> 
<circle cx="18.3025" cy="41.2912" r="0.8500" /> 
<circle cx="18.3025" cy="43.8312" r="0.8500" /> 
<circle cx="18.3025" cy="46.3712" r="0.8500" /> 
<circle cx="18.3025" cy="48.9112" r="0.8500" /> 
<circle cx="18.3025" cy="51.4512" r="0.8500" /> 
<circle cx="18.3025" cy="53.9912" r="0.8500" /> 
<circle cx="18.3025" cy="56.5312" r="0.8500" /> 
<circle cx="43.7025" cy="8.2712" r="0.8500" /> 
<circle cx="43.7025" cy="10.8112" r="0.8500" /> 
<circle cx="43.7025" cy="13.3512" r="0.8500" /> 
<circle cx="43.7025" cy="15.8912" r="0.8500" /> 
<circle cx="43.7025" cy="18.4312" r="0.8500" /> 
<circle cx="43.7025" cy="20.9712" r="0.8500" /> 
<circle cx="43.7025" cy="23.5112" r="0.8500" /> 
<circle cx="43.7025" cy="26.0512" r="0.8500" /> 
<circle cx="43.7025" cy="28.5912" r="0.8500" /> 
<circle cx="43.7025" cy="31.1312" r="0.8500" /> 
<circle cx="43.7025" cy="33.6712" r="0.8500" /> 
<circle cx="43.7025" cy="36.2112" r="0.8500" /> 
<circle cx="43.7025" cy="38.7512" r="0.8500" /> 
<circle cx="43.7025" cy="41.2912" r="0.8500" /> 
<circle cx="43.7025" cy="43.8312" r="0.8500" /> 
<circle cx="43.7025" cy="46.3712" r="0.8500" /> 
<circle cx="43.7025" cy="48.9112" r="0.8500" /> 
<circle cx="43.7025" cy="51.4512" r="0.8500" /> 
<circle cx="43.7025" cy="53.9912" r="0.8500" /> 
<circle cx="43.7025" cy="56.5312" r="0.8500" /> 
<circle cx="16.0925" cy="39.5862" r="0.3000" /> 
<circle cx="41.4925" cy="41.4912" r="0.3000" /> 
<circle cx="45.9375" cy="21.8062" r="0.3000" /> 
<circle cx="45.9375" cy="26.2512" r="0.3000" /> 
<circle cx="16.7275" cy="17.3612" r="0.3000" /> 
<circle cx="4.6625" cy="44.6662" r="0.3000" /> 
<circle cx="34.5075" cy="38.9512" r="0.3000" /> 
<circle cx="34.5075" cy="19.9012" r="0.3000" /> 
<circle cx="6.5675" cy="45.9362" r="0.3000" /> 
<circle cx="21.8075" cy="52.7829" r="0.3000" /> 
<circle cx="22.1475" cy="37.3862" r="0.3000" /> 
<circle cx="22.4425" cy="33.8712" r="0.3000" /> 
<circle cx="22.4425" cy="29.4262" r="0.3000" /> 
<circle cx="37.6825" cy="30.0612" r="0.3000" /> 
<circle cx="38.3175" cy="35.7762" r="0.3000" /> 
<circle cx="15.4575" cy="31.3312" r="0.3000" /> 
<circle cx="42.0225" cy="12.1762" r="0.3000" /> 
<circle cx="15.4575" cy="12.2812" r="0.3000" /> 
<circle cx="11.6475" cy="21.8062" r="0.3000" /> 
<circle cx="31.9675" cy="28.5912" r="0.3000" /> 
<circle cx="14.8225" cy="9.1062" r="0.3000" /> 
<circle cx="31.8625" cy="9.6362" r="0.3000" /> 
<circle cx="36.0950" cy="32.2837" r="0.3000" /> 
<circle cx="38.8475" cy="14.7162" r="0.3000" /> 
<circle cx="16.0925" cy="14.1862" r="0.3000" /> 
<circle cx="15.4575" cy="43.3962" r="0.3000" /> 
<circle cx="39.5875" cy="31.3312" r="0.3000" /> 
<circle cx="39.5875" cy="35.0362" r="0.3000" /> 
<circle cx="20.5375" cy="42.7612" r="0.3000" /> 
</g>
<g style="fill:none; 
stroke:#000000; stroke-width:0.2500; stroke-opacity:1; 
stroke-linecap:round; stroke-linejoin:round;">
<path d="M50.0525 47.5462
L52.2975 45.3012
" />
<path d="M3.3925 31.3312
L6.5675 28.1562
" />
<path d="M16.5975 44.6662
L10.6208 44.6662
" />
<path d="M18.3025 46.3712
L19.4775 47.5462
" />
<path d="M19.4775 47.5462
L50.0525 47.5462
" />
<path d="M10.6208 44.6662
L8.2875 42.3329
" />
<path d="M18.3025 48.9112
L18.3025 46.3712
" />
<path d="M7.0335 30.8412
L5.1525 30.8412
" />
<path d="M18.3025 46.3712
L16.5975 44.6662
" />
<path d="M8.2875 32.0953
L7.0335 30.8412
" />
<path d="M5.1525 30.8412
L3.3925 32.6012
" />
<path d="M52.2975 45.3012
L52.2975 43.3962
" />
<path d="M8.2875 42.3329
L8.2875 32.0953
" />
<path d="M3.3925 32.6012
L3.3925 31.3312
" />
<path d="M43.7025 8.2712
L45.9375 10.5062
" />
<path d="M44.8775 24.6862
L43.7025 23.5112
" />
<path d="M41.2925 41.2912
L41.4925 41.4912
" />
<path d="M58.6375 34.5062
L58.6375 37.0462
" />
<path d="M16.5975 39.5862
L18.3025 41.2912
" />
<path d="M45.9375 25.7462
L43.7025 23.5112
" />
<path d="M52.7775 35.9212
L52.7775 33.3812
" />
<path d="M52.7775 33.3812
L51.1625 33.3812
" />
<path d="M43.7025 53.9912
L43.7025 51.4512
" />
<path d="M45.9375 10.5062
L45.9375 21.8062
" />
<path d="M7.2175 23.8062
L6.5675 23.1562
" />
<path d="M11.5525 23.8062
L7.2175 23.8062
" />
<path d="M43.7025 56.5312
L43.7025 53.9912
" />
<path d="M41.4925 41.4912
L42.8675 40.1162
" />
<path d="M6.5675 23.1562
L7.8925 24.4812
" />
<path d="M12.9175 22.4412
L11.5525 23.8062
" />
<path d="M18.3025 41.2912
L41.2925 41.2912
" />
<path d="M51.1625 33.3812
L44.8775 27.0962
" />
<path d="M7.8925 30.1162
L10.3775 32.6012
" />
<path d="M7.8925 24.4812
L7.8925 30.1162
" />
<path d="M16.0925 39.5862
L16.5975 39.5862
" />
<path d="M45.9375 26.2512
L45.9375 25.7462
" />
<path d="M48.5825 40.1162
L51.6525 37.0462
" />
<path d="M58.6375 29.4262
L58.6375 31.9662
" />
<path d="M51.6525 37.0462
L52.7775 35.9212
" />
<path d="M56.7325 44.6662
L56.7325 38.9512
" />
<path d="M58.6375 31.9662
L58.6375 34.5062
" />
<path d="M51.6525 39.5862
L56.7325 44.6662
" />
<path d="M51.6525 37.0462
L51.6525 39.5862
" />
<path d="M56.7325 38.9512
L58.6375 37.0462
" />
<path d="M43.7025 51.4512
L43.7025 48.9112
" />
<path d="M44.8775 27.0962
L44.8775 24.6862
" />
<path d="M42.8675 40.1162
L48.5825 40.1162
" />
<path d="M44.1892 22.3362
L51.6525 29.7995
" />
<path d="M17.8158 17.2562
L18.7892 17.2562
" />
<path d="M18.7892 17.2562
L18.8942 17.3612
" />
<path d="M42.6575 22.3362
L44.1892 22.3362
" />
<path d="M3.3925 43.3962
L4.6625 44.6662
" />
<path d="M18.8942 17.3612
L37.6825 17.3612
" />
<path d="M17.7108 17.3612
L17.8158 17.2562
" />
<path d="M3.3925 40.2212
L3.3925 43.3962
" />
<path d="M51.6525 29.7995
L51.6525 31.9662
" />
<path d="M16.7275 17.3612
L17.7108 17.3612
" />
<path d="M37.6825 17.3612
L42.6575 22.3362
" />
<path d="M4.7901 18.6762
L5.8049 18.6762
" />
<path d="M3.3925 21.8062
L3.3925 19.9012
" />
<path d="M5.8049 18.6762
L5.8499 18.6312
" />
<path d="M5.8499 18.6312
L16.6508 18.6312
" />
<path d="M4.7451 18.6312
L4.7901 18.6762
" />
<path d="M3.3925 19.9012
L3.8999 19.3938
" />
<path d="M34.4025 19.7962
L34.5075 19.9012
" />
<path d="M17.8158 19.7962
L34.4025 19.7962
" />
<path d="M34.5075 38.9512
L35.1425 38.9512
" />
<path d="M2.7575 22.4412
L3.3925 21.8062
" />
<path d="M35.1425 38.9512
L35.3425 38.7512
" />
<path d="M3.8999 18.6312
L4.7451 18.6312
" />
<path d="M35.3425 38.7512
L43.7025 38.7512
" />
<path d="M3.8999 19.3938
L3.8999 18.6312
" />
<path d="M16.6508 18.6312
L17.8158 19.7962
" />
<path d="M6.5675 39.5862
L6.5675 45.9362
" />
<path d="M20.6758 52.7829
L21.8075 52.7829
" />
<path d="M17.2242 52.7829
L15.4575 51.0162
" />
<path d="M21.8075 52.7829
L17.2242 52.7829
" />
<path d="M7.8375 45.3012
L7.8375 33.2362
" />
<path d="M15.4575 45.3012
L7.8375 45.3012
" />
<path d="M15.4575 51.0162
L15.4575 45.3012
" />
<path d="M7.8375 33.2362
L6.5675 31.9662
" />
<path d="M51.6525 34.5062
L48.7725 37.3862
" />
<path d="M48.7725 37.3862
L22.1475 37.3862
" />
<path d="M18.1975 26.1562
L18.3025 26.0512
" />
<path d="M10.3775 24.9812
L11.5525 26.1562
" />
<path d="M11.5525 26.1562
L18.1975 26.1562
" />
<path d="M12.9175 24.9812
L14.3875 23.5112
" />
<path d="M14.3875 23.5112
L18.3025 23.5112
" />
<path d="M16.9358 28.8862
L17.8158 29.7662
" />
<path d="M11.7425 28.8862
L16.9358 28.8862
" />
<path d="M17.8158 29.7662
L22.1025 29.7662
" />
<path d="M22.1025 29.7662
L22.4425 29.4262
" />
<path d="M22.4425 33.8712
L22.2425 33.6712
" />
<path d="M22.2425 33.6712
L18.3025 33.6712
" />
<path d="M10.3775 27.5212
L11.7425 28.8862
" />
<path d="M36.6625 29.0412
L32.4014 29.0412
" />
<path d="M38.3175 35.7762
L38.7525 36.2112
" />
<path d="M22.4425 27.5212
L18.8942 27.5212
" />
<path d="M18.7892 27.4162
L17.8158 27.4162
" />
<path d="M38.7525 36.2112
L43.7025 36.2112
" />
<path d="M37.6825 30.0612
L36.6625 29.0412
" />
<path d="M18.8942 27.5212
L18.7892 27.4162
" />
<path d="M17.7108 27.5212
L12.9175 27.5212
" />
<path d="M17.8158 27.4162
L17.7108 27.5212
" />
<path d="M31.3425 28.8501
L31.3425 28.7912
" />
<path d="M23.7125 28.7912
L22.4425 27.5212
" />
<path d="M32.4014 29.0412
L32.2264 29.2162
" />
<path d="M31.3425 28.7912
L23.7125 28.7912
" />
<path d="M32.2264 29.2162
L31.7086 29.2162
" />
<path d="M31.7086 29.2162
L31.3425 28.8501
" />
<path d="M15.4575 12.2812
L15.5625 12.1762
" />
<path d="M11.6475 31.3312
L15.4575 31.3312
" />
<path d="M10.3775 30.0612
L11.6475 31.3312
" />
<path d="M15.5625 12.1762
L42.0225 12.1762
" />
<path d="M12.2825 21.1712
L18.1025 21.1712
" />
<path d="M11.6475 21.8062
L12.2825 21.1712
" />
<path d="M18.1025 21.1712
L18.3025 20.9712
" />
<path d="M31.9675 28.5912
L43.7025 28.5912
" />
<path d="M15.5625 9.6362
L31.8625 9.6362
" />
<path d="M14.8225 9.1062
L15.0325 9.1062
" />
<path d="M15.0325 9.1062
L15.5625 9.6362
" />
<path d="M31.8625 9.6362
L31.9675 9.7412
" />
<path d="M15.3625 33.9662
L11.5525 33.9662
" />
<path d="M35.8825 32.4962
L16.8325 32.4962
" />
<path d="M11.5525 33.9662
L10.3775 35.1412
" />
<path d="M16.8325 32.4962
L15.3625 33.9662
" />
<path d="M36.0950 32.2837
L35.8825 32.4962
" />
<path d="M38.8475 14.7162
L17.8158 14.7162
" />
<path d="M17.8158 14.7162
L17.2858 14.1862
" />
<path d="M17.2858 14.1862
L16.0925 14.1862
" />
<path d="M15.4575 43.3962
L15.8925 43.8312
" />
<path d="M15.8925 43.8312
L18.3025 43.8312
" />
<path d="M15.5625 35.0362
L39.5875 35.0362
" />
<path d="M39.5875 35.0362
L39.7975 35.0362
" />
<path d="M39.7875 31.1312
L43.7025 31.1312
" />
<path d="M39.5875 31.3312
L39.7875 31.1312
" />
<path d="M12.9175 37.6812
L15.5625 35.0362
" />
<path d="M10.3775 40.2212
L11.5525 41.3962
" />
<path d="M20.2425 42.4662
L20.5375 42.7612
" />
<path d="M11.5525 41.3962
L16.7458 41.3962
" />
<path d="M16.7458 41.3962
L17.8158 42.4662
" />
<path d="M17.8158 42.4662
L20.2425 42.4662
" />
<path d="M16.9275 36.2112
L18.3025 36.2112
" />
<path d="M12.9175 40.2212
L16.9275 36.2112
" />
</g>
<g style="fill:none; 
stroke:#000000; stroke-width:0.0500; stroke-opacity:1; 
stroke-linecap:round; stroke-linejoin:round;">
<circle cx="31.0025" cy="31.0012" r="31.0000" /> 
</g>
<g style="fill:#FFFFFF; fill-opacity:1.0000; stroke:none;">
<circle cx="16.0925" cy="39.5862" r="0.1500" /> 
<circle cx="41.4925" cy="41.4912" r="0.1500" /> 
<circle cx="45.9375" cy="21.8062" r="0.1500" /> 
<circle cx="45.9375" cy="26.2512" r="0.1500" /> 
<circle cx="16.7275" cy="17.3612" r="0.1500" /> 
<circle cx="4.6625" cy="44.6662" r="0.1500" /> 
<circle cx="34.5075" cy="38.9512" r="0.1500" /> 
<circle cx="34.5075" cy="19.9012" r="0.1500" /> 
<circle cx="6.5675" cy="45.9362" r="0.1500" /> 
<circle cx="21.8075" cy="52.7829" r="0.1500" /> 
<circle cx="22.1475" cy="37.3862" r="0.1500" /> 
<circle cx="22.4425" cy="33.8712" r="0.1500" /> 
<circle cx="22.4425" cy="29.4262" r="0.1500" /> 
<circle cx="37.6825" cy="30.0612" r="0.1500" /> 
<circle cx="38.3175" cy="35.7762" r="0.1500" /> 
<circle cx="15.4575" cy="31.3312" r="0.1500" /> 
<circle cx="42.0225" cy="12.1762" r="0.1500" /> 
<circle cx="15.4575" cy="12.2812" r="0.1500" /> 
<circle cx="11.6475" cy="21.8062" r="0.1500" /> 
<circle cx="31.9675" cy="28.5912" r="0.1500" /> 
<circle cx="14.8225" cy="9.1062" r="0.1500" /> 
<circle cx="31.8625" cy="9.6362" r="0.1500" /> 
<circle cx="36.0950" cy="32.2837" r="0.1500" /> 
<circle cx="38.8475" cy="14.7162" r="0.1500" /> 
<circle cx="16.0925" cy="14.1862" r="0.1500" /> 
<circle cx="15.4575" cy="43.3962" r="0.1500" /> 
<circle cx="39.5875" cy="31.3312" r="0.1500" /> 
<circle cx="39.5875" cy="35.0362" r="0.1500" /> 
<circle cx="20.5375" cy="42.7612" r="0.1500" /> 
</g>
<g style="fill:#FFFFFF; fill-opacity:1.0000; stroke:none;">
<circle cx="52.2975" cy="43.3962" r="0.4000" /> 
</g>
<g style="fill:#FFFFFF; fill-opacity:1.0000; stroke:none;">
<circle cx="56.0975" cy="43.3962" r="0.4000" /> 
</g>
<g style="fill:#FFFFFF; fill-opacity:1.0000; stroke:none;">
<circle cx="3.3925" cy="32.6012" r="0.4000" /> 
</g>
<g style="fill:#FFFFFF; fill-opacity:1.0000; stroke:none;">
<circle cx="3.3925" cy="40.2212" r="0.4000" /> 
</g>
<g style="fill:#FFFFFF; fill-opacity:1.0000; stroke:none;">
<circle cx="2.7575" cy="22.4412" r="0.4000" /> 
</g>
<g style="fill:#FFFFFF; fill-opacity:1.0000; stroke:none;">
<circle cx="2.7575" cy="30.0612" r="0.4000" /> 
</g>
<g style="fill:#FFFFFF; fill-opacity:1.0000; stroke:none;">
<circle cx="6.5675" cy="28.1562" r="0.5000" /> 
</g>
<g style="fill:#FFFFFF; fill-opacity:1.0000; stroke:none;">
<circle cx="6.5675" cy="23.1562" r="0.5000" /> 
</g>
<g style="fill:#FFFFFF; fill-opacity:1.0000; stroke:none;">
<circle cx="54.1925" cy="16.9662" r="0.5000" /> 
</g>
<g style="fill:#FFFFFF; fill-opacity:1.0000; stroke:none;">
<circle cx="54.1925" cy="25.3762" r="0.5000" /> 
</g>
<g style="fill:#000000; fill-opacity:1.0000; stroke:none;">
<circle cx="50.0945" cy="50.0932" r="1.3500" /> 
</g>
<g style="fill:#FFFFFF; fill-opacity:1.0000; stroke:none;">
<circle cx="6.5675" cy="39.5862" r="0.4000" /> 
</g>
<g style="fill:#FFFFFF; fill-opacity:1.0000; stroke:none;">
<circle cx="6.5675" cy="31.9662" r="0.4000" /> 
</g>
<g style="fill:#FFFFFF; fill-opacity:1.0000; stroke:none;">
<circle cx="5.2975" cy="17.3612" r="0.4500" /> 
</g>
<g style="fill:#FFFFFF; fill-opacity:1.0000; stroke:none;">
<circle cx="5.2975" cy="19.9012" r="0.4500" /> 
</g>
<g style="fill:#FFFFFF; fill-opacity:1.0000; stroke:none;">
<circle cx="56.0975" cy="29.4262" r="0.5000" /> 
</g>
<g style="fill:#FFFFFF; fill-opacity:1.0000; stroke:none;">
<circle cx="58.6375" cy="29.4262" r="0.5000" /> 
</g>
<g style="fill:#FFFFFF; fill-opacity:1.0000; stroke:none;">
<circle cx="56.0975" cy="31.9662" r="0.5000" /> 
</g>
<g style="fill:#FFFFFF; fill-opacity:1.0000; stroke:none;">
<circle cx="58.6375" cy="31.9662" r="0.5000" /> 
</g>
<g style="fill:#FFFFFF; fill-opacity:1.0000; stroke:none;">
<circle cx="56.0975" cy="34.5062" r="0.5000" /> 
</g>
<g style="fill:#FFFFFF; fill-opacity:1.0000; stroke:none;">
<circle cx="58.6375" cy="34.5062" r="0.5000" /> 
</g>
<g style="fill:#FFFFFF; fill-opacity:1.0000; stroke:none;">
<circle cx="58.6375" cy="37.0462" r="0.5000" /> 
</g>
<g style="fill:#FFFFFF; fill-opacity:1.0000; stroke:none;">
<circle cx="10.3775" cy="19.9012" r="0.5000" /> 
</g>
<g style="fill:#FFFFFF; fill-opacity:1.0000; stroke:none;">
<circle cx="12.9175" cy="19.9012" r="0.5000" /> 
</g>
<g style="fill:#FFFFFF; fill-opacity:1.0000; stroke:none;">
<circle cx="10.3775" cy="22.4412" r="0.5000" /> 
</g>
<g style="fill:#FFFFFF; fill-opacity:1.0000; stroke:none;">
<circle cx="12.9175" cy="22.4412" r="0.5000" /> 
</g>
<g style="fill:#FFFFFF; fill-opacity:1.0000; stroke:none;">
<circle cx="10.3775" cy="24.9812" r="0.5000" /> 
</g>
<g style="fill:#FFFFFF; fill-opacity:1.0000; stroke:none;">
<circle cx="12.9175" cy="24.9812" r="0.5000" /> 
</g>
<g style="fill:#FFFFFF; fill-opacity:1.0000; stroke:none;">
<circle cx="10.3775" cy="27.5212" r="0.5000" /> 
</g>
<g style="fill:#FFFFFF; fill-opacity:1.0000; stroke:none;">
<circle cx="12.9175" cy="27.5212" r="0.5000" /> 
</g>
<g style="fill:#FFFFFF; fill-opacity:1.0000; stroke:none;">
<circle cx="10.3775" cy="30.0612" r="0.5000" /> 
</g>
<g style="fill:#FFFFFF; fill-opacity:1.0000; stroke:none;">
<circle cx="12.9175" cy="30.0612" r="0.5000" /> 
</g>
<g style="fill:#FFFFFF; fill-opacity:1.0000; stroke:none;">
<circle cx="10.3775" cy="32.6012" r="0.5000" /> 
</g>
<g style="fill:#FFFFFF; fill-opacity:1.0000; stroke:none;">
<circle cx="12.9175" cy="32.6012" r="0.5000" /> 
</g>
<g style="fill:#FFFFFF; fill-opacity:1.0000; stroke:none;">
<circle cx="10.3775" cy="35.1412" r="0.5000" /> 
</g>
<g style="fill:#FFFFFF; fill-opacity:1.0000; stroke:none;">
<circle cx="12.9175" cy="35.1412" r="0.5000" /> 
</g>
<g style="fill:#FFFFFF; fill-opacity:1.0000; stroke:none;">
<circle cx="10.3775" cy="37.6812" r="0.5000" /> 
</g>
<g style="fill:#FFFFFF; fill-opacity:1.0000; stroke:none;">
<circle cx="12.9175" cy="37.6812" r="0.5000" /> 
</g>
<g style="fill:#FFFFFF; fill-opacity:1.0000; stroke:none;">
<circle cx="10.3775" cy="40.2212" r="0.5000" /> 
</g>
<g style="fill:#FFFFFF; fill-opacity:1.0000; stroke:none;">
<circle cx="12.9175" cy="40.2212" r="0.5000" /> 
</g>
<g style="fill:#FFFFFF; fill-opacity:1.0000; stroke:none;">
<circle cx="10.3775" cy="42.7612" r="0.5000" /> 
</g>
<g style="fill:#FFFFFF; fill-opacity:1.0000; stroke:none;">
<circle cx="12.9175" cy="42.7612" r="0.5000" /> 
</g>
<g style="fill:#000000; fill-opacity:1.0000; stroke:none;">
<circle cx="50.0945" cy="11.9092" r="1.3500" /> 
<circle cx="11.9105" cy="11.9092" r="1.3500" /> 
</g>
<g style="fill:#FFFFFF; fill-opacity:1.0000; stroke:none;">
<circle cx="51.6525" cy="34.5062" r="0.4000" /> 
</g>
<g style="fill:#FFFFFF; fill-opacity:1.0000; stroke:none;">
<circle cx="51.6525" cy="31.9662" r="0.4000" /> 
</g>
<g style="fill:#FFFFFF; fill-opacity:1.0000; stroke:none;">
<circle cx="51.6525" cy="37.0462" r="0.4000" /> 
</g>
<g style="fill:#FFFFFF; fill-opacity:1.0000; stroke:none;">
<circle cx="18.3025" cy="8.2712" r="0.5000" /> 
</g>
<g style="fill:#FFFFFF; fill-opacity:1.0000; stroke:none;">
<circle cx="18.3025" cy="10.8112" r="0.5000" /> 
</g>
<g style="fill:#FFFFFF; fill-opacity:1.0000; stroke:none;">
<circle cx="18.3025" cy="13.3512" r="0.5000" /> 
</g>
<g style="fill:#FFFFFF; fill-opacity:1.0000; stroke:none;">
<circle cx="18.3025" cy="15.8912" r="0.5000" /> 
</g>
<g style="fill:#FFFFFF; fill-opacity:1.0000; stroke:none;">
<circle cx="18.3025" cy="18.4312" r="0.5000" /> 
</g>
<g style="fill:#FFFFFF; fill-opacity:1.0000; stroke:none;">
<circle cx="18.3025" cy="20.9712" r="0.5000" /> 
</g>
<g style="fill:#FFFFFF; fill-opacity:1.0000; stroke:none;">
<circle cx="18.3025" cy="23.5112" r="0.5000" /> 
</g>
<g style="fill:#FFFFFF; fill-opacity:1.0000; stroke:none;">
<circle cx="18.3025" cy="26.0512" r="0.5000" /> 
</g>
<g style="fill:#FFFFFF; fill-opacity:1.0000; stroke:none;">
<circle cx="18.3025" cy="28.5912" r="0.5000" /> 
</g>
<g style="fill:#FFFFFF; fill-opacity:1.0000; stroke:none;">
<circle cx="18.3025" cy="31.1312" r="0.5000" /> 
</g>
<g style="fill:#FFFFFF; fill-opacity:1.0000; stroke:none;">
<circle cx="18.3025" cy="33.6712" r="0.5000" /> 
</g>
<g style="fill:#FFFFFF; fill-opacity:1.0000; stroke:none;">
<circle cx="18.3025" cy="36.2112" r="0.5000" /> 
</g>
<g style="fill:#FFFFFF; fill-opacity:1.0000; stroke:none;">
<circle cx="18.3025" cy="38.7512" r="0.5000" /> 
</g>
<g style="fill:#FFFFFF; fill-opacity:1.0000; stroke:none;">
<circle cx="18.3025" cy="41.2912" r="0.5000" /> 
</g>
<g style="fill:#FFFFFF; fill-opacity:1.0000; stroke:none;">
<circle cx="18.3025" cy="43.8312" r="0.5000" /> 
</g>
<g style="fill:#FFFFFF; fill-opacity:1.0000; stroke:none;">
<circle cx="18.3025" cy="46.3712" r="0.5000" /> 
</g>
<g style="fill:#FFFFFF; fill-opacity:1.0000; stroke:none;">
<circle cx="18.3025" cy="48.9112" r="0.5000" /> 
</g>
<g style="fill:#FFFFFF; fill-opacity:1.0000; stroke:none;">
<circle cx="18.3025" cy="51.4512" r="0.5000" /> 
</g>
<g style="fill:#FFFFFF; fill-opacity:1.0000; stroke:none;">
<circle cx="18.3025" cy="53.9912" r="0.5000" /> 
</g>
<g style="fill:#FFFFFF; fill-opacity:1.0000; stroke:none;">
<circle cx="18.3025" cy="56.5312" r="0.5000" /> 
</g>
<g style="fill:#FFFFFF; fill-opacity:1.0000; stroke:none;">
<circle cx="43.7025" cy="8.2712" r="0.5000" /> 
</g>
<g style="fill:#FFFFFF; fill-opacity:1.0000; stroke:none;">
<circle cx="43.7025" cy="10.8112" r="0.5000" /> 
</g>
<g style="fill:#FFFFFF; fill-opacity:1.0000; stroke:none;">
<circle cx="43.7025" cy="13.3512" r="0.5000" /> 
</g>
<g style="fill:#FFFFFF; fill-opacity:1.0000; stroke:none;">
<circle cx="43.7025" cy="15.8912" r="0.5000" /> 
</g>
<g style="fill:#FFFFFF; fill-opacity:1.0000; stroke:none;">
<circle cx="43.7025" cy="18.4312" r="0.5000" /> 
</g>
<g style="fill:#FFFFFF; fill-opacity:1.0000; stroke:none;">
<circle cx="43.7025" cy="20.9712" r="0.5000" /> 
</g>
<g style="fill:#FFFFFF; fill-opacity:1.0000; stroke:none;">
<circle cx="43.7025" cy="23.5112" r="0.5000" /> 
</g>
<g style="fill:#FFFFFF; fill-opacity:1.0000; stroke:none;">
<circle cx="43.7025" cy="26.0512" r="0.5000" /> 
</g>
<g style="fill:#FFFFFF; fill-opacity:1.0000; stroke:none;">
<circle cx="43.7025" cy="28.5912" r="0.5000" /> 
</g>
<g style="fill:#FFFFFF; fill-opacity:1.0000; stroke:none;">
<circle cx="43.7025" cy="31.1312" r="0.5000" /> 
</g>
<g style="fill:#FFFFFF; fill-opacity:1.0000; stroke:none;">
<circle cx="43.7025" cy="33.6712" r="0.5000" /> 
</g>
<g style="fill:#FFFFFF; fill-opacity:1.0000; stroke:none;">
<circle cx="43.7025" cy="36.2112" r="0.5000" /> 
</g>
<g style="fill:#FFFFFF; fill-opacity:1.0000; stroke:none;">
<circle cx="43.7025" cy="38.7512" r="0.5000" /> 
</g>
<g style="fill:#FFFFFF; fill-opacity:1.0000; stroke:none;">
<circle cx="43.7025" cy="41.2912" r="0.5000" /> 
</g>
<g style="fill:#FFFFFF; fill-opacity:1.0000; stroke:none;">
<circle cx="43.7025" cy="43.8312" r="0.5000" /> 
</g>
<g style="fill:#FFFFFF; fill-opacity:1.0000; stroke:none;">
<circle cx="43.7025" cy="46.3712" r="0.5000" /> 
</g>
<g style="fill:#FFFFFF; fill-opacity:1.0000; stroke:none;">
<circle cx="43.7025" cy="48.9112" r="0.5000" /> 
</g>
<g style="fill:#FFFFFF; fill-opacity:1.0000; stroke:none;">
<circle cx="43.7025" cy="51.4512" r="0.5000" /> 
</g>
<g style="fill:#FFFFFF; fill-opacity:1.0000; stroke:none;">
<circle cx="43.7025" cy="53.9912" r="0.5000" /> 
</g>
<g style="fill:#FFFFFF; fill-opacity:1.0000; stroke:none;">
<circle cx="43.7025" cy="56.5312" r="0.5000" /> 
</g>
<g style="fill:#000000; fill-opacity:1.0000; stroke:none;">
<circle cx="11.9105" cy="50.0932" r="1.3500" /> 
</g> 
</svg>
