<?xml version="1.0" standalone="no"?>
 <!DOCTYPE svg PUBLIC "-//W3C//DTD SVG 1.1//EN" 
 "http://www.w3.org/Graphics/SVG/1.1/DTD/svg11.dtd"> 
<svg
  xmlns:svg="http://www.w3.org/2000/svg"
  xmlns="http://www.w3.org/2000/svg"
  xmlns:xlink="http://www.w3.org/1999/xlink"
  xmlns:inkscape="http://www.inkscape.org/namespaces/inkscape"
  version="1.1"
  width="62.0014mm" height="62.0014mm" viewBox="0.0000 0.0000 62.0014 62.0014">
<title>SVG Image created as cerebro_bot_mirror.svg date 2026-07-05T22:31:42 </title>
  <desc>Image generated by PCBNEW </desc>
<g style="fill:#000000; fill-opacity:1.0000;stroke:#000000; stroke-opacity:1.0000;
stroke-linecap:round; stroke-linejoin:round;"
 transform="translate(0 0) scale(1 1)">
<path style="fill:#000000; fill-opacity:1.0000; stroke:none;fill-rule:evenodd;"
d="M 10.5039,42.8462
10.4849,42.7506
10.4307,42.6695
10.3496,42.6153
10.2539,42.5962
9.1539,42.5962
9.0582,42.6153
8.9771,42.6695
8.9229,42.7506
8.9039,42.8462
8.9039,43.9462
8.9229,44.0419
8.9771,44.1230
9.0582,44.1772
9.1539,44.1962
10.2539,44.1962
10.3496,44.1772
10.4307,44.1230
10.4849,44.0419
10.5039,43.9462
Z" /> 
</g>
<g style="fill:#000000; fill-opacity:1.0000; stroke:none;">
<circle cx="5.9039" cy="43.3962" r="0.8000" /> 
<path style="fill:#000000; fill-opacity:1.0000; stroke:none;fill-rule:evenodd;"
d="M 58.0589,31.8012
57.9632,31.8203
57.8821,31.8745
57.8279,31.9556
57.8089,32.0512
57.8089,33.1512
57.8279,33.2469
57.8821,33.3280
57.9632,33.3822
58.0589,33.4012
59.1589,33.4012
59.2546,33.3822
59.3357,33.3280
59.3899,33.2469
59.4089,33.1512
59.4089,32.0512
59.3899,31.9556
59.3357,31.8745
59.2546,31.8203
59.1589,31.8012
Z" /> 
<circle cx="58.6089" cy="40.2212" r="0.8000" /> 
<circle cx="59.2439" cy="22.4412" r="0.8000" /> 
<circle cx="59.2439" cy="30.0612" r="0.8000" /> 
<circle cx="55.4339" cy="28.1562" r="1.0000" /> 
<circle cx="55.4339" cy="23.1562" r="1.0000" /> 
<path style="fill:#000000; fill-opacity:1.0000; stroke:none;fill-rule:evenodd;"
d="M 8.7089,16.0662
6.9089,16.0662
6.9089,17.8662
8.7089,17.8662
Z" /> 
<circle cx="7.8089" cy="25.3762" r="0.9000" /> 
<circle cx="55.4339" cy="39.5862" r="0.8000" /> 
<circle cx="55.4339" cy="31.9662" r="0.8000" /> 
<path style="fill:#000000; fill-opacity:1.0000; stroke:none;fill-rule:evenodd;"
d="M 57.6039,16.4612
55.8039,16.4612
55.8039,18.2612
57.6039,18.2612
Z" /> 
<circle cx="56.7039" cy="19.9012" r="0.9000" /> 
<path style="fill:#000000; fill-opacity:1.0000; stroke:none;fill-rule:evenodd;"
d="M 6.7539,30.2762
6.7539,28.5762
5.0539,28.5762
5.0539,30.2762
Z" /> 
<circle cx="3.3639" cy="29.4262" r="0.8500" /> 
<circle cx="5.9039" cy="31.9662" r="0.8500" /> 
<circle cx="3.3639" cy="31.9662" r="0.8500" /> 
<circle cx="5.9039" cy="34.5062" r="0.8500" /> 
<circle cx="3.3639" cy="34.5062" r="0.8500" /> 
<circle cx="3.3639" cy="37.0462" r="0.8500" /> 
<path style="fill:#000000; fill-opacity:1.0000; stroke:none;fill-rule:evenodd;"
d="M 52.4739,20.7512
52.4739,19.0512
50.7739,19.0512
50.7739,20.7512
Z" /> 
<circle cx="49.0839" cy="19.9012" r="0.8500" /> 
<circle cx="51.6239" cy="22.4412" r="0.8500" /> 
<circle cx="49.0839" cy="22.4412" r="0.8500" /> 
<circle cx="51.6239" cy="24.9812" r="0.8500" /> 
<circle cx="49.0839" cy="24.9812" r="0.8500" /> 
<circle cx="51.6239" cy="27.5212" r="0.8500" /> 
<circle cx="49.0839" cy="27.5212" r="0.8500" /> 
<circle cx="51.6239" cy="30.0612" r="0.8500" /> 
<circle cx="49.0839" cy="30.0612" r="0.8500" /> 
<circle cx="51.6239" cy="32.6012" r="0.8500" /> 
<circle cx="49.0839" cy="32.6012" r="0.8500" /> 
<circle cx="51.6239" cy="35.1412" r="0.8500" /> 
<circle cx="49.0839" cy="35.1412" r="0.8500" /> 
<circle cx="51.6239" cy="37.6812" r="0.8500" /> 
<circle cx="49.0839" cy="37.6812" r="0.8500" /> 
<circle cx="51.6239" cy="40.2212" r="0.8500" /> 
<circle cx="49.0839" cy="40.2212" r="0.8500" /> 
<circle cx="51.6239" cy="42.7612" r="0.8500" /> 
<circle cx="49.0839" cy="42.7612" r="0.8500" /> 
<path style="fill:#000000; fill-opacity:1.0000; stroke:none;fill-rule:evenodd;"
d="M 9.5489,35.3062
11.1489,35.3062
11.1489,33.7062
9.5489,33.7062
Z" /> 
<circle cx="10.3489" cy="31.9662" r="0.8000" /> 
<circle cx="10.3489" cy="37.0462" r="0.8000" /> 
<path style="fill:#000000; fill-opacity:1.0000; stroke:none;fill-rule:evenodd;"
d="M 44.5489,9.1212
44.5489,7.4212
42.8489,7.4212
42.8489,9.1212
Z" /> 
<circle cx="43.6989" cy="10.8112" r="0.8500" /> 
<circle cx="43.6989" cy="13.3512" r="0.8500" /> 
<circle cx="43.6989" cy="15.8912" r="0.8500" /> 
<circle cx="43.6989" cy="18.4312" r="0.8500" /> 
<circle cx="43.6989" cy="20.9712" r="0.8500" /> 
<circle cx="43.6989" cy="23.5112" r="0.8500" /> 
<circle cx="43.6989" cy="26.0512" r="0.8500" /> 
<circle cx="43.6989" cy="28.5912" r="0.8500" /> 
<circle cx="43.6989" cy="31.1312" r="0.8500" /> 
<circle cx="43.6989" cy="33.6712" r="0.8500" /> 
<circle cx="43.6989" cy="36.2112" r="0.8500" /> 
<circle cx="43.6989" cy="38.7512" r="0.8500" /> 
<circle cx="43.6989" cy="41.2912" r="0.8500" /> 
<circle cx="43.6989" cy="43.8312" r="0.8500" /> 
<circle cx="43.6989" cy="46.3712" r="0.8500" /> 
<circle cx="43.6989" cy="48.9112" r="0.8500" /> 
<circle cx="43.6989" cy="51.4512" r="0.8500" /> 
<circle cx="43.6989" cy="53.9912" r="0.8500" /> 
<circle cx="43.6989" cy="56.5312" r="0.8500" /> 
<circle cx="18.2989" cy="8.2712" r="0.8500" /> 
<circle cx="18.2989" cy="10.8112" r="0.8500" /> 
<circle cx="18.2989" cy="13.3512" r="0.8500" /> 
<circle cx="18.2989" cy="15.8912" r="0.8500" /> 
<circle cx="18.2989" cy="18.4312" r="0.8500" /> 
<circle cx="18.2989" cy="20.9712" r="0.8500" /> 
<circle cx="18.2989" cy="23.5112" r="0.8500" /> 
<circle cx="18.2989" cy="26.0512" r="0.8500" /> 
<circle cx="18.2989" cy="28.5912" r="0.8500" /> 
<circle cx="18.2989" cy="31.1312" r="0.8500" /> 
<circle cx="18.2989" cy="33.6712" r="0.8500" /> 
<circle cx="18.2989" cy="36.2112" r="0.8500" /> 
<circle cx="18.2989" cy="38.7512" r="0.8500" /> 
<circle cx="18.2989" cy="41.2912" r="0.8500" /> 
<circle cx="18.2989" cy="43.8312" r="0.8500" /> 
<circle cx="18.2989" cy="46.3712" r="0.8500" /> 
<circle cx="18.2989" cy="48.9112" r="0.8500" /> 
<circle cx="18.2989" cy="51.4512" r="0.8500" /> 
<circle cx="18.2989" cy="53.9912" r="0.8500" /> 
<circle cx="18.2989" cy="56.5312" r="0.8500" /> 
<circle cx="45.9089" cy="39.5862" r="0.3000" /> 
<circle cx="20.5089" cy="41.4912" r="0.3000" /> 
<circle cx="16.0639" cy="21.8062" r="0.3000" /> 
<circle cx="16.0639" cy="26.2512" r="0.3000" /> 
<circle cx="45.2739" cy="17.3612" r="0.3000" /> 
<circle cx="57.3389" cy="44.6662" r="0.3000" /> 
<circle cx="27.4939" cy="38.9512" r="0.3000" /> 
<circle cx="27.4939" cy="19.9012" r="0.3000" /> 
<circle cx="55.4339" cy="45.9362" r="0.3000" /> 
<circle cx="40.1939" cy="52.7829" r="0.3000" /> 
<circle cx="39.8539" cy="37.3862" r="0.3000" /> 
<circle cx="39.5589" cy="33.8712" r="0.3000" /> 
<circle cx="39.5589" cy="29.4262" r="0.3000" /> 
<circle cx="24.3189" cy="30.0612" r="0.3000" /> 
<circle cx="23.6839" cy="35.7762" r="0.3000" /> 
<circle cx="46.5439" cy="31.3312" r="0.3000" /> 
<circle cx="19.9789" cy="12.1762" r="0.3000" /> 
<circle cx="46.5439" cy="12.2812" r="0.3000" /> 
<circle cx="50.3539" cy="21.8062" r="0.3000" /> 
<circle cx="30.0339" cy="28.5912" r="0.3000" /> 
<circle cx="47.1789" cy="9.1062" r="0.3000" /> 
<circle cx="30.1389" cy="9.6362" r="0.3000" /> 
<circle cx="25.9064" cy="32.2837" r="0.3000" /> 
<circle cx="23.1539" cy="14.7162" r="0.3000" /> 
<circle cx="45.9089" cy="14.1862" r="0.3000" /> 
<circle cx="46.5439" cy="43.3962" r="0.3000" /> 
<circle cx="22.4139" cy="31.3312" r="0.3000" /> 
<circle cx="22.4139" cy="35.0362" r="0.3000" /> 
<circle cx="41.4639" cy="42.7612" r="0.3000" /> 
</g>
<g style="fill:none; 
stroke:#000000; stroke-width:0.2500; stroke-opacity:1; 
stroke-linecap:round; stroke-linejoin:round;">
<path d="M50.9889 8.4712
L43.8989 8.4712
" />
<path d="M5.9039 18.8712
L5.9039 29.4262
" />
<path d="M7.8089 16.9662
L5.9039 18.8712
" />
<path d="M43.8989 8.4712
L43.6989 8.2712
" />
<path d="M53.5289 11.0112
L50.9889 8.4712
" />
<path d="M9.0689 32.5912
L5.9039 29.4262
" />
<path d="M9.0689 32.5912
L9.0689 42.7612
" />
<path d="M9.0689 42.7612
L9.7039 43.3962
" />
<path d="M53.5289 26.2512
L53.5289 11.0112
" />
<path d="M55.4339 28.1562
L53.5289 26.2512
" />
<path d="M50.2589 33.9662
L50.2589 35.6279
" />
<path d="M48.5072 36.4112
L45.9089 39.0095
" />
<path d="M49.0839 22.4412
L49.0839 19.9012
" />
<path d="M45.9089 39.0095
L45.9089 39.5862
" />
<path d="M56.7039 17.3612
L55.4339 18.6312
" />
<path d="M55.4339 18.6312
L55.4339 23.1562
" />
<path d="M20.5089 41.4912
L20.5089 46.7012
" />
<path d="M49.4756 36.4112
L48.5072 36.4112
" />
<path d="M51.6239 32.6012
L50.2589 33.9662
" />
<path d="M16.0639 21.8062
L16.0639 26.2512
" />
<path d="M20.5089 46.7012
L18.2989 48.9112
" />
<path d="M50.2589 35.6279
L49.4756 36.4112
" />
<path d="M10.3489 27.9162
L7.8089 25.3762
" />
<path d="M46.2489 45.0062
L56.9989 45.0062
" />
<path d="M10.3489 31.9662
L10.3489 27.9162
" />
<path d="M45.2739 44.0312
L46.2489 45.0062
" />
<path d="M45.2739 17.3612
L45.2739 44.0312
" />
<path d="M56.9989 45.0062
L57.3389 44.6662
" />
<path d="M27.4939 19.9012
L27.4939 38.9512
" />
<path d="M58.1189 21.3162
L56.7039 19.9012
" />
<path d="M59.2439 30.0612
L58.1189 28.9362
" />
<path d="M58.1189 28.9362
L58.1189 21.3162
" />
<path d="M40.8289 47.2062
L40.8289 30.2592
" />
<path d="M53.8239 47.5462
L41.1689 47.5462
" />
<path d="M40.8289 30.2592
L42.4968 28.5912
" />
<path d="M55.4339 45.9362
L53.8239 47.5462
" />
<path d="M42.4968 28.5912
L43.6989 28.5912
" />
<path d="M41.1689 47.5462
L40.8289 47.2062
" />
<path d="M39.8539 51.1730
L39.8539 37.3862
" />
<path d="M40.1939 51.5129
L39.8539 51.1730
" />
<path d="M40.1939 52.7829
L40.1939 51.5129
" />
<path d="M39.5589 29.4262
L39.5589 33.8712
" />
<path d="M23.6839 30.6962
L23.6839 35.7762
" />
<path d="M24.3189 30.0612
L23.6839 30.6962
" />
<path d="M46.5439 31.3312
L46.5439 12.2812
" />
<path d="M17.1239 20.4845
L17.1239 32.4962
" />
<path d="M19.9789 12.1762
L20.5089 12.7062
" />
<path d="M18.0022 19.6062
L17.1239 20.4845
" />
<path d="M17.1239 32.4962
L18.2989 33.6712
" />
<path d="M20.5089 12.7062
L20.5089 17.8829
" />
<path d="M20.5089 17.8829
L18.7856 19.6062
" />
<path d="M18.7856 19.6062
L18.0022 19.6062
" />
<path d="M50.3539 28.7912
L50.3539 21.8062
" />
<path d="M49.0839 30.0612
L50.3539 28.7912
" />
<path d="M47.1789 30.6962
L49.0839 32.6012
" />
<path d="M30.1389 28.4862
L30.0339 28.5912
" />
<path d="M30.1389 9.6362
L30.1389 28.4862
" />
<path d="M47.1789 9.1062
L47.1789 30.6962
" />
<path d="M25.3889 10.8112
L18.2989 10.8112
" />
<path d="M25.9064 32.2837
L25.5889 31.9662
" />
<path d="M25.5889 11.0112
L25.3889 10.8112
" />
<path d="M25.5889 31.9662
L25.5889 11.0112
" />
<path d="M45.9089 14.1862
L45.9089 31.9662
" />
<path d="M45.9089 31.9662
L49.0839 35.1412
" />
<path d="M23.0489 21.3012
L18.2989 26.0512
" />
<path d="M23.1539 14.7162
L23.0489 14.8212
" />
<path d="M23.0489 14.8212
L23.0489 21.3012
" />
<path d="M51.6239 37.6812
L50.2589 39.0462
" />
<path d="M46.5439 41.0995
L46.5439 43.3962
" />
<path d="M48.5972 39.0462
L46.5439 41.0995
" />
<path d="M50.2589 39.0462
L48.5972 39.0462
" />
<path d="M22.4139 35.0362
L22.4139 31.3312
" />
<path d="M41.4639 31.3312
L43.4989 31.3312
" />
<path d="M41.4639 42.7612
L41.4639 31.3312
" />
<path d="M43.4989 31.3312
L43.6989 31.1312
" />
</g>
<g style="fill:none; 
stroke:#000000; stroke-width:0.0500; stroke-opacity:1; 
stroke-linecap:round; stroke-linejoin:round;">
<circle cx="30.9989" cy="31.0012" r="31.0000" /> 
</g>
<g style="fill:#FFFFFF; fill-opacity:1.0000; stroke:none;">
<circle cx="45.9089" cy="39.5862" r="0.1500" /> 
<circle cx="20.5089" cy="41.4912" r="0.1500" /> 
<circle cx="16.0639" cy="21.8062" r="0.1500" /> 
<circle cx="16.0639" cy="26.2512" r="0.1500" /> 
<circle cx="45.2739" cy="17.3612" r="0.1500" /> 
<circle cx="57.3389" cy="44.6662" r="0.1500" /> 
<circle cx="27.4939" cy="38.9512" r="0.1500" /> 
<circle cx="27.4939" cy="19.9012" r="0.1500" /> 
<circle cx="55.4339" cy="45.9362" r="0.1500" /> 
<circle cx="40.1939" cy="52.7829" r="0.1500" /> 
<circle cx="39.8539" cy="37.3862" r="0.1500" /> 
<circle cx="39.5589" cy="33.8712" r="0.1500" /> 
<circle cx="39.5589" cy="29.4262" r="0.1500" /> 
<circle cx="24.3189" cy="30.0612" r="0.1500" /> 
<circle cx="23.6839" cy="35.7762" r="0.1500" /> 
<circle cx="46.5439" cy="31.3312" r="0.1500" /> 
<circle cx="19.9789" cy="12.1762" r="0.1500" /> 
<circle cx="46.5439" cy="12.2812" r="0.1500" /> 
<circle cx="50.3539" cy="21.8062" r="0.1500" /> 
<circle cx="30.0339" cy="28.5912" r="0.1500" /> 
<circle cx="47.1789" cy="9.1062" r="0.1500" /> 
<circle cx="30.1389" cy="9.6362" r="0.1500" /> 
<circle cx="25.9064" cy="32.2837" r="0.1500" /> 
<circle cx="23.1539" cy="14.7162" r="0.1500" /> 
<circle cx="45.9089" cy="14.1862" r="0.1500" /> 
<circle cx="46.5439" cy="43.3962" r="0.1500" /> 
<circle cx="22.4139" cy="31.3312" r="0.1500" /> 
<circle cx="22.4139" cy="35.0362" r="0.1500" /> 
<circle cx="41.4639" cy="42.7612" r="0.1500" /> 
</g>
<g style="fill:#FFFFFF; fill-opacity:1.0000; stroke:none;">
<circle cx="9.7039" cy="43.3962" r="0.4000" /> 
</g>
<g style="fill:#FFFFFF; fill-opacity:1.0000; stroke:none;">
<circle cx="5.9039" cy="43.3962" r="0.4000" /> 
</g>
<g style="fill:#FFFFFF; fill-opacity:1.0000; stroke:none;">
<circle cx="58.6089" cy="32.6012" r="0.4000" /> 
</g>
<g style="fill:#FFFFFF; fill-opacity:1.0000; stroke:none;">
<circle cx="58.6089" cy="40.2212" r="0.4000" /> 
</g>
<g style="fill:#FFFFFF; fill-opacity:1.0000; stroke:none;">
<circle cx="59.2439" cy="22.4412" r="0.4000" /> 
</g>
<g style="fill:#FFFFFF; fill-opacity:1.0000; stroke:none;">
<circle cx="59.2439" cy="30.0612" r="0.4000" /> 
</g>
<g style="fill:#FFFFFF; fill-opacity:1.0000; stroke:none;">
<circle cx="55.4339" cy="28.1562" r="0.5000" /> 
</g>
<g style="fill:#FFFFFF; fill-opacity:1.0000; stroke:none;">
<circle cx="55.4339" cy="23.1562" r="0.5000" /> 
</g>
<g style="fill:#FFFFFF; fill-opacity:1.0000; stroke:none;">
<circle cx="7.8089" cy="16.9662" r="0.5000" /> 
</g>
<g style="fill:#FFFFFF; fill-opacity:1.0000; stroke:none;">
<circle cx="7.8089" cy="25.3762" r="0.5000" /> 
</g>
<g style="fill:#000000; fill-opacity:1.0000; stroke:none;">
<circle cx="11.9069" cy="50.0932" r="1.3500" /> 
</g>
<g style="fill:#FFFFFF; fill-opacity:1.0000; stroke:none;">
<circle cx="55.4339" cy="39.5862" r="0.4000" /> 
</g>
<g style="fill:#FFFFFF; fill-opacity:1.0000; stroke:none;">
<circle cx="55.4339" cy="31.9662" r="0.4000" /> 
</g>
<g style="fill:#FFFFFF; fill-opacity:1.0000; stroke:none;">
<circle cx="56.7039" cy="17.3612" r="0.4500" /> 
</g>
<g style="fill:#FFFFFF; fill-opacity:1.0000; stroke:none;">
<circle cx="56.7039" cy="19.9012" r="0.4500" /> 
</g>
<g style="fill:#FFFFFF; fill-opacity:1.0000; stroke:none;">
<circle cx="5.9039" cy="29.4262" r="0.5000" /> 
</g>
<g style="fill:#FFFFFF; fill-opacity:1.0000; stroke:none;">
<circle cx="3.3639" cy="29.4262" r="0.5000" /> 
</g>
<g style="fill:#FFFFFF; fill-opacity:1.0000; stroke:none;">
<circle cx="5.9039" cy="31.9662" r="0.5000" /> 
</g>
<g style="fill:#FFFFFF; fill-opacity:1.0000; stroke:none;">
<circle cx="3.3639" cy="31.9662" r="0.5000" /> 
</g>
<g style="fill:#FFFFFF; fill-opacity:1.0000; stroke:none;">
<circle cx="5.9039" cy="34.5062" r="0.5000" /> 
</g>
<g style="fill:#FFFFFF; fill-opacity:1.0000; stroke:none;">
<circle cx="3.3639" cy="34.5062" r="0.5000" /> 
</g>
<g style="fill:#FFFFFF; fill-opacity:1.0000; stroke:none;">
<circle cx="3.3639" cy="37.0462" r="0.5000" /> 
</g>
<g style="fill:#FFFFFF; fill-opacity:1.0000; stroke:none;">
<circle cx="51.6239" cy="19.9012" r="0.5000" /> 
</g>
<g style="fill:#FFFFFF; fill-opacity:1.0000; stroke:none;">
<circle cx="49.0839" cy="19.9012" r="0.5000" /> 
</g>
<g style="fill:#FFFFFF; fill-opacity:1.0000; stroke:none;">
<circle cx="51.6239" cy="22.4412" r="0.5000" /> 
</g>
<g style="fill:#FFFFFF; fill-opacity:1.0000; stroke:none;">
<circle cx="49.0839" cy="22.4412" r="0.5000" /> 
</g>
<g style="fill:#FFFFFF; fill-opacity:1.0000; stroke:none;">
<circle cx="51.6239" cy="24.9812" r="0.5000" /> 
</g>
<g style="fill:#FFFFFF; fill-opacity:1.0000; stroke:none;">
<circle cx="49.0839" cy="24.9812" r="0.5000" /> 
</g>
<g style="fill:#FFFFFF; fill-opacity:1.0000; stroke:none;">
<circle cx="51.6239" cy="27.5212" r="0.5000" /> 
</g>
<g style="fill:#FFFFFF; fill-opacity:1.0000; stroke:none;">
<circle cx="49.0839" cy="27.5212" r="0.5000" /> 
</g>
<g style="fill:#FFFFFF; fill-opacity:1.0000; stroke:none;">
<circle cx="51.6239" cy="30.0612" r="0.5000" /> 
</g>
<g style="fill:#FFFFFF; fill-opacity:1.0000; stroke:none;">
<circle cx="49.0839" cy="30.0612" r="0.5000" /> 
</g>
<g style="fill:#FFFFFF; fill-opacity:1.0000; stroke:none;">
<circle cx="51.6239" cy="32.6012" r="0.5000" /> 
</g>
<g style="fill:#FFFFFF; fill-opacity:1.0000; stroke:none;">
<circle cx="49.0839" cy="32.6012" r="0.5000" /> 
</g>
<g style="fill:#FFFFFF; fill-opacity:1.0000; stroke:none;">
<circle cx="51.6239" cy="35.1412" r="0.5000" /> 
</g>
<g style="fill:#FFFFFF; fill-opacity:1.0000; stroke:none;">
<circle cx="49.0839" cy="35.1412" r="0.5000" /> 
</g>
<g style="fill:#FFFFFF; fill-opacity:1.0000; stroke:none;">
<circle cx="51.6239" cy="37.6812" r="0.5000" /> 
</g>
<g style="fill:#FFFFFF; fill-opacity:1.0000; stroke:none;">
<circle cx="49.0839" cy="37.6812" r="0.5000" /> 
</g>
<g style="fill:#FFFFFF; fill-opacity:1.0000; stroke:none;">
<circle cx="51.6239" cy="40.2212" r="0.5000" /> 
</g>
<g style="fill:#FFFFFF; fill-opacity:1.0000; stroke:none;">
<circle cx="49.0839" cy="40.2212" r="0.5000" /> 
</g>
<g style="fill:#FFFFFF; fill-opacity:1.0000; stroke:none;">
<circle cx="51.6239" cy="42.7612" r="0.5000" /> 
</g>
<g style="fill:#FFFFFF; fill-opacity:1.0000; stroke:none;">
<circle cx="49.0839" cy="42.7612" r="0.5000" /> 
</g>
<g style="fill:#000000; fill-opacity:1.0000; stroke:none;">
<circle cx="11.9069" cy="11.9092" r="1.3500" /> 
<circle cx="50.0909" cy="11.9092" r="1.3500" /> 
</g>
<g style="fill:#FFFFFF; fill-opacity:1.0000; stroke:none;">
<circle cx="10.3489" cy="34.5062" r="0.4000" /> 
</g>
<g style="fill:#FFFFFF; fill-opacity:1.0000; stroke:none;">
<circle cx="10.3489" cy="31.9662" r="0.4000" /> 
</g>
<g style="fill:#FFFFFF; fill-opacity:1.0000; stroke:none;">
<circle cx="10.3489" cy="37.0462" r="0.4000" /> 
</g>
<g style="fill:#FFFFFF; fill-opacity:1.0000; stroke:none;">
<circle cx="43.6989" cy="8.2712" r="0.5000" /> 
</g>
<g style="fill:#FFFFFF; fill-opacity:1.0000; stroke:none;">
<circle cx="43.6989" cy="10.8112" r="0.5000" /> 
</g>
<g style="fill:#FFFFFF; fill-opacity:1.0000; stroke:none;">
<circle cx="43.6989" cy="13.3512" r="0.5000" /> 
</g>
<g style="fill:#FFFFFF; fill-opacity:1.0000; stroke:none;">
<circle cx="43.6989" cy="15.8912" r="0.5000" /> 
</g>
<g style="fill:#FFFFFF; fill-opacity:1.0000; stroke:none;">
<circle cx="43.6989" cy="18.4312" r="0.5000" /> 
</g>
<g style="fill:#FFFFFF; fill-opacity:1.0000; stroke:none;">
<circle cx="43.6989" cy="20.9712" r="0.5000" /> 
</g>
<g style="fill:#FFFFFF; fill-opacity:1.0000; stroke:none;">
<circle cx="43.6989" cy="23.5112" r="0.5000" /> 
</g>
<g style="fill:#FFFFFF; fill-opacity:1.0000; stroke:none;">
<circle cx="43.6989" cy="26.0512" r="0.5000" /> 
</g>
<g style="fill:#FFFFFF; fill-opacity:1.0000; stroke:none;">
<circle cx="43.6989" cy="28.5912" r="0.5000" /> 
</g>
<g style="fill:#FFFFFF; fill-opacity:1.0000; stroke:none;">
<circle cx="43.6989" cy="31.1312" r="0.5000" /> 
</g>
<g style="fill:#FFFFFF; fill-opacity:1.0000; stroke:none;">
<circle cx="43.6989" cy="33.6712" r="0.5000" /> 
</g>
<g style="fill:#FFFFFF; fill-opacity:1.0000; stroke:none;">
<circle cx="43.6989" cy="36.2112" r="0.5000" /> 
</g>
<g style="fill:#FFFFFF; fill-opacity:1.0000; stroke:none;">
<circle cx="43.6989" cy="38.7512" r="0.5000" /> 
</g>
<g style="fill:#FFFFFF; fill-opacity:1.0000; stroke:none;">
<circle cx="43.6989" cy="41.2912" r="0.5000" /> 
</g>
<g style="fill:#FFFFFF; fill-opacity:1.0000; stroke:none;">
<circle cx="43.6989" cy="43.8312" r="0.5000" /> 
</g>
<g style="fill:#FFFFFF; fill-opacity:1.0000; stroke:none;">
<circle cx="43.6989" cy="46.3712" r="0.5000" /> 
</g>
<g style="fill:#FFFFFF; fill-opacity:1.0000; stroke:none;">
<circle cx="43.6989" cy="48.9112" r="0.5000" /> 
</g>
<g style="fill:#FFFFFF; fill-opacity:1.0000; stroke:none;">
<circle cx="43.6989" cy="51.4512" r="0.5000" /> 
</g>
<g style="fill:#FFFFFF; fill-opacity:1.0000; stroke:none;">
<circle cx="43.6989" cy="53.9912" r="0.5000" /> 
</g>
<g style="fill:#FFFFFF; fill-opacity:1.0000; stroke:none;">
<circle cx="43.6989" cy="56.5312" r="0.5000" /> 
</g>
<g style="fill:#FFFFFF; fill-opacity:1.0000; stroke:none;">
<circle cx="18.2989" cy="8.2712" r="0.5000" /> 
</g>
<g style="fill:#FFFFFF; fill-opacity:1.0000; stroke:none;">
<circle cx="18.2989" cy="10.8112" r="0.5000" /> 
</g>
<g style="fill:#FFFFFF; fill-opacity:1.0000; stroke:none;">
<circle cx="18.2989" cy="13.3512" r="0.5000" /> 
</g>
<g style="fill:#FFFFFF; fill-opacity:1.0000; stroke:none;">
<circle cx="18.2989" cy="15.8912" r="0.5000" /> 
</g>
<g style="fill:#FFFFFF; fill-opacity:1.0000; stroke:none;">
<circle cx="18.2989" cy="18.4312" r="0.5000" /> 
</g>
<g style="fill:#FFFFFF; fill-opacity:1.0000; stroke:none;">
<circle cx="18.2989" cy="20.9712" r="0.5000" /> 
</g>
<g style="fill:#FFFFFF; fill-opacity:1.0000; stroke:none;">
<circle cx="18.2989" cy="23.5112" r="0.5000" /> 
</g>
<g style="fill:#FFFFFF; fill-opacity:1.0000; stroke:none;">
<circle cx="18.2989" cy="26.0512" r="0.5000" /> 
</g>
<g style="fill:#FFFFFF; fill-opacity:1.0000; stroke:none;">
<circle cx="18.2989" cy="28.5912" r="0.5000" /> 
</g>
<g style="fill:#FFFFFF; fill-opacity:1.0000; stroke:none;">
<circle cx="18.2989" cy="31.1312" r="0.5000" /> 
</g>
<g style="fill:#FFFFFF; fill-opacity:1.0000; stroke:none;">
<circle cx="18.2989" cy="33.6712" r="0.5000" /> 
</g>
<g style="fill:#FFFFFF; fill-opacity:1.0000; stroke:none;">
<circle cx="18.2989" cy="36.2112" r="0.5000" /> 
</g>
<g style="fill:#FFFFFF; fill-opacity:1.0000; stroke:none;">
<circle cx="18.2989" cy="38.7512" r="0.5000" /> 
</g>
<g style="fill:#FFFFFF; fill-opacity:1.0000; stroke:none;">
<circle cx="18.2989" cy="41.2912" r="0.5000" /> 
</g>
<g style="fill:#FFFFFF; fill-opacity:1.0000; stroke:none;">
<circle cx="18.2989" cy="43.8312" r="0.5000" /> 
</g>
<g style="fill:#FFFFFF; fill-opacity:1.0000; stroke:none;">
<circle cx="18.2989" cy="46.3712" r="0.5000" /> 
</g>
<g style="fill:#FFFFFF; fill-opacity:1.0000; stroke:none;">
<circle cx="18.2989" cy="48.9112" r="0.5000" /> 
</g>
<g style="fill:#FFFFFF; fill-opacity:1.0000; stroke:none;">
<circle cx="18.2989" cy="51.4512" r="0.5000" /> 
</g>
<g style="fill:#FFFFFF; fill-opacity:1.0000; stroke:none;">
<circle cx="18.2989" cy="53.9912" r="0.5000" /> 
</g>
<g style="fill:#FFFFFF; fill-opacity:1.0000; stroke:none;">
<circle cx="18.2989" cy="56.5312" r="0.5000" /> 
</g>
<g style="fill:#000000; fill-opacity:1.0000; stroke:none;">
<circle cx="50.0909" cy="50.0932" r="1.3500" /> 
</g> 
</svg>
