<?xml version="1.0" standalone="no"?>
 <!DOCTYPE svg PUBLIC "-//W3C//DTD SVG 1.1//EN" 
 "http://www.w3.org/Graphics/SVG/1.1/DTD/svg11.dtd"> 
<svg
  xmlns:svg="http://www.w3.org/2000/svg"
  xmlns="http://www.w3.org/2000/svg"
  xmlns:xlink="http://www.w3.org/1999/xlink"
  xmlns:inkscape="http://www.inkscape.org/namespaces/inkscape"
  version="1.1"
  width="62.0014mm" height="62.0014mm" viewBox="0.0000 0.0000 62.0014 62.0014">
<title>SVG Image created as energia_bot_mirror.svg date 2026-07-05T22:31:44 </title>
  <desc>Image generated by PCBNEW </desc>
<g style="fill:#000000; fill-opacity:1.0000;stroke:#000000; stroke-opacity:1.0000;
stroke-linecap:round; stroke-linejoin:round;"
 transform="translate(0 0) scale(1 1)">
<path style="fill:#000000; fill-opacity:1.0000; stroke:none;fill-rule:evenodd;"
d="M 8.5989,21.2562
8.5799,21.1606
8.5257,21.0795
8.4446,21.0253
8.3489,21.0062
7.2489,21.0062
7.1532,21.0253
7.0721,21.0795
7.0179,21.1606
6.9989,21.2562
6.9989,22.3562
7.0179,22.4519
7.0721,22.5330
7.1532,22.5872
7.2489,22.6062
8.3489,22.6062
8.4446,22.5872
8.5257,22.5330
8.5799,22.4519
8.5989,22.3562
Z" /> 
</g>
<g style="fill:#000000; fill-opacity:1.0000; stroke:none;">
<circle cx="3.9989" cy="21.8062" r="0.8000" /> 
<circle cx="57.3389" cy="19.9012" r="0.8000" /> 
<circle cx="49.7189" cy="19.9012" r="0.8000" /> 
<path style="fill:#000000; fill-opacity:1.0000; stroke:none;fill-rule:evenodd;"
d="M 22.0439,26.5162
22.0439,24.7162
20.2439,24.7162
20.2439,26.5162
Z" /> 
<circle cx="18.6039" cy="25.6162" r="0.9000" /> 
<path style="fill:#000000; fill-opacity:1.0000; stroke:none;fill-rule:evenodd;"
d="M 20.6339,41.5762
20.6149,41.4806
20.5607,41.3995
20.4796,41.3453
20.3839,41.3262
19.2839,41.3262
19.1882,41.3453
19.1071,41.3995
19.0529,41.4806
19.0339,41.5762
19.0339,42.6762
19.0529,42.7719
19.1071,42.8530
19.1882,42.9072
19.2839,42.9262
20.3839,42.9262
20.4796,42.9072
20.5607,42.8530
20.6149,42.7719
20.6339,42.6762
Z" /> 
<circle cx="17.3339" cy="42.1262" r="0.8000" /> 
<path style="fill:#000000; fill-opacity:1.0000; stroke:none;fill-rule:evenodd;"
d="M 44.7689,6.7662
44.7689,4.9662
42.9689,4.9662
42.9689,6.7662
Z" /> 
<circle cx="43.8689" cy="19.9662" r="0.9000" /> 
<circle cx="17.4689" cy="5.8662" r="0.9000" /> 
<circle cx="17.4689" cy="19.9662" r="0.9000" /> 
<path style="fill:#000000; fill-opacity:1.0000; stroke:none;fill-rule:evenodd;"
d="M 22.5689,51.7362
22.5499,51.6406
22.4957,51.5595
22.4146,51.5053
22.3189,51.4862
21.2189,51.4862
21.1232,51.5053
21.0421,51.5595
20.9879,51.6406
20.9689,51.7362
20.9689,52.8362
20.9879,52.9319
21.0421,53.0130
21.1232,53.0672
21.2189,53.0862
22.3189,53.0862
22.4146,53.0672
22.4957,53.0130
22.5499,52.9319
22.5689,52.8362
Z" /> 
<circle cx="17.9689" cy="52.2862" r="0.8000" /> 
<path style="fill:#000000; fill-opacity:1.0000; stroke:none;fill-rule:evenodd;"
d="M 13.7389,29.0062
13.7389,27.3062
12.0389,27.3062
12.0389,29.0062
Z" /> 
<circle cx="10.3489" cy="28.1562" r="0.8500" /> 
<circle cx="12.8889" cy="30.6962" r="0.8500" /> 
<circle cx="10.3489" cy="30.6962" r="0.8500" /> 
<circle cx="12.8889" cy="33.2362" r="0.8500" /> 
<circle cx="10.3489" cy="33.2362" r="0.8500" /> 
<circle cx="10.3489" cy="35.7762" r="0.8500" /> 
<path style="fill:#000000; fill-opacity:1.0000; stroke:none;fill-rule:evenodd;"
d="M 33.7089,23.4462
33.7089,25.2462
35.5089,25.2462
35.5089,23.4462
Z" /> 
<circle cx="37.1489" cy="24.3462" r="0.9000" /> 
<circle cx="49.7189" cy="24.3462" r="0.9000" /> 
<circle cx="52.2589" cy="24.3462" r="0.9000" /> 
<circle cx="34.6089" cy="44.8262" r="0.9000" /> 
<circle cx="37.1489" cy="44.8262" r="0.9000" /> 
<circle cx="49.7189" cy="44.8262" r="0.9000" /> 
<circle cx="52.2589" cy="44.8262" r="0.9000" /> 
<circle cx="25.0089" cy="29.4262" r="0.9000" /> 
<circle cx="25.0089" cy="26.8862" r="0.9000" /> 
<circle cx="25.0089" cy="24.3462" r="0.9000" /> 
<path style="fill:#000000; fill-opacity:1.0000; stroke:none;fill-rule:evenodd;"
d="M 37.9941,53.2413
37.9751,53.1456
37.9209,53.0645
37.8398,53.0103
37.7441,52.9913
35.8441,52.9912
35.7484,53.0103
35.6673,53.0645
35.6131,53.1456
35.5941,53.2413
35.5941,55.1412
35.6131,55.2369
35.6673,55.3180
35.7484,55.3722
35.8441,55.3912
37.7441,55.3912
37.8398,55.3722
37.9209,55.3180
37.9751,55.2369
37.9941,55.1412
Z" /> 
<circle cx="31.7941" cy="54.1912" r="1.2000" /> 
<circle cx="21.1439" cy="35.7762" r="0.3000" /> 
</g>
<g style="fill:none; 
stroke:#000000; stroke-width:0.2500; stroke-opacity:1; 
stroke-linecap:round; stroke-linejoin:round;">
<path d="M13.5239 28.1562
L12.8889 28.1562
" />
<path d="M21.1439 35.7762
L13.5239 28.1562
" />
<path d="M31.7941 47.6410
L31.7941 54.1912
" />
<path d="M11.6189 26.8862
L10.3489 28.1562
" />
<path d="M10.3489 33.2362
L10.3489 35.7762
" />
<path d="M17.9689 51.0162
L17.3339 50.3812
" />
<path d="M21.1439 25.6162
L21.1439 23.6412
" />
<path d="M34.6089 44.8262
L31.7941 47.6410
" />
<path d="M11.6189 21.0111
L11.6189 26.8862
" />
<path d="M23.7389 25.6162
L25.0089 26.8862
" />
<path d="M19.8739 54.1912
L17.9689 52.2862
" />
<path d="M17.3339 42.1262
L10.9839 35.7762
" />
<path d="M25.0089 26.8862
L35.1689 16.7262
" />
<path d="M21.1439 25.6162
L23.7389 25.6162
" />
<path d="M49.7189 44.8262
L37.1489 44.8262
" />
<path d="M10.3489 28.1562
L3.9989 21.8062
" />
<path d="M17.3339 50.3812
L17.3339 42.1262
" />
<path d="M10.9839 35.7762
L10.3489 35.7762
" />
<path d="M37.1489 44.8262
L34.6089 44.8262
" />
<path d="M10.3489 30.6962
L10.3489 33.2362
" />
<path d="M11.6189 21.0111
L12.6638 19.9662
" />
<path d="M21.1439 23.6412
L17.4689 19.9662
" />
<path d="M10.3489 28.1562
L10.3489 30.6962
" />
<path d="M35.1689 16.7262
L40.6289 16.7262
" />
<path d="M17.9689 52.2862
L17.9689 51.0162
" />
<path d="M40.6289 16.7262
L43.8689 19.9662
" />
<path d="M52.2589 44.8262
L49.7189 44.8262
" />
<path d="M31.7941 54.1912
L19.8739 54.1912
" />
<path d="M12.6638 19.9662
L17.4689 19.9662
" />
</g>
<g style="fill:none; 
stroke:#000000; stroke-width:0.1000; stroke-opacity:1; 
stroke-linecap:round; stroke-linejoin:round;">
<circle cx="30.9989" cy="31.0012" r="31.0000" /> 
</g>
<g style="fill:#FFFFFF; fill-opacity:1.0000; stroke:none;">
<circle cx="21.1439" cy="35.7762" r="0.1500" /> 
</g>
<g style="fill:#FFFFFF; fill-opacity:1.0000; stroke:none;">
<circle cx="7.7989" cy="21.8062" r="0.4000" /> 
</g>
<g style="fill:#FFFFFF; fill-opacity:1.0000; stroke:none;">
<circle cx="3.9989" cy="21.8062" r="0.4000" /> 
</g>
<g style="fill:#000000; fill-opacity:1.0000; stroke:none;">
<circle cx="50.0909" cy="50.0932" r="1.3500" /> 
</g>
<g style="fill:#FFFFFF; fill-opacity:1.0000; stroke:none;">
<circle cx="57.3389" cy="19.9012" r="0.4000" /> 
</g>
<g style="fill:#FFFFFF; fill-opacity:1.0000; stroke:none;">
<circle cx="49.7189" cy="19.9012" r="0.4000" /> 
</g>
<g style="fill:#FFFFFF; fill-opacity:1.0000; stroke:none;">
<circle cx="21.1439" cy="25.6162" r="0.4500" /> 
</g>
<g style="fill:#FFFFFF; fill-opacity:1.0000; stroke:none;">
<circle cx="18.6039" cy="25.6162" r="0.4500" /> 
</g>
<g style="fill:#FFFFFF; fill-opacity:1.0000; stroke:none;">
<circle cx="19.8339" cy="42.1262" r="0.4000" /> 
</g>
<g style="fill:#FFFFFF; fill-opacity:1.0000; stroke:none;">
<circle cx="17.3339" cy="42.1262" r="0.4000" /> 
</g>
<g style="fill:#000000; fill-opacity:1.0000; stroke:none;">
<circle cx="50.0909" cy="11.9092" r="1.3500" /> 
</g>
<g style="fill:#FFFFFF; fill-opacity:1.0000; stroke:none;">
<circle cx="43.8689" cy="5.8662" r="0.5000" /> 
</g>
<g style="fill:#FFFFFF; fill-opacity:1.0000; stroke:none;">
<circle cx="43.8689" cy="19.9662" r="0.5000" /> 
</g>
<g style="fill:#FFFFFF; fill-opacity:1.0000; stroke:none;">
<circle cx="17.4689" cy="5.8662" r="0.5000" /> 
</g>
<g style="fill:#FFFFFF; fill-opacity:1.0000; stroke:none;">
<circle cx="17.4689" cy="19.9662" r="0.5000" /> 
</g>
<g style="fill:#000000; fill-opacity:1.0000; stroke:none;">
<circle cx="11.9069" cy="11.9092" r="1.3500" /> 
</g>
<g style="fill:#FFFFFF; fill-opacity:1.0000; stroke:none;">
<circle cx="21.7689" cy="52.2862" r="0.4000" /> 
</g>
<g style="fill:#FFFFFF; fill-opacity:1.0000; stroke:none;">
<circle cx="17.9689" cy="52.2862" r="0.4000" /> 
</g>
<g style="fill:#FFFFFF; fill-opacity:1.0000; stroke:none;">
<circle cx="12.8889" cy="28.1562" r="0.5000" /> 
</g>
<g style="fill:#FFFFFF; fill-opacity:1.0000; stroke:none;">
<circle cx="10.3489" cy="28.1562" r="0.5000" /> 
</g>
<g style="fill:#FFFFFF; fill-opacity:1.0000; stroke:none;">
<circle cx="12.8889" cy="30.6962" r="0.5000" /> 
</g>
<g style="fill:#FFFFFF; fill-opacity:1.0000; stroke:none;">
<circle cx="10.3489" cy="30.6962" r="0.5000" /> 
</g>
<g style="fill:#FFFFFF; fill-opacity:1.0000; stroke:none;">
<circle cx="12.8889" cy="33.2362" r="0.5000" /> 
</g>
<g style="fill:#FFFFFF; fill-opacity:1.0000; stroke:none;">
<circle cx="10.3489" cy="33.2362" r="0.5000" /> 
</g>
<g style="fill:#FFFFFF; fill-opacity:1.0000; stroke:none;">
<circle cx="10.3489" cy="35.7762" r="0.5000" /> 
</g>
<g style="fill:#FFFFFF; fill-opacity:1.0000; stroke:none;">
<circle cx="34.6089" cy="24.3462" r="0.5000" /> 
</g>
<g style="fill:#FFFFFF; fill-opacity:1.0000; stroke:none;">
<circle cx="37.1489" cy="24.3462" r="0.5000" /> 
</g>
<g style="fill:#FFFFFF; fill-opacity:1.0000; stroke:none;">
<circle cx="49.7189" cy="24.3462" r="0.5000" /> 
</g>
<g style="fill:#FFFFFF; fill-opacity:1.0000; stroke:none;">
<circle cx="52.2589" cy="24.3462" r="0.5000" /> 
</g>
<g style="fill:#FFFFFF; fill-opacity:1.0000; stroke:none;">
<circle cx="34.6089" cy="44.8262" r="0.5000" /> 
</g>
<g style="fill:#FFFFFF; fill-opacity:1.0000; stroke:none;">
<circle cx="37.1489" cy="44.8262" r="0.5000" /> 
</g>
<g style="fill:#FFFFFF; fill-opacity:1.0000; stroke:none;">
<circle cx="49.7189" cy="44.8262" r="0.5000" /> 
</g>
<g style="fill:#FFFFFF; fill-opacity:1.0000; stroke:none;">
<circle cx="52.2589" cy="44.8262" r="0.5000" /> 
</g>
<g style="fill:#FFFFFF; fill-opacity:1.0000; stroke:none;">
<circle cx="25.0089" cy="29.4262" r="0.5000" /> 
</g>
<g style="fill:#FFFFFF; fill-opacity:1.0000; stroke:none;">
<circle cx="25.0089" cy="26.8862" r="0.5000" /> 
</g>
<g style="fill:#FFFFFF; fill-opacity:1.0000; stroke:none;">
<circle cx="25.0089" cy="24.3462" r="0.5000" /> 
</g>
<g style="fill:#000000; fill-opacity:1.0000; stroke:none;">
<circle cx="11.9069" cy="50.0932" r="1.3500" /> 
</g>
<g style="fill:#FFFFFF; fill-opacity:1.0000; stroke:none;">
<circle cx="36.7941" cy="54.1912" r="0.6000" /> 
</g>
<g style="fill:#FFFFFF; fill-opacity:1.0000; stroke:none;">
<circle cx="31.7941" cy="54.1912" r="0.6000" /> 
</g> 
</svg>
