<?xml version="1.0" standalone="no"?>
 <!DOCTYPE svg PUBLIC "-//W3C//DTD SVG 1.1//EN" 
 "http://www.w3.org/Graphics/SVG/1.1/DTD/svg11.dtd"> 
<svg
  xmlns:svg="http://www.w3.org/2000/svg"
  xmlns="http://www.w3.org/2000/svg"
  xmlns:xlink="http://www.w3.org/1999/xlink"
  xmlns:inkscape="http://www.inkscape.org/namespaces/inkscape"
  version="1.1"
  width="62.0014mm" height="62.0014mm" viewBox="0.0000 0.0000 62.0014 62.0014">
<title>SVG Image created as energia_top.svg date 2026-07-05T22:31:44 </title>
  <desc>Image generated by PCBNEW </desc>
<g style="fill:#000000; fill-opacity:1.0000;stroke:#000000; stroke-opacity:1.0000;
stroke-linecap:round; stroke-linejoin:round;"
 transform="translate(0 0) scale(1 1)">
<path style="fill:#000000; fill-opacity:1.0000; stroke:none;fill-rule:evenodd;"
d="M 53.4025,21.2562
53.4215,21.1606
53.4757,21.0795
53.5568,21.0253
53.6525,21.0062
54.7525,21.0062
54.8482,21.0253
54.9293,21.0795
54.9835,21.1606
55.0025,21.2562
55.0025,22.3562
54.9835,22.4519
54.9293,22.5330
54.8482,22.5872
54.7525,22.6062
53.6525,22.6062
53.5568,22.5872
53.4757,22.5330
53.4215,22.4519
53.4025,22.3562
Z" /> 
</g>
<g style="fill:#000000; fill-opacity:1.0000; stroke:none;">
<circle cx="58.0025" cy="21.8062" r="0.8000" /> 
<circle cx="4.6625" cy="19.9012" r="0.8000" /> 
<circle cx="12.2825" cy="19.9012" r="0.8000" /> 
<path style="fill:#000000; fill-opacity:1.0000; stroke:none;fill-rule:evenodd;"
d="M 39.9575,26.5162
39.9575,24.7162
41.7575,24.7162
41.7575,26.5162
Z" /> 
<circle cx="43.3975" cy="25.6162" r="0.9000" /> 
<path style="fill:#000000; fill-opacity:1.0000; stroke:none;fill-rule:evenodd;"
d="M 41.3675,41.5762
41.3865,41.4806
41.4407,41.3995
41.5218,41.3453
41.6175,41.3262
42.7175,41.3262
42.8132,41.3453
42.8943,41.3995
42.9485,41.4806
42.9675,41.5762
42.9675,42.6762
42.9485,42.7719
42.8943,42.8530
42.8132,42.9072
42.7175,42.9262
41.6175,42.9262
41.5218,42.9072
41.4407,42.8530
41.3865,42.7719
41.3675,42.6762
Z" /> 
<circle cx="44.6675" cy="42.1262" r="0.8000" /> 
<path style="fill:#000000; fill-opacity:1.0000; stroke:none;fill-rule:evenodd;"
d="M 17.2325,6.7662
17.2325,4.9662
19.0325,4.9662
19.0325,6.7662
Z" /> 
<circle cx="18.1325" cy="19.9662" r="0.9000" /> 
<circle cx="44.5325" cy="5.8662" r="0.9000" /> 
<circle cx="44.5325" cy="19.9662" r="0.9000" /> 
<path style="fill:#000000; fill-opacity:1.0000; stroke:none;fill-rule:evenodd;"
d="M 39.4325,51.7362
39.4515,51.6406
39.5057,51.5595
39.5868,51.5053
39.6825,51.4862
40.7825,51.4862
40.8782,51.5053
40.9593,51.5595
41.0135,51.6406
41.0325,51.7362
41.0325,52.8362
41.0135,52.9319
40.9593,53.0130
40.8782,53.0672
40.7825,53.0862
39.6825,53.0862
39.5868,53.0672
39.5057,53.0130
39.4515,52.9319
39.4325,52.8362
Z" /> 
<circle cx="44.0325" cy="52.2862" r="0.8000" /> 
<path style="fill:#000000; fill-opacity:1.0000; stroke:none;fill-rule:evenodd;"
d="M 48.2625,29.0062
48.2625,27.3062
49.9625,27.3062
49.9625,29.0062
Z" /> 
<circle cx="51.6525" cy="28.1562" r="0.8500" /> 
<circle cx="49.1125" cy="30.6962" r="0.8500" /> 
<circle cx="51.6525" cy="30.6962" r="0.8500" /> 
<circle cx="49.1125" cy="33.2362" r="0.8500" /> 
<circle cx="51.6525" cy="33.2362" r="0.8500" /> 
<circle cx="51.6525" cy="35.7762" r="0.8500" /> 
<path style="fill:#000000; fill-opacity:1.0000; stroke:none;fill-rule:evenodd;"
d="M 28.2925,23.4462
28.2925,25.2462
26.4925,25.2462
26.4925,23.4462
Z" /> 
<circle cx="24.8525" cy="24.3462" r="0.9000" /> 
<circle cx="12.2825" cy="24.3462" r="0.9000" /> 
<circle cx="9.7425" cy="24.3462" r="0.9000" /> 
<circle cx="27.3925" cy="44.8262" r="0.9000" /> 
<circle cx="24.8525" cy="44.8262" r="0.9000" /> 
<circle cx="12.2825" cy="44.8262" r="0.9000" /> 
<circle cx="9.7425" cy="44.8262" r="0.9000" /> 
<circle cx="36.9925" cy="29.4262" r="0.9000" /> 
<circle cx="36.9925" cy="26.8862" r="0.9000" /> 
<circle cx="36.9925" cy="24.3462" r="0.9000" /> 
<path style="fill:#000000; fill-opacity:1.0000; stroke:none;fill-rule:evenodd;"
d="M 24.0073,53.2413
24.0263,53.1456
24.0805,53.0645
24.1616,53.0103
24.2573,52.9913
26.1573,52.9912
26.2530,53.0103
26.3341,53.0645
26.3883,53.1456
26.4073,53.2413
26.4073,55.1412
26.3883,55.2369
26.3341,55.3180
26.2530,55.3722
26.1573,55.3912
24.2573,55.3912
24.1616,55.3722
24.0805,55.3180
24.0263,55.2369
24.0073,55.1412
Z" /> 
<circle cx="30.2073" cy="54.1912" r="1.2000" /> 
<circle cx="40.8575" cy="35.7762" r="0.3000" /> 
</g>
<g style="fill:none; 
stroke:#000000; stroke-width:0.2500; stroke-opacity:1; 
stroke-linecap:round; stroke-linejoin:round;">
<path d="M54.2025 23.0662
L49.1125 28.1562
" />
<path d="M9.1075 24.3462
L9.7425 24.3462
" />
<path d="M12.2825 24.3462
L12.2825 35.7762
" />
<path d="M9.7425 24.3462
L12.2825 24.3462
" />
<path d="M12.2825 35.7762
L40.8575 35.7762
" />
<path d="M4.6625 19.9012
L9.1075 24.3462
" />
<path d="M54.2025 21.8062
L54.2025 23.0662
" />
<path d="M43.3975 25.6162
L36.5975 32.4162
" />
<path d="M24.7975 32.4162
L12.2825 19.9012
" />
<path d="M36.5975 32.4162
L24.7975 32.4162
" />
<path d="M27.3925 24.3462
L27.3925 31.8362
" />
<path d="M27.5225 31.9662
L34.4525 31.9662
" />
<path d="M42.1675 42.1262
L42.1675 40.1812
" />
<path d="M47.2075 31.3312
L49.1125 33.2362
" />
<path d="M27.3925 31.8362
L27.5225 31.9662
" />
<path d="M24.8525 12.5862
L18.1325 5.8662
" />
<path d="M24.8525 24.3462
L27.3925 24.3462
" />
<path d="M27.5225 14.8212
L43.3975 14.8212
" />
<path d="M27.3925 24.3462
L27.3925 14.9512
" />
<path d="M34.4525 31.9662
L36.9925 29.4262
" />
<path d="M43.3975 14.8212
L47.2075 18.6312
" />
<path d="M27.3925 14.9512
L27.5225 14.8212
" />
<path d="M24.8525 24.3462
L24.8525 12.5862
" />
<path d="M40.2325 52.2862
L40.2325 44.0612
" />
<path d="M47.2075 18.6312
L47.2075 31.3312
" />
<path d="M40.2325 44.0612
L42.1675 42.1262
" />
<path d="M42.1675 40.1812
L49.1125 33.2362
" />
<path d="M25.2073 54.1912
L26.7323 55.7162
" />
<path d="M25.2073 54.1912
L25.6175 54.1912
" />
<path d="M44.5325 14.6862
L44.5325 5.8662
" />
<path d="M47.6575 29.2412
L47.6575 17.8112
" />
<path d="M26.7323 55.7162
L38.7226 55.7162
" />
<path d="M50.2875 31.8712
L49.1125 30.6962
" />
<path d="M38.7226 55.7162
L50.2875 44.1513
" />
<path d="M49.1125 30.6962
L47.6575 29.2412
" />
<path d="M47.6575 17.8112
L44.5325 14.6862
" />
<path d="M50.2875 44.1513
L50.2875 31.8712
" />
</g>
<g style="fill:none; 
stroke:#000000; stroke-width:0.1000; stroke-opacity:1; 
stroke-linecap:round; stroke-linejoin:round;">
<circle cx="31.0025" cy="31.0012" r="31.0000" /> 
</g>
<g style="fill:#FFFFFF; fill-opacity:1.0000; stroke:none;">
<circle cx="40.8575" cy="35.7762" r="0.1500" /> 
</g>
<g style="fill:#FFFFFF; fill-opacity:1.0000; stroke:none;">
<circle cx="54.2025" cy="21.8062" r="0.4000" /> 
</g>
<g style="fill:#FFFFFF; fill-opacity:1.0000; stroke:none;">
<circle cx="58.0025" cy="21.8062" r="0.4000" /> 
</g>
<g style="fill:#000000; fill-opacity:1.0000; stroke:none;">
<circle cx="11.9105" cy="50.0932" r="1.3500" /> 
</g>
<g style="fill:#FFFFFF; fill-opacity:1.0000; stroke:none;">
<circle cx="4.6625" cy="19.9012" r="0.4000" /> 
</g>
<g style="fill:#FFFFFF; fill-opacity:1.0000; stroke:none;">
<circle cx="12.2825" cy="19.9012" r="0.4000" /> 
</g>
<g style="fill:#FFFFFF; fill-opacity:1.0000; stroke:none;">
<circle cx="40.8575" cy="25.6162" r="0.4500" /> 
</g>
<g style="fill:#FFFFFF; fill-opacity:1.0000; stroke:none;">
<circle cx="43.3975" cy="25.6162" r="0.4500" /> 
</g>
<g style="fill:#FFFFFF; fill-opacity:1.0000; stroke:none;">
<circle cx="42.1675" cy="42.1262" r="0.4000" /> 
</g>
<g style="fill:#FFFFFF; fill-opacity:1.0000; stroke:none;">
<circle cx="44.6675" cy="42.1262" r="0.4000" /> 
</g>
<g style="fill:#000000; fill-opacity:1.0000; stroke:none;">
<circle cx="11.9105" cy="11.9092" r="1.3500" /> 
</g>
<g style="fill:#FFFFFF; fill-opacity:1.0000; stroke:none;">
<circle cx="18.1325" cy="5.8662" r="0.5000" /> 
</g>
<g style="fill:#FFFFFF; fill-opacity:1.0000; stroke:none;">
<circle cx="18.1325" cy="19.9662" r="0.5000" /> 
</g>
<g style="fill:#FFFFFF; fill-opacity:1.0000; stroke:none;">
<circle cx="44.5325" cy="5.8662" r="0.5000" /> 
</g>
<g style="fill:#FFFFFF; fill-opacity:1.0000; stroke:none;">
<circle cx="44.5325" cy="19.9662" r="0.5000" /> 
</g>
<g style="fill:#000000; fill-opacity:1.0000; stroke:none;">
<circle cx="50.0945" cy="11.9092" r="1.3500" /> 
</g>
<g style="fill:#FFFFFF; fill-opacity:1.0000; stroke:none;">
<circle cx="40.2325" cy="52.2862" r="0.4000" /> 
</g>
<g style="fill:#FFFFFF; fill-opacity:1.0000; stroke:none;">
<circle cx="44.0325" cy="52.2862" r="0.4000" /> 
</g>
<g style="fill:#FFFFFF; fill-opacity:1.0000; stroke:none;">
<circle cx="49.1125" cy="28.1562" r="0.5000" /> 
</g>
<g style="fill:#FFFFFF; fill-opacity:1.0000; stroke:none;">
<circle cx="51.6525" cy="28.1562" r="0.5000" /> 
</g>
<g style="fill:#FFFFFF; fill-opacity:1.0000; stroke:none;">
<circle cx="49.1125" cy="30.6962" r="0.5000" /> 
</g>
<g style="fill:#FFFFFF; fill-opacity:1.0000; stroke:none;">
<circle cx="51.6525" cy="30.6962" r="0.5000" /> 
</g>
<g style="fill:#FFFFFF; fill-opacity:1.0000; stroke:none;">
<circle cx="49.1125" cy="33.2362" r="0.5000" /> 
</g>
<g style="fill:#FFFFFF; fill-opacity:1.0000; stroke:none;">
<circle cx="51.6525" cy="33.2362" r="0.5000" /> 
</g>
<g style="fill:#FFFFFF; fill-opacity:1.0000; stroke:none;">
<circle cx="51.6525" cy="35.7762" r="0.5000" /> 
</g>
<g style="fill:#FFFFFF; fill-opacity:1.0000; stroke:none;">
<circle cx="27.3925" cy="24.3462" r="0.5000" /> 
</g>
<g style="fill:#FFFFFF; fill-opacity:1.0000; stroke:none;">
<circle cx="24.8525" cy="24.3462" r="0.5000" /> 
</g>
<g style="fill:#FFFFFF; fill-opacity:1.0000; stroke:none;">
<circle cx="12.2825" cy="24.3462" r="0.5000" /> 
</g>
<g style="fill:#FFFFFF; fill-opacity:1.0000; stroke:none;">
<circle cx="9.7425" cy="24.3462" r="0.5000" /> 
</g>
<g style="fill:#FFFFFF; fill-opacity:1.0000; stroke:none;">
<circle cx="27.3925" cy="44.8262" r="0.5000" /> 
</g>
<g style="fill:#FFFFFF; fill-opacity:1.0000; stroke:none;">
<circle cx="24.8525" cy="44.8262" r="0.5000" /> 
</g>
<g style="fill:#FFFFFF; fill-opacity:1.0000; stroke:none;">
<circle cx="12.2825" cy="44.8262" r="0.5000" /> 
</g>
<g style="fill:#FFFFFF; fill-opacity:1.0000; stroke:none;">
<circle cx="9.7425" cy="44.8262" r="0.5000" /> 
</g>
<g style="fill:#FFFFFF; fill-opacity:1.0000; stroke:none;">
<circle cx="36.9925" cy="29.4262" r="0.5000" /> 
</g>
<g style="fill:#FFFFFF; fill-opacity:1.0000; stroke:none;">
<circle cx="36.9925" cy="26.8862" r="0.5000" /> 
</g>
<g style="fill:#FFFFFF; fill-opacity:1.0000; stroke:none;">
<circle cx="36.9925" cy="24.3462" r="0.5000" /> 
</g>
<g style="fill:#000000; fill-opacity:1.0000; stroke:none;">
<circle cx="50.0945" cy="50.0932" r="1.3500" /> 
</g>
<g style="fill:#FFFFFF; fill-opacity:1.0000; stroke:none;">
<circle cx="25.2073" cy="54.1912" r="0.6000" /> 
</g>
<g style="fill:#FFFFFF; fill-opacity:1.0000; stroke:none;">
<circle cx="30.2073" cy="54.1912" r="0.6000" /> 
</g> 
</svg>
