<?xml version="1.0" standalone="no"?>
 <!DOCTYPE svg PUBLIC "-//W3C//DTD SVG 1.1//EN" 
 "http://www.w3.org/Graphics/SVG/1.1/DTD/svg11.dtd"> 
<svg
  xmlns:svg="http://www.w3.org/2000/svg"
  xmlns="http://www.w3.org/2000/svg"
  xmlns:xlink="http://www.w3.org/1999/xlink"
  xmlns:inkscape="http://www.inkscape.org/namespaces/inkscape"
  version="1.1"
  width="62.0014mm" height="62.0014mm" viewBox="0.0000 0.0000 62.0014 62.0014">
<title>SVG Image created as rf_bot_mirror.svg date 2026-07-05T22:31:42 </title>
  <desc>Image generated by PCBNEW </desc>
<g style="fill:#000000; fill-opacity:1.0000;stroke:#000000; stroke-opacity:1.0000;
stroke-linecap:round; stroke-linejoin:round;"
 transform="translate(0 0) scale(1 1)">
<path style="fill:#000000; fill-opacity:1.0000; stroke:none;fill-rule:evenodd;"
d="M 39.4039,12.1962
39.4229,12.2919
39.4771,12.3730
39.5582,12.4272
39.6539,12.4462
40.7539,12.4462
40.8496,12.4272
40.9307,12.3730
40.9849,12.2919
41.0039,12.1962
41.0039,11.0962
40.9849,11.0006
40.9307,10.9195
40.8496,10.8653
40.7539,10.8462
39.6539,10.8462
39.5582,10.8653
39.4771,10.9195
39.4229,11.0006
39.4039,11.0962
Z" /> 
</g>
<g style="fill:#000000; fill-opacity:1.0000; stroke:none;">
<circle cx="44.0039" cy="11.6462" r="0.8000" /> 
<circle cx="26.1839" cy="13.5512" r="1.0000" /> 
<circle cx="21.1839" cy="13.5512" r="1.0000" /> 
<path style="fill:#000000; fill-opacity:1.0000; stroke:none;fill-rule:evenodd;"
d="M 39.4689,22.9612
39.4689,21.2612
37.7689,21.2612
37.7689,22.9612
Z" /> 
<circle cx="38.6189" cy="24.6512" r="0.8500" /> 
<circle cx="38.6189" cy="27.1912" r="0.8500" /> 
<circle cx="38.6189" cy="29.7312" r="0.8500" /> 
<circle cx="38.6189" cy="32.2712" r="0.8500" /> 
<circle cx="38.6189" cy="34.8112" r="0.8500" /> 
<circle cx="38.6189" cy="37.3512" r="0.8500" /> 
<circle cx="38.6189" cy="39.8912" r="0.8500" /> 
<circle cx="23.3789" cy="22.1112" r="0.8500" /> 
<circle cx="23.3789" cy="24.6512" r="0.8500" /> 
<circle cx="23.3789" cy="27.1912" r="0.8500" /> 
<circle cx="23.3789" cy="29.7312" r="0.8500" /> 
<circle cx="23.3789" cy="32.2712" r="0.8500" /> 
<circle cx="23.3789" cy="34.8112" r="0.8500" /> 
<circle cx="23.3789" cy="37.3512" r="0.8500" /> 
<circle cx="23.3789" cy="39.8912" r="0.8500" /> 
<path style="fill:#000000; fill-opacity:1.0000; stroke:none;fill-rule:evenodd;"
d="M 51.8489,20.0712
51.8489,18.3712
50.1489,18.3712
50.1489,20.0712
Z" /> 
<circle cx="48.4589" cy="19.2212" r="0.8500" /> 
<circle cx="50.9989" cy="21.7612" r="0.8500" /> 
<circle cx="48.4589" cy="21.7612" r="0.8500" /> 
<circle cx="50.9989" cy="24.3012" r="0.8500" /> 
<circle cx="48.4589" cy="24.3012" r="0.8500" /> 
<circle cx="50.9989" cy="26.8412" r="0.8500" /> 
<circle cx="48.4589" cy="26.8412" r="0.8500" /> 
<circle cx="50.9989" cy="29.3812" r="0.8500" /> 
<circle cx="48.4589" cy="29.3812" r="0.8500" /> 
<circle cx="50.9989" cy="31.9212" r="0.8500" /> 
<circle cx="48.4589" cy="31.9212" r="0.8500" /> 
<circle cx="50.9989" cy="34.4612" r="0.8500" /> 
<circle cx="48.4589" cy="34.4612" r="0.8500" /> 
<circle cx="50.9989" cy="37.0012" r="0.8500" /> 
<circle cx="48.4589" cy="37.0012" r="0.8500" /> 
<circle cx="50.9989" cy="39.5412" r="0.8500" /> 
<circle cx="48.4589" cy="39.5412" r="0.8500" /> 
<circle cx="50.9989" cy="42.0812" r="0.8500" /> 
<circle cx="48.4589" cy="42.0812" r="0.8500" /> 
<circle cx="34.5589" cy="17.3612" r="1.0000" /> 
<circle cx="39.5589" cy="17.3612" r="1.0000" /> 
<circle cx="23.5389" cy="51.5412" r="1.0250" /> 
<circle cx="26.0789" cy="49.0012" r="1.1250" /> 
<circle cx="26.0789" cy="54.0812" r="1.1250" /> 
<circle cx="20.9989" cy="49.0012" r="1.1250" /> 
<circle cx="20.9989" cy="54.0812" r="1.1250" /> 
<path style="fill:#000000; fill-opacity:1.0000; stroke:none;fill-rule:evenodd;"
d="M 23.2639,7.6212
21.5639,7.6212
21.5639,9.3212
23.2639,9.3212
Z" /> 
<circle cx="24.9539" cy="8.4712" r="0.8500" /> 
<circle cx="27.4939" cy="8.4712" r="0.8500" /> 
<circle cx="30.0339" cy="8.4712" r="0.8500" /> 
<circle cx="32.5739" cy="8.4712" r="0.8500" /> 
<circle cx="35.1139" cy="8.4712" r="0.8500" /> 
<path style="fill:#000000; fill-opacity:1.0000; stroke:none;fill-rule:evenodd;"
d="M 13.7389,26.4662
13.7389,24.7662
12.0389,24.7662
12.0389,26.4662
Z" /> 
<circle cx="10.3489" cy="25.6162" r="0.8500" /> 
<circle cx="12.8889" cy="28.1562" r="0.8500" /> 
<circle cx="10.3489" cy="28.1562" r="0.8500" /> 
<circle cx="12.8889" cy="30.6962" r="0.8500" /> 
<circle cx="10.3489" cy="30.6962" r="0.8500" /> 
<circle cx="10.3489" cy="33.2362" r="0.8500" /> 
<circle cx="26.9989" cy="53.0012" r="0.3000" /> 
<circle cx="21.1439" cy="47.2062" r="0.3000" /> 
<circle cx="26.9989" cy="48.0012" r="0.3000" /> 
<circle cx="25.5889" cy="47.2062" r="0.3000" /> 
<circle cx="19.9989" cy="48.0012" r="0.3000" /> 
<circle cx="26.9989" cy="50.0012" r="0.3000" /> 
<circle cx="25.5889" cy="45.3012" r="0.3000" /> 
<circle cx="21.1439" cy="46.5712" r="0.3000" /> 
<circle cx="19.9989" cy="53.0012" r="0.3000" /> 
<circle cx="21.1439" cy="45.3012" r="0.3000" /> 
<circle cx="21.9989" cy="55.0012" r="0.3000" /> 
<circle cx="25.5889" cy="45.9362" r="0.3000" /> 
<circle cx="24.9989" cy="55.0012" r="0.3000" /> 
<circle cx="26.9989" cy="55.0012" r="0.3000" /> 
<circle cx="19.9989" cy="55.0012" r="0.3000" /> 
<circle cx="19.9989" cy="50.0012" r="0.3000" /> 
<circle cx="25.5889" cy="46.5712" r="0.3000" /> 
<circle cx="21.1439" cy="45.9362" r="0.3000" /> 
<circle cx="25.5889" cy="32.6012" r="0.3000" /> 
<circle cx="26.8589" cy="32.6012" r="0.3000" /> 
</g>
<g style="fill:none; 
stroke:#000000; stroke-width:0.2500; stroke-opacity:1; 
stroke-linecap:round; stroke-linejoin:round;">
<path d="M56.0689 33.8712
L56.0689 44.0312
" />
<path d="M48.4589 21.7612
L48.4589 19.2212
" />
<path d="M38.9689 21.7612
L38.6189 22.1112
" />
<path d="M25.9189 39.8912
L38.6189 39.8912
" />
<path d="M38.6189 18.9362
L38.6189 22.1112
" />
<path d="M23.3789 37.3512
L25.9189 39.8912
" />
<path d="M49.8239 30.7462
L49.8239 23.1262
" />
<path d="M49.8239 23.1262
L48.4589 21.7612
" />
<path d="M56.0689 44.0312
L55.4339 44.6662
" />
<path d="M39.5589 17.3612
L39.5589 17.9962
" />
<path d="M38.2889 44.6662
L38.6189 44.3362
" />
<path d="M48.4589 18.6412
L44.0039 14.1862
" />
<path d="M50.9989 31.9212
L49.8239 30.7462
" />
<path d="M48.4589 19.2212
L48.4589 18.6412
" />
<path d="M55.4339 44.6662
L38.2889 44.6662
" />
<path d="M39.5589 17.3612
L42.7339 14.1862
" />
<path d="M39.5589 17.9962
L38.6189 18.9362
" />
<path d="M50.9989 31.9212
L52.9489 33.8712
" />
<path d="M38.6189 22.1112
L38.7589 21.9712
" />
<path d="M30.5089 48.0012
L38.6189 39.8912
" />
<path d="M44.0039 9.1062
L43.3689 8.4712
" />
<path d="M42.7339 14.1862
L44.0039 14.1862
" />
<path d="M38.6189 44.3362
L38.6189 39.8912
" />
<path d="M44.0039 14.1862
L44.0039 11.6462
" />
<path d="M26.9989 48.0012
L30.5089 48.0012
" />
<path d="M52.9489 33.8712
L56.0689 33.8712
" />
<path d="M43.3689 8.4712
L35.1139 8.4712
" />
<path d="M44.0039 11.6462
L44.0039 9.1062
" />
<path d="M48.4289 34.4612
L48.4589 34.4612
" />
<path d="M32.5739 8.4712
L32.5739 19.9012
" />
<path d="M33.8689 19.9012
L38.6189 24.6512
" />
<path d="M32.5739 19.9012
L33.8689 19.9012
" />
<path d="M38.6189 24.6512
L48.4289 34.4612
" />
<path d="M30.0339 18.6062
L38.6189 27.1912
" />
<path d="M30.0339 8.4712
L30.0339 18.6062
" />
<path d="M28.3439 9.3212
L28.3439 19.4562
" />
<path d="M28.3439 19.4562
L38.6189 29.7312
" />
<path d="M16.6989 5.2962
L27.4939 5.2962
" />
<path d="M16.6989 24.7129
L16.6989 5.2962
" />
<path d="M22.8922 30.9062
L16.6989 24.7129
" />
<path d="M27.4939 8.4712
L28.3439 9.3212
" />
<path d="M27.4939 5.2962
L27.4939 8.4712
" />
<path d="M23.8939 30.9062
L22.8922 30.9062
" />
<path d="M25.5889 32.6012
L23.8939 30.9062
" />
<path d="M24.8589 30.6012
L24.8589 8.5662
" />
<path d="M26.8589 32.6012
L24.8589 30.6012
" />
<path d="M24.9539 8.4712
L24.5539 8.8712
" />
<path d="M24.8589 8.5662
L24.9539 8.4712
" />
<path style="fill:#000000; fill-opacity:1.0000; stroke:none;fill-rule:evenodd;"
d="M 4.0408,45.0209
3.9950,45.0737
3.9851,45.1429
3.9990,45.1847
4.4942,46.0916
4.4964,46.0955
5.0497,47.0280
5.0521,47.0318
5.6383,47.9440
5.6408,47.9477
6.2592,48.8384
6.2618,48.8420
6.9116,49.7100
6.9143,49.7135
7.5947,50.5578
7.5975,50.5612
8.3076,51.3807
8.3106,51.3840
9.0495,52.1777
9.0526,52.1809
9.8193,52.9476
9.8225,52.9507
10.6161,53.6896
10.6194,53.6925
11.4389,54.4026
11.4423,54.4054
12.2866,55.0859
12.2901,55.0886
13.1582,55.7384
13.1618,55.7410
14.0525,56.3594
14.0561,56.3619
14.9683,56.9481
14.9721,56.9504
15.9047,57.5037
15.9085,57.5059
16.8602,58.0256
16.8641,58.0276
17.8338,58.5130
17.8378,58.5149
18.8241,58.9654
18.8282,58.9671
19.8300,59.3821
19.8341,59.3837
20.8501,59.7627
20.8543,59.7641
21.8831,60.1066
21.8873,60.1079
22.9278,60.4134
22.9321,60.4146
23.9827,60.6827
23.9870,60.6837
25.0466,60.9142
25.0509,60.9151
26.1180,61.1076
26.1224,61.1083
27.1957,61.2627
27.2001,61.2632
28.2783,61.3791
28.2827,61.3795
29.3642,61.4569
29.3686,61.4571
30.4523,61.4958
30.4567,61.4959
31.5411,61.4959
31.5455,61.4958
32.6292,61.4571
32.6336,61.4569
33.7151,61.3795
33.7195,61.3791
34.7977,61.2632
34.8021,61.2627
35.8754,61.1083
35.8798,61.1076
36.9469,60.9151
36.9512,60.9142
38.0108,60.6837
38.0151,60.6827
39.0658,60.4146
39.0700,60.4134
40.1105,60.1079
40.1147,60.1066
41.1435,59.7641
41.1477,59.7627
42.1637,59.3837
42.1678,59.3821
43.1696,58.9671
43.1737,58.9654
44.1600,58.5149
44.1640,58.5130
45.1337,58.0276
45.1376,58.0256
46.0893,57.5059
46.0931,57.5037
47.0257,56.9504
47.0295,56.9481
47.9417,56.3619
47.9453,56.3594
48.8360,55.7410
48.8396,55.7384
49.2310,55.4454
49.7077,55.0886
49.7112,55.0859
50.5555,54.4054
50.5589,54.4026
50.9748,54.0422
51.0774,53.9534
27.7039,53.9534
27.7039,54.2091
27.6639,54.4618
27.5849,54.7050
27.5848,54.7050
27.4687,54.9329
27.3911,55.0398
27.3911,55.0398
26.8330,54.4818
26.8322,54.4839
26.7391,54.6231
26.6207,54.7415
26.4815,54.8345
26.4795,54.8354
27.0375,55.3934
26.9306,55.4711
26.7027,55.5872
26.7027,55.5872
26.4594,55.6662
26.2068,55.7062
25.9510,55.7062
25.6984,55.6662
25.4551,55.5872
25.4551,55.5872
25.2272,55.4711
25.1203,55.3934
25.1203,55.3934
25.6783,54.8354
25.6763,54.8345
25.5371,54.7415
25.4187,54.6231
25.3256,54.4839
25.3248,54.4818
24.7668,55.0398
24.7668,55.0398
24.6891,54.9329
24.5730,54.7050
24.5730,54.7050
24.4939,54.4618
24.4539,54.2091
24.4539,53.9534
22.6239,53.9534
22.6239,54.2091
22.5839,54.4618
22.5049,54.7050
22.5048,54.7050
22.3887,54.9329
22.3111,55.0398
22.3111,55.0398
21.7530,54.4818
21.7522,54.4839
21.6591,54.6231
21.5407,54.7415
21.4015,54.8345
21.3995,54.8354
21.9575,55.3934
21.8506,55.4711
21.6227,55.5872
21.6227,55.5872
21.3794,55.6662
21.1268,55.7062
20.8710,55.7062
20.6184,55.6662
20.3751,55.5872
20.3751,55.5872
20.1472,55.4711
20.0403,55.3934
20.0403,55.3934
20.5983,54.8354
20.5963,54.8345
20.4571,54.7415
20.3387,54.6231
20.2456,54.4839
20.2448,54.4818
19.6868,55.0398
19.6868,55.0398
19.6091,54.9329
19.4930,54.7050
19.4930,54.7050
19.4139,54.4618
19.3739,54.2091
19.3739,53.9534
19.4139,53.7007
19.4930,53.4575
19.4930,53.4575
19.6091,53.2296
19.6868,53.1227
19.6868,53.1227
20.2448,53.6807
20.2456,53.6786
20.3387,53.5394
20.4571,53.4210
20.5963,53.3280
20.5983,53.3271
20.0403,52.7691
20.1472,52.6914
20.3751,52.5753
20.3751,52.5753
20.6184,52.4963
20.8710,52.4562
21.1268,52.4562
21.3794,52.4963
21.6227,52.5753
21.6227,52.5753
21.8506,52.6914
21.9575,52.7691
21.9575,52.7691
21.3995,53.3271
21.4015,53.3280
21.5407,53.4210
21.6591,53.5394
21.7522,53.6786
21.7530,53.6807
22.3111,53.1227
22.3111,53.1227
22.3887,53.2296
22.5048,53.4575
22.5049,53.4575
22.5839,53.7007
22.6239,53.9534
24.4539,53.9534
24.4939,53.7007
24.5730,53.4575
24.5730,53.4575
24.6891,53.2296
24.7668,53.1227
24.7668,53.1227
25.3248,53.6807
25.3256,53.6786
25.4187,53.5394
25.5371,53.4210
25.6763,53.3280
25.6783,53.3271
25.1203,52.7691
25.2272,52.6914
25.4551,52.5753
25.4551,52.5753
25.6984,52.4963
25.9510,52.4562
26.2068,52.4562
26.4594,52.4963
26.7027,52.5753
26.7027,52.5753
26.9306,52.6914
27.0375,52.7691
27.0375,52.7691
26.4795,53.3271
26.4815,53.3280
26.6207,53.4210
26.7391,53.5394
26.8322,53.6786
26.8330,53.6807
27.3911,53.1227
27.3911,53.1227
27.4687,53.2296
27.5848,53.4575
27.5849,53.4575
27.6639,53.7007
27.7039,53.9534
51.0774,53.9534
51.3784,53.6925
51.3817,53.6896
51.8758,53.2296
52.1753,52.9507
52.1785,52.9476
52.9452,52.1809
52.9483,52.1777
53.6145,51.4621
53.6872,51.3840
53.6902,51.3807
53.8606,51.1840
54.2439,50.7417
54.4003,50.5612
54.4031,50.5578
54.8202,50.0402
54.8202,50.0402
54.8790,49.9673
51.6914,49.9673
51.6914,50.2192
51.6642,50.3911
51.6520,50.4680
51.5741,50.7076
51.4598,50.9321
51.3117,51.1359
51.3117,51.1359
51.1336,51.3140
51.1336,51.3140
50.9861,51.4212
50.9297,51.4621
50.7867,51.5350
50.7053,51.5765
50.7053,51.5765
50.7053,51.5765
50.4657,51.6543
50.2169,51.6937
50.2169,51.6937
49.9649,51.6937
49.9649,51.6937
49.7161,51.6543
49.4765,51.5765
49.2521,51.4621
49.1957,51.4212
25.0644,51.4212
25.0644,51.6613
25.0268,51.8985
24.9526,52.1268
24.8436,52.3408
24.7025,52.5350
24.5327,52.7048
24.3384,52.8460
24.2759,52.8778
24.1245,52.9550
24.1245,52.9550
24.1245,52.9550
23.8961,53.0292
23.6590,53.0667
23.6590,53.0667
23.4188,53.0667
23.4188,53.0667
23.1817,53.0292
22.9533,52.9550
22.7394,52.8460
22.5451,52.7048
22.3753,52.5350
22.2342,52.3408
22.1252,52.1268
22.0510,51.8985
22.0134,51.6613
22.0134,51.4212
22.0510,51.1840
22.1252,50.9557
22.1252,50.9557
22.1252,50.9557
22.2342,50.7417
22.3753,50.5475
22.5451,50.3777
22.7394,50.2365
22.7734,50.2192
22.9533,50.1275
23.1817,50.0533
23.4188,50.0157
23.6590,50.0157
23.7775,50.0345
23.8961,50.0533
24.1245,50.1275
24.3384,50.2365
24.5327,50.3777
24.7025,50.5474
24.8436,50.7417
24.9526,50.9557
25.0268,51.1840
25.0644,51.4212
49.1957,51.4212
49.1400,51.3807
49.0509,51.3160
49.0509,51.3160
49.0482,51.3140
48.8701,51.1359
48.7220,50.9321
48.6077,50.7076
48.5298,50.4680
48.4904,50.2192
48.4904,49.9673
48.5298,49.7185
48.6077,49.4789
48.6077,49.4789
48.6077,49.4789
48.6709,49.3548
48.7220,49.2544
48.7409,49.2284
48.8701,49.0506
48.8701,49.0506
49.0473,48.8734
27.7039,48.8734
27.7039,49.1291
27.6639,49.3818
27.5849,49.6250
27.5848,49.6250
27.4687,49.8529
27.3911,49.9598
27.3911,49.9598
26.8330,49.4018
26.8322,49.4039
26.7391,49.5431
26.6207,49.6615
26.4815,49.7545
26.4795,49.7554
27.0375,50.3134
26.9306,50.3911
26.7027,50.5072
26.7027,50.5072
26.4594,50.5862
26.2068,50.6262
25.9510,50.6262
25.6984,50.5862
25.4551,50.5072
25.4551,50.5072
25.2272,50.3911
25.1203,50.3134
25.1203,50.3134
25.6783,49.7554
25.6763,49.7545
25.5371,49.6615
25.4187,49.5431
25.3256,49.4039
25.3248,49.4018
24.7668,49.9598
24.7668,49.9598
24.6891,49.8529
24.5730,49.6250
24.5730,49.6250
24.4939,49.3818
24.4539,49.1291
24.4539,48.8734
22.6239,48.8734
22.6239,49.1291
22.5839,49.3818
22.5049,49.6250
22.5048,49.6250
22.3887,49.8529
22.3111,49.9598
22.3111,49.9598
21.7530,49.4018
21.7522,49.4039
21.6591,49.5431
21.5407,49.6615
21.4015,49.7545
21.3995,49.7554
21.9575,50.3134
21.8506,50.3911
21.6227,50.5072
21.6227,50.5072
21.3794,50.5862
21.1268,50.6262
20.8710,50.6262
20.6184,50.5862
20.3751,50.5072
20.3751,50.5072
20.1472,50.3911
20.0403,50.3134
20.0403,50.3134
20.3864,49.9673
13.5074,49.9673
13.5074,50.2192
13.4802,50.3911
13.4680,50.4680
13.3901,50.7076
13.2758,50.9321
13.1277,51.1359
13.1277,51.1359
12.9496,51.3140
12.9496,51.3140
12.8021,51.4212
12.7457,51.4621
12.6027,51.5350
12.5213,51.5765
12.5213,51.5765
12.5213,51.5765
12.2817,51.6543
12.0329,51.6937
12.0329,51.6937
11.7809,51.6937
11.7809,51.6937
11.5321,51.6543
11.2925,51.5765
11.0681,51.4621
10.8642,51.3140
10.6861,51.1359
10.5380,50.9321
10.4237,50.7076
10.3458,50.4680
10.3064,50.2192
10.3064,49.9673
10.3458,49.7185
10.4237,49.4789
10.4237,49.4789
10.4237,49.4789
10.4869,49.3548
10.5380,49.2544
10.5569,49.2284
10.6861,49.0506
10.6861,49.0506
10.8642,48.8725
10.8643,48.8725
11.0681,48.7244
11.0681,48.7244
11.0681,48.7244
11.1382,48.6887
11.2925,48.6100
11.5321,48.5322
11.7809,48.4927
12.0329,48.4927
12.1573,48.5125
12.2817,48.5322
12.5213,48.6100
12.7458,48.7244
12.9496,48.8725
12.9496,48.8725
13.1277,49.0506
13.1277,49.0506
13.2758,49.2544
13.3901,49.4789
13.4495,49.6615
13.4680,49.7185
13.5074,49.9673
20.3864,49.9673
20.5983,49.7554
20.5963,49.7545
20.4571,49.6615
20.3387,49.5431
20.2456,49.4039
20.2448,49.4018
19.6868,49.9598
19.6868,49.9598
19.6357,49.8895
19.6357,49.8895
19.6091,49.8529
19.6091,49.8529
19.4930,49.6250
19.4930,49.6250
19.4139,49.3818
19.3739,49.1291
19.3739,48.8734
19.4139,48.6207
19.4930,48.3775
19.4930,48.3775
19.6091,48.1496
19.6868,48.0427
19.6868,48.0427
20.2448,48.6007
20.2456,48.5986
20.3387,48.4594
20.4571,48.3410
20.5963,48.2480
20.5983,48.2471
20.0403,47.6891
20.1472,47.6114
20.3751,47.4953
20.3751,47.4953
20.6184,47.4163
20.8710,47.3762
21.1268,47.3762
21.3794,47.4163
21.6227,47.4953
21.6227,47.4953
21.8506,47.6114
21.9575,47.6891
21.9575,47.6891
21.3995,48.2471
21.4015,48.2480
21.5407,48.3410
21.6591,48.4594
21.7522,48.5986
21.7530,48.6007
22.3111,48.0427
22.3111,48.0427
22.3887,48.1496
22.5048,48.3775
22.5049,48.3775
22.5839,48.6207
22.6239,48.8734
24.4539,48.8734
24.4939,48.6207
24.5730,48.3775
24.5730,48.3775
24.6891,48.1496
24.7668,48.0427
24.7668,48.0427
25.3248,48.6007
25.3256,48.5986
25.4187,48.4594
25.5371,48.3410
25.6763,48.2480
25.6783,48.2471
25.1203,47.6891
25.2272,47.6114
25.4551,47.4953
25.4551,47.4953
25.6984,47.4163
25.9510,47.3762
26.2068,47.3762
26.4594,47.4163
26.7027,47.4953
26.7027,47.4953
26.9306,47.6114
27.0375,47.6891
27.0375,47.6891
26.4795,48.2471
26.4815,48.2480
26.6207,48.3410
26.7391,48.4594
26.8322,48.5986
26.8330,48.6007
27.3911,48.0427
27.3911,48.0427
27.4687,48.1496
27.5848,48.3775
27.5849,48.3775
27.6639,48.6207
27.7039,48.8734
49.0473,48.8734
49.0482,48.8725
49.0483,48.8725
49.2521,48.7244
49.2521,48.7244
49.2521,48.7244
49.3222,48.6887
49.4765,48.6100
49.7161,48.5322
49.9649,48.4927
50.2169,48.4927
50.3413,48.5125
50.4657,48.5322
50.7053,48.6100
50.9298,48.7244
51.1336,48.8725
51.1336,48.8725
51.3117,49.0506
51.3117,49.0506
51.4598,49.2544
51.5741,49.4789
51.6335,49.6615
51.6520,49.7185
51.6914,49.9673
54.8790,49.9673
55.0835,49.7135
55.0862,49.7100
55.2112,49.5431
55.7360,48.8420
55.7386,48.8384
56.3571,47.9477
56.3595,47.9440
56.7244,47.3762
56.9457,47.0318
56.9481,47.0280
57.5014,46.0955
57.5036,46.0916
57.5884,45.9362
30.6689,45.9362
31.3702,45.0012
4.1078,45.0012
Z" /> 
<path style="fill:#000000; fill-opacity:1.0000; stroke:none;fill-rule:evenodd;"
d="M 52.3303,31.3509
52.2846,31.4037
52.2746,31.4729
52.2794,31.4936
52.3157,31.6051
52.3157,31.6051
52.3489,31.8150
52.3489,32.0275
52.3157,32.2374
52.3157,32.2374
52.2500,32.4395
52.1535,32.6288
52.1142,32.6830
51.4819,32.0507
51.4648,32.1142
51.3990,32.2283
51.3059,32.3213
51.1919,32.3872
51.1283,32.4042
51.7606,33.0365
51.7606,33.0365
51.7064,33.0759
51.7065,33.0759
51.6974,33.0805
51.6466,33.1285
51.6298,33.1963
51.6524,33.2624
51.6974,33.3015
51.7067,33.3062
51.8787,33.4311
52.0290,33.5815
52.1540,33.7534
52.2505,33.9428
52.3161,34.1450
52.3396,34.2928
52.3494,34.3550
52.3494,34.5675
52.3161,34.7775
52.2674,34.9276
52.2505,34.9797
52.1540,35.1691
52.0290,35.3410
51.8787,35.4914
51.7067,35.6163
51.6980,35.6208
51.6472,35.6687
51.6304,35.7366
51.6529,35.8027
51.6980,35.8417
51.7067,35.8462
51.8787,35.9711
52.0290,36.1215
52.1540,36.2934
52.2505,36.4828
52.3161,36.6850
52.3396,36.8328
52.3494,36.8950
52.3494,37.1075
52.3161,37.3175
52.2706,37.4575
52.2505,37.5197
52.1540,37.7091
52.0290,37.8810
51.8787,38.0314
51.7067,38.1563
51.6980,38.1608
51.6472,38.2087
51.6304,38.2766
51.6529,38.3427
51.6980,38.3817
51.7067,38.3862
51.8787,38.5111
52.0290,38.6615
52.1540,38.8334
52.2505,39.0228
52.3161,39.2250
52.3494,39.4350
52.3494,39.6475
52.3161,39.8575
52.2505,40.0597
52.1540,40.2491
52.0290,40.4210
51.8787,40.5714
51.7067,40.6963
51.6980,40.7008
51.6472,40.7487
51.6304,40.8166
51.6529,40.8827
51.6980,40.9217
51.7067,40.9262
51.8787,41.0511
52.0290,41.2015
52.1540,41.3734
52.2505,41.5628
52.3161,41.7650
52.3494,41.9750
52.3494,42.1875
52.3161,42.3975
52.2505,42.5997
52.1540,42.7891
52.0290,42.9610
51.8787,43.1114
51.7067,43.2363
51.7067,43.2363
51.7067,43.2363
51.5173,43.3328
51.3151,43.3985
51.1052,43.4317
51.1052,43.4317
50.8926,43.4317
50.8926,43.4317
50.6827,43.3985
50.4805,43.3328
50.2911,43.2363
50.2053,43.1740
50.1191,43.1114
50.1191,43.1114
50.1191,43.1114
49.9688,42.9610
49.9688,42.9610
49.9688,42.9610
49.8439,42.7891
49.8439,42.7891
49.8439,42.7891
49.8394,42.7803
49.7914,42.7295
49.7236,42.7127
49.6575,42.7352
49.6184,42.7803
49.6140,42.7891
49.4890,42.9610
49.3387,43.1114
49.1667,43.2363
49.1667,43.2363
49.1667,43.2363
48.9773,43.3328
48.7751,43.3985
48.5652,43.4317
48.5652,43.4317
48.3526,43.4317
48.3526,43.4317
48.1427,43.3985
47.9405,43.3328
47.7511,43.2363
47.6653,43.1740
47.5791,43.1114
47.5791,43.1114
47.5791,43.1114
47.4288,42.9610
47.4288,42.9610
47.4288,42.9610
47.3039,42.7891
47.3039,42.7891
47.3039,42.7891
47.2073,42.5997
47.1417,42.3975
47.1084,42.1875
47.1084,41.9750
47.1417,41.7650
47.2073,41.5628
47.3039,41.3734
47.3039,41.3734
47.3039,41.3734
47.4288,41.2015
47.5791,41.0511
47.7511,40.9262
47.7518,40.9258
47.7598,40.9217
47.8106,40.8738
47.8274,40.8059
47.8049,40.7398
47.7598,40.7008
47.7511,40.6963
47.7291,40.6803
47.5791,40.5714
47.5791,40.5714
47.5791,40.5714
47.4288,40.4210
47.4288,40.4210
47.4288,40.4210
47.3039,40.2491
47.3039,40.2491
47.3039,40.2491
47.2073,40.0597
47.1417,39.8575
47.1084,39.6475
47.1084,39.4350
47.1417,39.2250
47.2073,39.0228
47.3039,38.8334
47.3039,38.8334
47.3039,38.8334
47.4288,38.6615
47.5623,38.5279
47.5958,38.4666
47.5908,38.3969
47.5490,38.3410
47.4835,38.3166
47.4746,38.3162
39.6152,38.3162
39.5481,38.3359
39.5275,38.3526
39.4987,38.3814
39.3267,38.5063
39.3267,38.5063
39.3267,38.5063
39.3174,38.5110
39.2666,38.5590
39.2498,38.6268
39.2723,38.6930
39.3174,38.7320
39.3265,38.7366
39.4984,38.8615
39.4984,38.8615
39.6486,39.0118
39.6486,39.0118
39.7735,39.1837
39.8700,39.3730
39.9357,39.5751
39.9357,39.5751
39.9461,39.6412
39.0519,39.6412
39.0848,39.6983
39.1189,39.8254
39.1189,39.9571
39.0848,40.0842
39.0519,40.1412
39.9461,40.1412
39.9357,40.2074
39.9357,40.2074
39.8700,40.4095
39.7735,40.5988
39.6486,40.7707
39.6486,40.7707
39.4984,40.9210
39.4984,40.9210
39.3265,41.0459
39.1371,41.1423
38.9350,41.2080
38.8689,41.2185
38.8689,40.3243
38.8119,40.3572
38.6847,40.3912
38.5531,40.3912
38.4259,40.3572
38.3689,40.3243
38.3689,41.2185
38.3028,41.2080
38.3028,41.2080
38.1007,41.1423
37.9113,41.0459
37.7394,40.9210
37.7394,40.9210
37.5892,40.7707
37.5892,40.7707
37.4643,40.5988
37.3678,40.4095
37.3021,40.2074
37.3021,40.2074
37.2917,40.1412
38.1859,40.1412
38.1530,40.0842
38.1189,39.9571
38.1189,39.8254
38.1530,39.6983
38.1859,39.6412
37.2917,39.6412
37.3021,39.5751
37.3021,39.5751
37.3678,39.3730
37.4643,39.1837
37.5892,39.0118
37.5892,39.0118
37.7394,38.8615
37.7394,38.8615
37.9113,38.7366
37.9204,38.7320
37.9712,38.6840
37.9880,38.6162
37.9655,38.5501
37.9204,38.5110
37.9111,38.5063
37.7605,38.3969
37.7391,38.3814
37.7391,38.3814
37.7391,38.3814
37.7103,38.3526
37.6490,38.3191
37.6226,38.3162
36.4459,38.3162
36.3789,38.3359
36.3467,38.3658
31.3702,45.0012
31.3702,45.0012
30.6689,45.9362
57.5884,45.9362
58.0232,45.1399
58.0253,45.1360
58.5107,44.1663
58.5126,44.1623
58.9630,43.1760
58.9648,43.1720
59.2018,42.5997
59.3798,42.1701
59.3814,42.1660
59.4526,41.9750
59.7603,41.1500
59.7618,41.1458
59.7630,41.1423
60.1042,40.1170
60.1055,40.1128
60.2634,39.5751
60.4111,39.0723
60.4122,39.0681
60.4266,39.0118
60.6804,38.0174
60.6814,38.0131
60.9119,36.9536
60.9128,36.9492
60.9338,36.8328
61.1053,35.8821
61.1060,35.8777
61.2603,34.8044
61.2609,34.8001
61.2859,34.5675
61.3768,33.7218
61.3772,33.7175
61.4545,32.6359
61.4548,32.6315
61.4935,31.5478
61.4935,31.5434
61.4935,31.4552
61.4739,31.3882
61.4211,31.3425
61.3695,31.3312
52.3973,31.3312
Z" /> 
</g>
<g style="fill:none; 
stroke:#000000; stroke-width:0.1000; stroke-opacity:1; 
stroke-linecap:round; stroke-linejoin:round;">
<circle cx="30.9989" cy="31.0012" r="31.0000" /> 
</g>
<g style="fill:#FFFFFF; fill-opacity:1.0000; stroke:none;">
<circle cx="26.9989" cy="53.0012" r="0.1500" /> 
<circle cx="21.1439" cy="47.2062" r="0.1500" /> 
<circle cx="26.9989" cy="48.0012" r="0.1500" /> 
<circle cx="25.5889" cy="47.2062" r="0.1500" /> 
<circle cx="19.9989" cy="48.0012" r="0.1500" /> 
<circle cx="26.9989" cy="50.0012" r="0.1500" /> 
<circle cx="25.5889" cy="45.3012" r="0.1500" /> 
<circle cx="21.1439" cy="46.5712" r="0.1500" /> 
<circle cx="19.9989" cy="53.0012" r="0.1500" /> 
<circle cx="21.1439" cy="45.3012" r="0.1500" /> 
<circle cx="21.9989" cy="55.0012" r="0.1500" /> 
<circle cx="25.5889" cy="45.9362" r="0.1500" /> 
<circle cx="24.9989" cy="55.0012" r="0.1500" /> 
<circle cx="26.9989" cy="55.0012" r="0.1500" /> 
<circle cx="19.9989" cy="55.0012" r="0.1500" /> 
<circle cx="19.9989" cy="50.0012" r="0.1500" /> 
<circle cx="25.5889" cy="46.5712" r="0.1500" /> 
<circle cx="21.1439" cy="45.9362" r="0.1500" /> 
<circle cx="25.5889" cy="32.6012" r="0.1500" /> 
<circle cx="26.8589" cy="32.6012" r="0.1500" /> 
</g>
<g style="fill:#FFFFFF; fill-opacity:1.0000; stroke:none;">
<circle cx="40.2039" cy="11.6462" r="0.4000" /> 
</g>
<g style="fill:#FFFFFF; fill-opacity:1.0000; stroke:none;">
<circle cx="44.0039" cy="11.6462" r="0.4000" /> 
</g>
<g style="fill:#FFFFFF; fill-opacity:1.0000; stroke:none;">
<circle cx="26.1839" cy="13.5512" r="0.5000" /> 
</g>
<g style="fill:#FFFFFF; fill-opacity:1.0000; stroke:none;">
<circle cx="21.1839" cy="13.5512" r="0.5000" /> 
</g>
<g style="fill:#000000; fill-opacity:1.0000; stroke:none;">
<circle cx="11.9069" cy="11.9092" r="1.3500" /> 
</g>
<g style="fill:#FFFFFF; fill-opacity:1.0000; stroke:none;">
<circle cx="38.6189" cy="22.1112" r="0.5000" /> 
</g>
<g style="fill:#FFFFFF; fill-opacity:1.0000; stroke:none;">
<circle cx="38.6189" cy="24.6512" r="0.5000" /> 
</g>
<g style="fill:#FFFFFF; fill-opacity:1.0000; stroke:none;">
<circle cx="38.6189" cy="27.1912" r="0.5000" /> 
</g>
<g style="fill:#FFFFFF; fill-opacity:1.0000; stroke:none;">
<circle cx="38.6189" cy="29.7312" r="0.5000" /> 
</g>
<g style="fill:#FFFFFF; fill-opacity:1.0000; stroke:none;">
<circle cx="38.6189" cy="32.2712" r="0.5000" /> 
</g>
<g style="fill:#FFFFFF; fill-opacity:1.0000; stroke:none;">
<circle cx="38.6189" cy="34.8112" r="0.5000" /> 
</g>
<g style="fill:#FFFFFF; fill-opacity:1.0000; stroke:none;">
<circle cx="38.6189" cy="37.3512" r="0.5000" /> 
</g>
<g style="fill:#FFFFFF; fill-opacity:1.0000; stroke:none;">
<circle cx="38.6189" cy="39.8912" r="0.5000" /> 
</g>
<g style="fill:#FFFFFF; fill-opacity:1.0000; stroke:none;">
<circle cx="23.3789" cy="22.1112" r="0.5000" /> 
</g>
<g style="fill:#FFFFFF; fill-opacity:1.0000; stroke:none;">
<circle cx="23.3789" cy="24.6512" r="0.5000" /> 
</g>
<g style="fill:#FFFFFF; fill-opacity:1.0000; stroke:none;">
<circle cx="23.3789" cy="27.1912" r="0.5000" /> 
</g>
<g style="fill:#FFFFFF; fill-opacity:1.0000; stroke:none;">
<circle cx="23.3789" cy="29.7312" r="0.5000" /> 
</g>
<g style="fill:#FFFFFF; fill-opacity:1.0000; stroke:none;">
<circle cx="23.3789" cy="32.2712" r="0.5000" /> 
</g>
<g style="fill:#FFFFFF; fill-opacity:1.0000; stroke:none;">
<circle cx="23.3789" cy="34.8112" r="0.5000" /> 
</g>
<g style="fill:#FFFFFF; fill-opacity:1.0000; stroke:none;">
<circle cx="23.3789" cy="37.3512" r="0.5000" /> 
</g>
<g style="fill:#FFFFFF; fill-opacity:1.0000; stroke:none;">
<circle cx="23.3789" cy="39.8912" r="0.5000" /> 
</g>
<g style="fill:#000000; fill-opacity:1.0000; stroke:none;">
<circle cx="50.0909" cy="50.0932" r="1.3500" /> 
</g>
<g style="fill:#FFFFFF; fill-opacity:1.0000; stroke:none;">
<circle cx="50.9989" cy="19.2212" r="0.5000" /> 
</g>
<g style="fill:#FFFFFF; fill-opacity:1.0000; stroke:none;">
<circle cx="48.4589" cy="19.2212" r="0.5000" /> 
</g>
<g style="fill:#FFFFFF; fill-opacity:1.0000; stroke:none;">
<circle cx="50.9989" cy="21.7612" r="0.5000" /> 
</g>
<g style="fill:#FFFFFF; fill-opacity:1.0000; stroke:none;">
<circle cx="48.4589" cy="21.7612" r="0.5000" /> 
</g>
<g style="fill:#FFFFFF; fill-opacity:1.0000; stroke:none;">
<circle cx="50.9989" cy="24.3012" r="0.5000" /> 
</g>
<g style="fill:#FFFFFF; fill-opacity:1.0000; stroke:none;">
<circle cx="48.4589" cy="24.3012" r="0.5000" /> 
</g>
<g style="fill:#FFFFFF; fill-opacity:1.0000; stroke:none;">
<circle cx="50.9989" cy="26.8412" r="0.5000" /> 
</g>
<g style="fill:#FFFFFF; fill-opacity:1.0000; stroke:none;">
<circle cx="48.4589" cy="26.8412" r="0.5000" /> 
</g>
<g style="fill:#FFFFFF; fill-opacity:1.0000; stroke:none;">
<circle cx="50.9989" cy="29.3812" r="0.5000" /> 
</g>
<g style="fill:#FFFFFF; fill-opacity:1.0000; stroke:none;">
<circle cx="48.4589" cy="29.3812" r="0.5000" /> 
</g>
<g style="fill:#FFFFFF; fill-opacity:1.0000; stroke:none;">
<circle cx="50.9989" cy="31.9212" r="0.5000" /> 
</g>
<g style="fill:#FFFFFF; fill-opacity:1.0000; stroke:none;">
<circle cx="48.4589" cy="31.9212" r="0.5000" /> 
</g>
<g style="fill:#FFFFFF; fill-opacity:1.0000; stroke:none;">
<circle cx="50.9989" cy="34.4612" r="0.5000" /> 
</g>
<g style="fill:#FFFFFF; fill-opacity:1.0000; stroke:none;">
<circle cx="48.4589" cy="34.4612" r="0.5000" /> 
</g>
<g style="fill:#FFFFFF; fill-opacity:1.0000; stroke:none;">
<circle cx="50.9989" cy="37.0012" r="0.5000" /> 
</g>
<g style="fill:#FFFFFF; fill-opacity:1.0000; stroke:none;">
<circle cx="48.4589" cy="37.0012" r="0.5000" /> 
</g>
<g style="fill:#FFFFFF; fill-opacity:1.0000; stroke:none;">
<circle cx="50.9989" cy="39.5412" r="0.5000" /> 
</g>
<g style="fill:#FFFFFF; fill-opacity:1.0000; stroke:none;">
<circle cx="48.4589" cy="39.5412" r="0.5000" /> 
</g>
<g style="fill:#FFFFFF; fill-opacity:1.0000; stroke:none;">
<circle cx="50.9989" cy="42.0812" r="0.5000" /> 
</g>
<g style="fill:#FFFFFF; fill-opacity:1.0000; stroke:none;">
<circle cx="48.4589" cy="42.0812" r="0.5000" /> 
</g>
<g style="fill:#000000; fill-opacity:1.0000; stroke:none;">
<circle cx="50.0909" cy="11.9092" r="1.3500" /> 
<circle cx="11.9069" cy="50.0932" r="1.3500" /> 
</g>
<g style="fill:#FFFFFF; fill-opacity:1.0000; stroke:none;">
<circle cx="34.5589" cy="17.3612" r="0.5000" /> 
</g>
<g style="fill:#FFFFFF; fill-opacity:1.0000; stroke:none;">
<circle cx="39.5589" cy="17.3612" r="0.5000" /> 
</g>
<g style="fill:#FFFFFF; fill-opacity:1.0000; stroke:none;">
<circle cx="23.5389" cy="51.5412" r="0.7500" /> 
</g>
<g style="fill:#FFFFFF; fill-opacity:1.0000; stroke:none;">
<circle cx="26.0789" cy="49.0012" r="0.8500" /> 
</g>
<g style="fill:#FFFFFF; fill-opacity:1.0000; stroke:none;">
<circle cx="26.0789" cy="54.0812" r="0.8500" /> 
</g>
<g style="fill:#FFFFFF; fill-opacity:1.0000; stroke:none;">
<circle cx="20.9989" cy="49.0012" r="0.8500" /> 
</g>
<g style="fill:#FFFFFF; fill-opacity:1.0000; stroke:none;">
<circle cx="20.9989" cy="54.0812" r="0.8500" /> 
</g>
<g style="fill:#FFFFFF; fill-opacity:1.0000; stroke:none;">
<circle cx="22.4139" cy="8.4712" r="0.5000" /> 
</g>
<g style="fill:#FFFFFF; fill-opacity:1.0000; stroke:none;">
<circle cx="24.9539" cy="8.4712" r="0.5000" /> 
</g>
<g style="fill:#FFFFFF; fill-opacity:1.0000; stroke:none;">
<circle cx="27.4939" cy="8.4712" r="0.5000" /> 
</g>
<g style="fill:#FFFFFF; fill-opacity:1.0000; stroke:none;">
<circle cx="30.0339" cy="8.4712" r="0.5000" /> 
</g>
<g style="fill:#FFFFFF; fill-opacity:1.0000; stroke:none;">
<circle cx="32.5739" cy="8.4712" r="0.5000" /> 
</g>
<g style="fill:#FFFFFF; fill-opacity:1.0000; stroke:none;">
<circle cx="35.1139" cy="8.4712" r="0.5000" /> 
</g>
<g style="fill:#FFFFFF; fill-opacity:1.0000; stroke:none;">
<circle cx="12.8889" cy="25.6162" r="0.5000" /> 
</g>
<g style="fill:#FFFFFF; fill-opacity:1.0000; stroke:none;">
<circle cx="10.3489" cy="25.6162" r="0.5000" /> 
</g>
<g style="fill:#FFFFFF; fill-opacity:1.0000; stroke:none;">
<circle cx="12.8889" cy="28.1562" r="0.5000" /> 
</g>
<g style="fill:#FFFFFF; fill-opacity:1.0000; stroke:none;">
<circle cx="10.3489" cy="28.1562" r="0.5000" /> 
</g>
<g style="fill:#FFFFFF; fill-opacity:1.0000; stroke:none;">
<circle cx="12.8889" cy="30.6962" r="0.5000" /> 
</g>
<g style="fill:#FFFFFF; fill-opacity:1.0000; stroke:none;">
<circle cx="10.3489" cy="30.6962" r="0.5000" /> 
</g>
<g style="fill:#FFFFFF; fill-opacity:1.0000; stroke:none;">
<circle cx="10.3489" cy="33.2362" r="0.5000" /> 
</g> 
</svg>
