<?xml version="1.0" standalone="no"?>
 <!DOCTYPE svg PUBLIC "-//W3C//DTD SVG 1.1//EN" 
 "http://www.w3.org/Graphics/SVG/1.1/DTD/svg11.dtd"> 
<svg
  xmlns:svg="http://www.w3.org/2000/svg"
  xmlns="http://www.w3.org/2000/svg"
  xmlns:xlink="http://www.w3.org/1999/xlink"
  xmlns:inkscape="http://www.inkscape.org/namespaces/inkscape"
  version="1.1"
  width="62.0014mm" height="62.0014mm" viewBox="0.0000 0.0000 62.0014 62.0014">
<title>SVG Image created as rf_top.svg date 2026-07-05T22:31:42 </title>
  <desc>Image generated by PCBNEW </desc>
<g style="fill:#000000; fill-opacity:1.0000;stroke:#000000; stroke-opacity:1.0000;
stroke-linecap:round; stroke-linejoin:round;"
 transform="translate(0 0) scale(1 1)">
<path style="fill:#000000; fill-opacity:1.0000; stroke:none;fill-rule:evenodd;"
d="M 22.5975,12.1962
22.5785,12.2919
22.5243,12.3730
22.4432,12.4272
22.3475,12.4462
21.2475,12.4462
21.1518,12.4272
21.0707,12.3730
21.0165,12.2919
20.9975,12.1962
20.9975,11.0962
21.0165,11.0006
21.0707,10.9195
21.1518,10.8653
21.2475,10.8462
22.3475,10.8462
22.4432,10.8653
22.5243,10.9195
22.5785,11.0006
22.5975,11.0962
Z" /> 
</g>
<g style="fill:#000000; fill-opacity:1.0000; stroke:none;">
<circle cx="17.9975" cy="11.6462" r="0.8000" /> 
<circle cx="35.8175" cy="13.5512" r="1.0000" /> 
<circle cx="40.8175" cy="13.5512" r="1.0000" /> 
<path style="fill:#000000; fill-opacity:1.0000; stroke:none;fill-rule:evenodd;"
d="M 22.5325,22.9612
22.5325,21.2612
24.2325,21.2612
24.2325,22.9612
Z" /> 
<circle cx="23.3825" cy="24.6512" r="0.8500" /> 
<circle cx="23.3825" cy="27.1912" r="0.8500" /> 
<circle cx="23.3825" cy="29.7312" r="0.8500" /> 
<circle cx="23.3825" cy="32.2712" r="0.8500" /> 
<circle cx="23.3825" cy="34.8112" r="0.8500" /> 
<circle cx="23.3825" cy="37.3512" r="0.8500" /> 
<circle cx="23.3825" cy="39.8912" r="0.8500" /> 
<circle cx="38.6225" cy="22.1112" r="0.8500" /> 
<circle cx="38.6225" cy="24.6512" r="0.8500" /> 
<circle cx="38.6225" cy="27.1912" r="0.8500" /> 
<circle cx="38.6225" cy="29.7312" r="0.8500" /> 
<circle cx="38.6225" cy="32.2712" r="0.8500" /> 
<circle cx="38.6225" cy="34.8112" r="0.8500" /> 
<circle cx="38.6225" cy="37.3512" r="0.8500" /> 
<circle cx="38.6225" cy="39.8912" r="0.8500" /> 
<path style="fill:#000000; fill-opacity:1.0000; stroke:none;fill-rule:evenodd;"
d="M 10.1525,20.0712
10.1525,18.3712
11.8525,18.3712
11.8525,20.0712
Z" /> 
<circle cx="13.5425" cy="19.2212" r="0.8500" /> 
<circle cx="11.0025" cy="21.7612" r="0.8500" /> 
<circle cx="13.5425" cy="21.7612" r="0.8500" /> 
<circle cx="11.0025" cy="24.3012" r="0.8500" /> 
<circle cx="13.5425" cy="24.3012" r="0.8500" /> 
<circle cx="11.0025" cy="26.8412" r="0.8500" /> 
<circle cx="13.5425" cy="26.8412" r="0.8500" /> 
<circle cx="11.0025" cy="29.3812" r="0.8500" /> 
<circle cx="13.5425" cy="29.3812" r="0.8500" /> 
<circle cx="11.0025" cy="31.9212" r="0.8500" /> 
<circle cx="13.5425" cy="31.9212" r="0.8500" /> 
<circle cx="11.0025" cy="34.4612" r="0.8500" /> 
<circle cx="13.5425" cy="34.4612" r="0.8500" /> 
<circle cx="11.0025" cy="37.0012" r="0.8500" /> 
<circle cx="13.5425" cy="37.0012" r="0.8500" /> 
<circle cx="11.0025" cy="39.5412" r="0.8500" /> 
<circle cx="13.5425" cy="39.5412" r="0.8500" /> 
<circle cx="11.0025" cy="42.0812" r="0.8500" /> 
<circle cx="13.5425" cy="42.0812" r="0.8500" /> 
<circle cx="27.4425" cy="17.3612" r="1.0000" /> 
<circle cx="22.4425" cy="17.3612" r="1.0000" /> 
<circle cx="38.4625" cy="51.5412" r="1.0250" /> 
<circle cx="35.9225" cy="49.0012" r="1.1250" /> 
<circle cx="35.9225" cy="54.0812" r="1.1250" /> 
<circle cx="41.0025" cy="49.0012" r="1.1250" /> 
<circle cx="41.0025" cy="54.0812" r="1.1250" /> 
<path style="fill:#000000; fill-opacity:1.0000; stroke:none;fill-rule:evenodd;"
d="M 38.7375,7.6212
40.4375,7.6212
40.4375,9.3212
38.7375,9.3212
Z" /> 
<circle cx="37.0475" cy="8.4712" r="0.8500" /> 
<circle cx="34.5075" cy="8.4712" r="0.8500" /> 
<circle cx="31.9675" cy="8.4712" r="0.8500" /> 
<circle cx="29.4275" cy="8.4712" r="0.8500" /> 
<circle cx="26.8875" cy="8.4712" r="0.8500" /> 
<path style="fill:#000000; fill-opacity:1.0000; stroke:none;fill-rule:evenodd;"
d="M 48.2625,26.4662
48.2625,24.7662
49.9625,24.7662
49.9625,26.4662
Z" /> 
<circle cx="51.6525" cy="25.6162" r="0.8500" /> 
<circle cx="49.1125" cy="28.1562" r="0.8500" /> 
<circle cx="51.6525" cy="28.1562" r="0.8500" /> 
<circle cx="49.1125" cy="30.6962" r="0.8500" /> 
<circle cx="51.6525" cy="30.6962" r="0.8500" /> 
<circle cx="51.6525" cy="33.2362" r="0.8500" /> 
<circle cx="35.0025" cy="53.0012" r="0.3000" /> 
<circle cx="40.8575" cy="47.2062" r="0.3000" /> 
<circle cx="35.0025" cy="48.0012" r="0.3000" /> 
<circle cx="36.4125" cy="47.2062" r="0.3000" /> 
<circle cx="42.0025" cy="48.0012" r="0.3000" /> 
<circle cx="35.0025" cy="50.0012" r="0.3000" /> 
<circle cx="36.4125" cy="45.3012" r="0.3000" /> 
<circle cx="40.8575" cy="46.5712" r="0.3000" /> 
<circle cx="42.0025" cy="53.0012" r="0.3000" /> 
<circle cx="40.8575" cy="45.3012" r="0.3000" /> 
<circle cx="40.0025" cy="55.0012" r="0.3000" /> 
<circle cx="36.4125" cy="45.9362" r="0.3000" /> 
<circle cx="37.0025" cy="55.0012" r="0.3000" /> 
<circle cx="35.0025" cy="55.0012" r="0.3000" /> 
<circle cx="42.0025" cy="55.0012" r="0.3000" /> 
<circle cx="42.0025" cy="50.0012" r="0.3000" /> 
<circle cx="36.4125" cy="46.5712" r="0.3000" /> 
<circle cx="40.8575" cy="45.9362" r="0.3000" /> 
<circle cx="36.4125" cy="32.6012" r="0.3000" /> 
<circle cx="35.1425" cy="32.6012" r="0.3000" /> 
</g>
<g style="fill:none; 
stroke:#000000; stroke-width:0.2500; stroke-opacity:1; 
stroke-linecap:round; stroke-linejoin:round;">
<path d="M38.6225 29.7312
L42.7375 25.6162
" />
<path d="M42.7375 25.6162
L49.1125 25.6162
" />
<path d="M21.7975 11.7162
L21.7975 11.6462
" />
<path d="M39.5875 8.4712
L42.7375 11.6212
" />
<path d="M27.4425 17.3612
L31.2525 13.5512
" />
<path d="M27.4425 17.3612
L21.7975 11.7162
" />
<path d="M42.7375 20.4712
L42.7375 25.6162
" />
<path d="M38.6225 29.7312
L39.2725 29.7312
" />
<path d="M31.2525 13.5512
L35.8175 13.5512
" />
<path d="M35.8175 13.5512
L42.7375 20.4712
" />
<path d="M42.7375 11.6212
L42.7375 20.4712
" />
<path d="M26.8875 8.4712
L30.6425 12.2262
" />
<path d="M30.6425 12.2262
L39.4925 12.2262
" />
<path d="M39.4925 12.2262
L40.8175 13.5512
" />
<path d="M16.0854 33.2862
L22.1804 27.1912
" />
<path d="M11.0025 34.4612
L12.1775 33.2862
" />
<path d="M12.1775 33.2862
L16.0854 33.2862
" />
<path d="M22.1804 27.1912
L23.3825 27.1912
" />
<path d="M13.0558 28.2062
L15.7975 28.2062
" />
<path d="M12.3675 28.8945
L13.0558 28.2062
" />
<path d="M11.4892 30.7462
L12.3675 29.8679
" />
<path d="M12.3675 29.8679
L12.3675 28.8945
" />
<path d="M8.0025 33.2595
L10.5158 30.7462
" />
<path d="M8.0025 43.0012
L8.0025 33.2595
" />
<path d="M23.8692 26.0162
L24.5575 26.7045
" />
<path d="M25.8672 44.0012
L9.0025 44.0012
" />
<path d="M9.0025 44.0012
L8.0025 43.0012
" />
<path d="M24.5575 26.7045
L24.5575 28.5562
" />
<path d="M13.5425 31.9212
L15.7189 31.9212
" />
<path d="M10.5158 30.7462
L11.4892 30.7462
" />
<path d="M36.4125 32.6012
L36.4125 33.4559
" />
<path d="M23.8692 23.4762
L26.7533 26.3604
" />
<path d="M36.4125 33.4559
L25.8672 44.0012
" />
<path d="M20.5275 23.4762
L23.8692 23.4762
" />
<path d="M21.6239 26.0162
L23.8692 26.0162
" />
<path d="M24.5575 28.5562
L23.3825 29.7312
" />
<path d="M26.7533 26.3604
L24.5575 28.5562
" />
<path d="M15.7975 28.2062
L20.5275 23.4762
" />
<path d="M15.7189 31.9212
L21.6239 26.0162
" />
<path d="M13.5425 37.0012
L15.4461 37.0012
" />
<path d="M15.4461 37.0012
L18.0861 34.3612
" />
<path d="M18.6425 34.3612
L20.7325 32.2712
" />
<path d="M20.7325 32.2712
L23.3825 32.2712
" />
<path d="M18.0861 34.3612
L18.6425 34.3612
" />
<path d="M13.5425 39.5412
L18.2725 34.8112
" />
<path d="M18.2725 34.8112
L23.3825 34.8112
" />
<path d="M24.7475 41.0662
L38.6225 27.1912
" />
<path d="M12.1775 40.7162
L22.5458 40.7162
" />
<path d="M22.5458 40.7162
L22.8958 41.0662
" />
<path d="M22.8958 41.0662
L24.7475 41.0662
" />
<path d="M11.0025 39.5412
L12.1775 40.7162
" />
</g>
<g style="fill:none; 
stroke:#000000; stroke-width:1.8000; stroke-opacity:1; 
stroke-linecap:round; stroke-linejoin:round;">
<path d="M38.6225 39.8912
L38.6225 51.3812
" />
</g>
<g style="fill:none; 
stroke:#000000; stroke-width:0.2500; stroke-opacity:1; 
stroke-linecap:round; stroke-linejoin:round;">
<path d="M38.6225 51.3812
L38.4625 51.5412
" />
<path d="M9.0025 39.0012
L11.0025 37.0012
" />
<path d="M25.4625 43.5512
L9.5525 43.5512
" />
<path d="M35.1425 33.8712
L25.4625 43.5512
" />
<path d="M35.1425 32.6012
L35.1425 33.8712
" />
<path d="M9.5525 43.5512
L9.0025 43.0012
" />
<path d="M9.0025 43.0012
L9.0025 39.0012
" />
<path style="fill:#000000; fill-opacity:1.0000; stroke:none;fill-rule:evenodd;"
d="M 36.9708,36.3098
37.0009,36.3729
37.0025,36.3926
37.0025,48.0012
36.5689,48.0012
36.8811,47.6891
36.7742,47.6114
36.5463,47.4953
36.5463,47.4953
36.3030,47.4163
36.0504,47.3762
35.7946,47.3762
35.5420,47.4163
35.2987,47.4953
35.2987,47.4953
35.0708,47.6114
34.9639,47.6891
34.9639,47.6891
35.2760,48.0012
27.0025,48.0012
36.7834,36.3131
36.8415,36.2743
36.9114,36.2731
Z" /> 
<path style="fill:#000000; fill-opacity:1.0000; stroke:none;fill-rule:evenodd;"
d="M 27.0025,48.0012
35.2760,48.0012
35.5219,48.2471
35.5199,48.2480
35.3807,48.3410
35.2623,48.4594
35.1692,48.5986
35.1684,48.6007
34.6103,48.0427
34.6103,48.0427
34.5327,48.1496
34.4166,48.3775
34.4165,48.3775
34.3375,48.6207
34.2975,48.8734
34.2975,49.1291
34.3375,49.3818
34.4165,49.6250
34.4166,49.6250
34.5327,49.8529
34.6103,49.9598
34.6103,49.9598
35.1684,49.4018
35.1692,49.4039
35.2623,49.5431
35.3807,49.6615
35.5199,49.7545
35.5219,49.7554
34.9639,50.3134
35.0708,50.3911
35.2987,50.5072
35.2987,50.5072
35.5420,50.5862
35.7946,50.6262
36.0504,50.6262
36.3030,50.5862
36.5463,50.5072
36.5463,50.5072
36.7742,50.3911
36.8811,50.3134
36.8811,50.3134
36.3231,49.7554
36.3251,49.7545
36.4643,49.6615
36.5827,49.5431
36.6758,49.4039
36.6766,49.4018
37.1857,49.9109
37.2192,49.9722
37.2220,49.9986
37.2220,50.6130
37.2023,50.6801
37.1983,50.6859
37.1578,50.7417
37.0488,50.9557
36.9746,51.1840
36.9746,51.1840
36.9370,51.4212
36.9370,51.6613
36.9446,51.7092
36.9746,51.8985
37.0488,52.1268
37.1578,52.3408
37.2989,52.5350
37.4687,52.7048
37.6630,52.8460
37.7255,52.8778
37.8769,52.9550
37.8769,52.9550
37.8769,52.9550
38.1053,53.0292
38.3424,53.0667
38.3424,53.0667
38.5826,53.0667
38.5826,53.0667
38.8197,53.0292
39.0481,52.9550
39.2620,52.8460
39.4563,52.7048
39.6261,52.5350
39.7672,52.3408
39.8762,52.1268
39.9504,51.8985
39.9712,51.7675
39.9757,51.7486
39.9885,51.7092
40.0230,51.4915
40.0230,50.5283
40.0427,50.4613
40.0955,50.4155
40.1646,50.4056
40.2033,50.4178
40.3787,50.5072
40.3787,50.5072
40.6220,50.5862
40.8746,50.6262
41.1304,50.6262
41.3830,50.5862
41.6263,50.5072
41.6263,50.5072
41.8542,50.3911
41.9611,50.3134
41.9611,50.3134
41.6150,49.9673
48.4940,49.9673
48.4940,50.2192
48.5212,50.3911
48.5334,50.4680
48.6113,50.7076
48.7256,50.9321
48.8737,51.1359
48.8737,51.1359
49.0518,51.3140
49.0518,51.3140
49.1993,51.4212
49.2557,51.4621
49.3987,51.5350
49.4801,51.5765
49.4801,51.5765
49.4801,51.5765
49.7197,51.6543
49.9685,51.6937
49.9685,51.6937
50.2205,51.6937
50.2205,51.6937
50.4693,51.6543
50.7089,51.5765
50.9333,51.4621
51.1372,51.3140
51.3153,51.1359
51.4634,50.9321
51.5777,50.7076
51.6556,50.4680
51.6950,50.2192
51.6950,49.9673
51.6556,49.7185
51.5777,49.4789
51.5777,49.4789
51.5777,49.4789
51.5145,49.3548
51.4634,49.2544
51.3764,49.1347
51.3153,49.0506
51.3153,49.0506
51.1372,48.8725
51.1371,48.8725
50.9333,48.7244
50.9333,48.7244
50.9333,48.7244
50.8632,48.6887
50.7089,48.6100
50.4693,48.5322
50.2205,48.4927
49.9685,48.4927
49.8441,48.5125
49.7197,48.5322
49.4801,48.6100
49.2556,48.7244
49.0518,48.8725
49.0518,48.8725
48.8737,49.0506
48.8737,49.0506
48.7256,49.2544
48.6113,49.4789
48.5519,49.6615
48.5334,49.7185
48.4940,49.9673
41.6150,49.9673
41.4031,49.7554
41.4051,49.7545
41.5443,49.6615
41.6627,49.5431
41.7558,49.4039
41.7566,49.4018
42.3146,49.9598
42.3146,49.9598
42.3657,49.8895
42.3657,49.8895
42.3923,49.8529
42.3923,49.8529
42.5084,49.6250
42.5084,49.6250
42.5875,49.3818
42.6275,49.1291
42.6275,48.8734
42.5875,48.6207
42.5084,48.3775
42.5084,48.3775
42.3923,48.1496
42.3146,48.0427
42.3146,48.0427
41.7566,48.6007
41.7558,48.5986
41.6627,48.4594
41.5443,48.3410
41.4051,48.2480
41.4031,48.2471
41.9611,47.6891
41.8542,47.6114
41.6263,47.4953
41.6263,47.4953
41.3830,47.4163
41.1304,47.3762
40.8746,47.3762
40.6220,47.4163
40.3787,47.4953
40.3787,47.4953
40.2033,47.5847
40.1346,47.5976
40.0699,47.5713
40.0296,47.5142
40.0230,47.4742
40.0230,45.1252
40.0427,45.0582
40.0955,45.0125
40.1470,45.0012
57.8936,45.0012
57.9606,45.0209
58.0064,45.0737
58.0163,45.1429
58.0024,45.1847
57.7887,45.5760
57.5072,46.0916
57.5050,46.0955
56.9517,47.0280
56.9493,47.0318
56.3631,47.9440
56.3606,47.9477
55.7422,48.8384
55.7396,48.8420
55.0898,49.7100
55.0871,49.7135
54.4067,50.5578
54.4039,50.5612
53.6938,51.3807
53.6908,51.3840
52.9519,52.1777
52.9488,52.1809
52.1821,52.9476
52.1789,52.9507
51.3853,53.6896
51.3820,53.6925
50.5625,54.4026
50.5591,54.4054
49.7148,55.0859
49.7113,55.0886
48.8432,55.7384
48.8396,55.7410
47.9489,56.3594
47.9453,56.3619
47.0331,56.9481
47.0293,56.9504
46.0967,57.5037
46.0929,57.5059
45.1412,58.0256
45.1373,58.0276
44.1676,58.5130
44.1636,58.5149
43.1773,58.9654
43.1732,58.9671
42.1714,59.3821
42.1673,59.3837
41.1513,59.7627
41.1471,59.7641
40.1183,60.1066
40.1141,60.1079
39.0736,60.4134
39.0693,60.4146
38.0187,60.6827
38.0144,60.6837
36.9548,60.9142
36.9505,60.9151
35.8834,61.1076
35.8790,61.1083
34.8057,61.2627
34.8013,61.2632
33.7231,61.3791
33.7187,61.3795
32.6372,61.4569
32.6328,61.4571
31.5491,61.4958
31.5447,61.4959
30.4603,61.4959
30.4559,61.4958
29.3722,61.4571
29.3678,61.4569
28.2863,61.3795
28.2818,61.3791
27.2037,61.2632
27.1993,61.2627
26.1260,61.1083
26.1216,61.1076
25.0545,60.9151
25.0502,60.9142
23.9906,60.6837
23.9863,60.6827
22.9356,60.4146
22.9314,60.4134
21.8909,60.1079
21.8867,60.1066
20.8579,59.7641
20.8537,59.7627
19.8377,59.3837
19.8336,59.3821
18.8318,58.9671
18.8277,58.9654
17.8414,58.5149
17.8374,58.5130
16.8677,58.0276
16.8638,58.0256
15.9121,57.5059
15.9083,57.5037
14.9757,56.9504
14.9719,56.9481
14.0597,56.3619
14.0561,56.3594
13.1654,55.7410
13.1618,55.7384
12.7704,55.4454
12.2937,55.0886
12.2902,55.0859
11.4459,54.4054
11.4425,54.4026
11.0266,54.0422
10.9240,53.9534
34.2975,53.9534
34.2975,54.2091
34.3375,54.4618
34.4165,54.7050
34.4166,54.7050
34.5327,54.9329
34.6103,55.0398
34.6103,55.0398
35.1684,54.4818
35.1692,54.4839
35.2623,54.6231
35.3807,54.7415
35.5199,54.8345
35.5219,54.8354
34.9639,55.3934
35.0708,55.4711
35.2987,55.5872
35.2987,55.5872
35.5420,55.6662
35.7946,55.7062
36.0504,55.7062
36.3030,55.6662
36.5463,55.5872
36.5463,55.5872
36.7742,55.4711
36.8811,55.3934
36.8811,55.3934
36.3231,54.8354
36.3251,54.8345
36.4643,54.7415
36.5827,54.6231
36.6758,54.4839
36.6766,54.4818
37.2346,55.0398
37.2346,55.0398
37.3123,54.9329
37.4284,54.7050
37.4284,54.7050
37.5075,54.4618
37.5475,54.2091
37.5475,53.9534
39.3775,53.9534
39.3775,54.2091
39.4175,54.4618
39.4965,54.7050
39.4965,54.7050
39.6127,54.9329
39.6903,55.0398
39.6903,55.0398
40.2484,54.4818
40.2492,54.4839
40.3423,54.6231
40.4607,54.7415
40.5999,54.8345
40.6019,54.8354
40.0439,55.3934
40.1508,55.4711
40.3787,55.5872
40.3787,55.5872
40.6220,55.6662
40.8746,55.7062
41.1304,55.7062
41.3830,55.6662
41.6263,55.5872
41.6263,55.5872
41.8542,55.4711
41.9611,55.3934
41.9611,55.3934
41.4031,54.8354
41.4051,54.8345
41.5443,54.7415
41.6627,54.6231
41.7558,54.4839
41.7566,54.4818
42.3146,55.0398
42.3146,55.0398
42.3923,54.9329
42.5084,54.7050
42.5084,54.7050
42.5875,54.4618
42.6275,54.2091
42.6275,53.9534
42.5875,53.7007
42.5084,53.4575
42.5084,53.4575
42.3923,53.2296
42.3146,53.1227
42.3146,53.1227
41.7566,53.6807
41.7558,53.6786
41.6627,53.5394
41.5443,53.4210
41.4051,53.3280
41.4031,53.3271
41.9611,52.7691
41.8542,52.6914
41.6263,52.5753
41.6263,52.5753
41.3830,52.4963
41.1304,52.4562
40.8746,52.4562
40.6220,52.4963
40.3787,52.5753
40.3787,52.5753
40.1508,52.6914
40.0439,52.7691
40.0439,52.7691
40.6019,53.3271
40.5999,53.3280
40.4607,53.4210
40.3423,53.5394
40.2492,53.6786
40.2484,53.6807
39.6903,53.1227
39.6903,53.1227
39.6127,53.2296
39.4965,53.4575
39.4965,53.4575
39.4175,53.7007
39.3775,53.9534
37.5475,53.9534
37.5075,53.7007
37.4284,53.4575
37.4284,53.4575
37.3123,53.2296
37.2346,53.1227
37.2346,53.1227
36.6766,53.6807
36.6758,53.6786
36.5827,53.5394
36.4643,53.4210
36.3251,53.3280
36.3231,53.3271
36.8811,52.7691
36.7742,52.6914
36.5463,52.5753
36.5463,52.5753
36.3030,52.4963
36.0504,52.4562
35.7946,52.4562
35.5420,52.4963
35.2987,52.5753
35.2987,52.5753
35.0708,52.6914
34.9639,52.7691
34.9639,52.7691
35.5219,53.3271
35.5199,53.3280
35.3807,53.4210
35.2623,53.5394
35.1692,53.6786
35.1684,53.6807
34.6103,53.1227
34.6103,53.1227
34.5327,53.2296
34.4166,53.4575
34.4165,53.4575
34.3375,53.7007
34.2975,53.9534
10.9240,53.9534
10.6230,53.6925
10.6197,53.6896
10.1256,53.2296
9.8261,52.9507
9.8229,52.9476
9.0562,52.1809
9.0531,52.1777
8.6169,51.7092
8.3142,51.3840
8.3112,51.3807
8.1408,51.1840
7.7575,50.7417
7.6011,50.5612
7.5983,50.5578
7.1812,50.0402
7.1812,50.0402
7.1224,49.9673
10.3100,49.9673
10.3100,50.2192
10.3372,50.3911
10.3494,50.4680
10.4273,50.7076
10.5416,50.9321
10.6897,51.1359
10.6897,51.1359
10.8678,51.3140
10.8678,51.3140
11.0153,51.4212
11.0717,51.4621
11.2147,51.5350
11.2961,51.5765
11.2961,51.5765
11.2961,51.5765
11.5357,51.6543
11.7845,51.6937
11.7845,51.6937
12.0365,51.6937
12.0365,51.6937
12.2853,51.6543
12.5249,51.5765
12.7493,51.4621
12.9532,51.3140
13.1313,51.1359
13.2794,50.9321
13.3937,50.7076
13.4716,50.4680
13.5110,50.2192
13.5110,49.9673
13.4716,49.7185
13.3937,49.4789
13.3937,49.4789
13.3937,49.4789
13.3305,49.3548
13.2794,49.2544
13.1924,49.1347
13.1313,49.0506
13.1313,49.0506
12.9532,48.8725
12.9531,48.8725
12.7493,48.7244
12.7493,48.7244
12.7493,48.7244
12.6792,48.6887
12.5249,48.6100
12.2853,48.5322
12.0365,48.4927
11.7845,48.4927
11.6601,48.5125
11.5357,48.5322
11.2961,48.6100
11.0716,48.7244
10.8678,48.8725
10.8678,48.8725
10.6897,49.0506
10.6897,49.0506
10.5416,49.2544
10.4273,49.4789
10.3679,49.6615
10.3494,49.7185
10.3100,49.9673
7.1224,49.9673
6.9179,49.7135
6.9152,49.7100
6.7902,49.5431
6.2654,48.8420
6.2628,48.8384
5.6443,47.9477
5.6419,47.9440
5.2770,47.3762
5.0557,47.0318
5.0533,47.0280
4.5000,46.0955
4.4978,46.0916
4.0177,45.2123
4.0140,45.1978
4.0075,45.1878
4.0025,45.1529
4.0025,45.1252
4.0222,45.0582
4.0750,45.0125
4.1265,45.0012
29.5130,45.0012
Z" /> 
<path style="fill:#000000; fill-opacity:1.0000; stroke:none;fill-rule:evenodd;"
d="M 37.1650,45.0209
37.2108,45.0737
37.2220,45.1252
37.2220,48.0039
37.2023,48.0710
37.1857,48.0916
36.6766,48.6007
36.6758,48.5986
36.5827,48.4594
36.4643,48.3410
36.3251,48.2480
36.3231,48.2471
36.5689,48.0012
37.0025,48.0012
37.0025,45.0012
37.0980,45.0012
Z" /> 
</g>
<g style="fill:none; 
stroke:#000000; stroke-width:0.1000; stroke-opacity:1; 
stroke-linecap:round; stroke-linejoin:round;">
<circle cx="31.0025" cy="31.0012" r="31.0000" /> 
</g>
<g style="fill:#FFFFFF; fill-opacity:1.0000; stroke:none;">
<circle cx="35.0025" cy="53.0012" r="0.1500" /> 
<circle cx="40.8575" cy="47.2062" r="0.1500" /> 
<circle cx="35.0025" cy="48.0012" r="0.1500" /> 
<circle cx="36.4125" cy="47.2062" r="0.1500" /> 
<circle cx="42.0025" cy="48.0012" r="0.1500" /> 
<circle cx="35.0025" cy="50.0012" r="0.1500" /> 
<circle cx="36.4125" cy="45.3012" r="0.1500" /> 
<circle cx="40.8575" cy="46.5712" r="0.1500" /> 
<circle cx="42.0025" cy="53.0012" r="0.1500" /> 
<circle cx="40.8575" cy="45.3012" r="0.1500" /> 
<circle cx="40.0025" cy="55.0012" r="0.1500" /> 
<circle cx="36.4125" cy="45.9362" r="0.1500" /> 
<circle cx="37.0025" cy="55.0012" r="0.1500" /> 
<circle cx="35.0025" cy="55.0012" r="0.1500" /> 
<circle cx="42.0025" cy="55.0012" r="0.1500" /> 
<circle cx="42.0025" cy="50.0012" r="0.1500" /> 
<circle cx="36.4125" cy="46.5712" r="0.1500" /> 
<circle cx="40.8575" cy="45.9362" r="0.1500" /> 
<circle cx="36.4125" cy="32.6012" r="0.1500" /> 
<circle cx="35.1425" cy="32.6012" r="0.1500" /> 
</g>
<g style="fill:#FFFFFF; fill-opacity:1.0000; stroke:none;">
<circle cx="21.7975" cy="11.6462" r="0.4000" /> 
</g>
<g style="fill:#FFFFFF; fill-opacity:1.0000; stroke:none;">
<circle cx="17.9975" cy="11.6462" r="0.4000" /> 
</g>
<g style="fill:#FFFFFF; fill-opacity:1.0000; stroke:none;">
<circle cx="35.8175" cy="13.5512" r="0.5000" /> 
</g>
<g style="fill:#FFFFFF; fill-opacity:1.0000; stroke:none;">
<circle cx="40.8175" cy="13.5512" r="0.5000" /> 
</g>
<g style="fill:#000000; fill-opacity:1.0000; stroke:none;">
<circle cx="50.0945" cy="11.9092" r="1.3500" /> 
</g>
<g style="fill:#FFFFFF; fill-opacity:1.0000; stroke:none;">
<circle cx="23.3825" cy="22.1112" r="0.5000" /> 
</g>
<g style="fill:#FFFFFF; fill-opacity:1.0000; stroke:none;">
<circle cx="23.3825" cy="24.6512" r="0.5000" /> 
</g>
<g style="fill:#FFFFFF; fill-opacity:1.0000; stroke:none;">
<circle cx="23.3825" cy="27.1912" r="0.5000" /> 
</g>
<g style="fill:#FFFFFF; fill-opacity:1.0000; stroke:none;">
<circle cx="23.3825" cy="29.7312" r="0.5000" /> 
</g>
<g style="fill:#FFFFFF; fill-opacity:1.0000; stroke:none;">
<circle cx="23.3825" cy="32.2712" r="0.5000" /> 
</g>
<g style="fill:#FFFFFF; fill-opacity:1.0000; stroke:none;">
<circle cx="23.3825" cy="34.8112" r="0.5000" /> 
</g>
<g style="fill:#FFFFFF; fill-opacity:1.0000; stroke:none;">
<circle cx="23.3825" cy="37.3512" r="0.5000" /> 
</g>
<g style="fill:#FFFFFF; fill-opacity:1.0000; stroke:none;">
<circle cx="23.3825" cy="39.8912" r="0.5000" /> 
</g>
<g style="fill:#FFFFFF; fill-opacity:1.0000; stroke:none;">
<circle cx="38.6225" cy="22.1112" r="0.5000" /> 
</g>
<g style="fill:#FFFFFF; fill-opacity:1.0000; stroke:none;">
<circle cx="38.6225" cy="24.6512" r="0.5000" /> 
</g>
<g style="fill:#FFFFFF; fill-opacity:1.0000; stroke:none;">
<circle cx="38.6225" cy="27.1912" r="0.5000" /> 
</g>
<g style="fill:#FFFFFF; fill-opacity:1.0000; stroke:none;">
<circle cx="38.6225" cy="29.7312" r="0.5000" /> 
</g>
<g style="fill:#FFFFFF; fill-opacity:1.0000; stroke:none;">
<circle cx="38.6225" cy="32.2712" r="0.5000" /> 
</g>
<g style="fill:#FFFFFF; fill-opacity:1.0000; stroke:none;">
<circle cx="38.6225" cy="34.8112" r="0.5000" /> 
</g>
<g style="fill:#FFFFFF; fill-opacity:1.0000; stroke:none;">
<circle cx="38.6225" cy="37.3512" r="0.5000" /> 
</g>
<g style="fill:#FFFFFF; fill-opacity:1.0000; stroke:none;">
<circle cx="38.6225" cy="39.8912" r="0.5000" /> 
</g>
<g style="fill:#000000; fill-opacity:1.0000; stroke:none;">
<circle cx="11.9105" cy="50.0932" r="1.3500" /> 
</g>
<g style="fill:#FFFFFF; fill-opacity:1.0000; stroke:none;">
<circle cx="11.0025" cy="19.2212" r="0.5000" /> 
</g>
<g style="fill:#FFFFFF; fill-opacity:1.0000; stroke:none;">
<circle cx="13.5425" cy="19.2212" r="0.5000" /> 
</g>
<g style="fill:#FFFFFF; fill-opacity:1.0000; stroke:none;">
<circle cx="11.0025" cy="21.7612" r="0.5000" /> 
</g>
<g style="fill:#FFFFFF; fill-opacity:1.0000; stroke:none;">
<circle cx="13.5425" cy="21.7612" r="0.5000" /> 
</g>
<g style="fill:#FFFFFF; fill-opacity:1.0000; stroke:none;">
<circle cx="11.0025" cy="24.3012" r="0.5000" /> 
</g>
<g style="fill:#FFFFFF; fill-opacity:1.0000; stroke:none;">
<circle cx="13.5425" cy="24.3012" r="0.5000" /> 
</g>
<g style="fill:#FFFFFF; fill-opacity:1.0000; stroke:none;">
<circle cx="11.0025" cy="26.8412" r="0.5000" /> 
</g>
<g style="fill:#FFFFFF; fill-opacity:1.0000; stroke:none;">
<circle cx="13.5425" cy="26.8412" r="0.5000" /> 
</g>
<g style="fill:#FFFFFF; fill-opacity:1.0000; stroke:none;">
<circle cx="11.0025" cy="29.3812" r="0.5000" /> 
</g>
<g style="fill:#FFFFFF; fill-opacity:1.0000; stroke:none;">
<circle cx="13.5425" cy="29.3812" r="0.5000" /> 
</g>
<g style="fill:#FFFFFF; fill-opacity:1.0000; stroke:none;">
<circle cx="11.0025" cy="31.9212" r="0.5000" /> 
</g>
<g style="fill:#FFFFFF; fill-opacity:1.0000; stroke:none;">
<circle cx="13.5425" cy="31.9212" r="0.5000" /> 
</g>
<g style="fill:#FFFFFF; fill-opacity:1.0000; stroke:none;">
<circle cx="11.0025" cy="34.4612" r="0.5000" /> 
</g>
<g style="fill:#FFFFFF; fill-opacity:1.0000; stroke:none;">
<circle cx="13.5425" cy="34.4612" r="0.5000" /> 
</g>
<g style="fill:#FFFFFF; fill-opacity:1.0000; stroke:none;">
<circle cx="11.0025" cy="37.0012" r="0.5000" /> 
</g>
<g style="fill:#FFFFFF; fill-opacity:1.0000; stroke:none;">
<circle cx="13.5425" cy="37.0012" r="0.5000" /> 
</g>
<g style="fill:#FFFFFF; fill-opacity:1.0000; stroke:none;">
<circle cx="11.0025" cy="39.5412" r="0.5000" /> 
</g>
<g style="fill:#FFFFFF; fill-opacity:1.0000; stroke:none;">
<circle cx="13.5425" cy="39.5412" r="0.5000" /> 
</g>
<g style="fill:#FFFFFF; fill-opacity:1.0000; stroke:none;">
<circle cx="11.0025" cy="42.0812" r="0.5000" /> 
</g>
<g style="fill:#FFFFFF; fill-opacity:1.0000; stroke:none;">
<circle cx="13.5425" cy="42.0812" r="0.5000" /> 
</g>
<g style="fill:#000000; fill-opacity:1.0000; stroke:none;">
<circle cx="11.9105" cy="11.9092" r="1.3500" /> 
<circle cx="50.0945" cy="50.0932" r="1.3500" /> 
</g>
<g style="fill:#FFFFFF; fill-opacity:1.0000; stroke:none;">
<circle cx="27.4425" cy="17.3612" r="0.5000" /> 
</g>
<g style="fill:#FFFFFF; fill-opacity:1.0000; stroke:none;">
<circle cx="22.4425" cy="17.3612" r="0.5000" /> 
</g>
<g style="fill:#FFFFFF; fill-opacity:1.0000; stroke:none;">
<circle cx="38.4625" cy="51.5412" r="0.7500" /> 
</g>
<g style="fill:#FFFFFF; fill-opacity:1.0000; stroke:none;">
<circle cx="35.9225" cy="49.0012" r="0.8500" /> 
</g>
<g style="fill:#FFFFFF; fill-opacity:1.0000; stroke:none;">
<circle cx="35.9225" cy="54.0812" r="0.8500" /> 
</g>
<g style="fill:#FFFFFF; fill-opacity:1.0000; stroke:none;">
<circle cx="41.0025" cy="49.0012" r="0.8500" /> 
</g>
<g style="fill:#FFFFFF; fill-opacity:1.0000; stroke:none;">
<circle cx="41.0025" cy="54.0812" r="0.8500" /> 
</g>
<g style="fill:#FFFFFF; fill-opacity:1.0000; stroke:none;">
<circle cx="39.5875" cy="8.4712" r="0.5000" /> 
</g>
<g style="fill:#FFFFFF; fill-opacity:1.0000; stroke:none;">
<circle cx="37.0475" cy="8.4712" r="0.5000" /> 
</g>
<g style="fill:#FFFFFF; fill-opacity:1.0000; stroke:none;">
<circle cx="34.5075" cy="8.4712" r="0.5000" /> 
</g>
<g style="fill:#FFFFFF; fill-opacity:1.0000; stroke:none;">
<circle cx="31.9675" cy="8.4712" r="0.5000" /> 
</g>
<g style="fill:#FFFFFF; fill-opacity:1.0000; stroke:none;">
<circle cx="29.4275" cy="8.4712" r="0.5000" /> 
</g>
<g style="fill:#FFFFFF; fill-opacity:1.0000; stroke:none;">
<circle cx="26.8875" cy="8.4712" r="0.5000" /> 
</g>
<g style="fill:#FFFFFF; fill-opacity:1.0000; stroke:none;">
<circle cx="49.1125" cy="25.6162" r="0.5000" /> 
</g>
<g style="fill:#FFFFFF; fill-opacity:1.0000; stroke:none;">
<circle cx="51.6525" cy="25.6162" r="0.5000" /> 
</g>
<g style="fill:#FFFFFF; fill-opacity:1.0000; stroke:none;">
<circle cx="49.1125" cy="28.1562" r="0.5000" /> 
</g>
<g style="fill:#FFFFFF; fill-opacity:1.0000; stroke:none;">
<circle cx="51.6525" cy="28.1562" r="0.5000" /> 
</g>
<g style="fill:#FFFFFF; fill-opacity:1.0000; stroke:none;">
<circle cx="49.1125" cy="30.6962" r="0.5000" /> 
</g>
<g style="fill:#FFFFFF; fill-opacity:1.0000; stroke:none;">
<circle cx="51.6525" cy="30.6962" r="0.5000" /> 
</g>
<g style="fill:#FFFFFF; fill-opacity:1.0000; stroke:none;">
<circle cx="51.6525" cy="33.2362" r="0.5000" /> 
</g> 
</svg>
