<?xml version="1.0" standalone="no"?>
 <!DOCTYPE svg PUBLIC "-//W3C//DTD SVG 1.1//EN" 
 "http://www.w3.org/Graphics/SVG/1.1/DTD/svg11.dtd"> 
<svg
  xmlns:svg="http://www.w3.org/2000/svg"
  xmlns="http://www.w3.org/2000/svg"
  xmlns:xlink="http://www.w3.org/1999/xlink"
  xmlns:inkscape="http://www.inkscape.org/namespaces/inkscape"
  version="1.1"
  width="62.0014mm" height="62.0014mm" viewBox="0.0000 0.0000 62.0014 62.0014">
<title>SVG Image created as sensores_top.svg date 2026-07-05T22:31:43 </title>
  <desc>Image generated by PCBNEW </desc>
<g style="fill:#000000; fill-opacity:1.0000;stroke:#000000; stroke-opacity:1.0000;
stroke-linecap:round; stroke-linejoin:round;"
 transform="translate(0 0) scale(1 1)">
</g>
<g style="fill:#000000; fill-opacity:1.0000; stroke:none;">
<circle cx="40.8575" cy="52.9212" r="0.8000" /> 
<circle cx="40.8575" cy="45.3012" r="0.8000" /> 
<path style="fill:#000000; fill-opacity:1.0000; stroke:none;fill-rule:evenodd;"
d="M 8.8925,20.1162
8.8925,18.4162
10.5925,18.4162
10.5925,20.1162
Z" /> 
<circle cx="12.2825" cy="19.2662" r="0.8500" /> 
<circle cx="9.7425" cy="21.8062" r="0.8500" /> 
<circle cx="12.2825" cy="21.8062" r="0.8500" /> 
<circle cx="9.7425" cy="24.3462" r="0.8500" /> 
<circle cx="12.2825" cy="24.3462" r="0.8500" /> 
<circle cx="9.7425" cy="26.8862" r="0.8500" /> 
<circle cx="12.2825" cy="26.8862" r="0.8500" /> 
<circle cx="9.7425" cy="29.4262" r="0.8500" /> 
<circle cx="12.2825" cy="29.4262" r="0.8500" /> 
<circle cx="9.7425" cy="31.9662" r="0.8500" /> 
<circle cx="12.2825" cy="31.9662" r="0.8500" /> 
<circle cx="9.7425" cy="34.5062" r="0.8500" /> 
<circle cx="12.2825" cy="34.5062" r="0.8500" /> 
<circle cx="9.7425" cy="37.0462" r="0.8500" /> 
<circle cx="12.2825" cy="37.0462" r="0.8500" /> 
<circle cx="9.7425" cy="39.5862" r="0.8500" /> 
<circle cx="12.2825" cy="39.5862" r="0.8500" /> 
<circle cx="9.7425" cy="42.1262" r="0.8500" /> 
<circle cx="12.2825" cy="42.1262" r="0.8500" /> 
<path style="fill:#000000; fill-opacity:1.0000; stroke:none;fill-rule:evenodd;"
d="M 36.1625,44.9812
37.9625,44.9812
37.9625,46.7812
36.1625,46.7812
Z" /> 
<circle cx="34.5225" cy="45.8812" r="0.9000" /> 
<circle cx="31.9825" cy="45.8812" r="0.9000" /> 
<circle cx="29.4425" cy="45.8812" r="0.9000" /> 
<circle cx="26.9025" cy="45.8812" r="0.9000" /> 
<circle cx="24.3625" cy="45.8812" r="0.9000" /> 
<circle cx="21.8225" cy="45.8812" r="0.9000" /> 
<circle cx="19.2825" cy="45.8812" r="0.9000" /> 
<circle cx="5.2975" cy="37.0462" r="0.8000" /> 
<circle cx="5.2975" cy="29.4262" r="0.8000" /> 
<circle cx="5.2975" cy="18.6312" r="0.8000" /> 
<circle cx="5.2975" cy="26.2512" r="0.8000" /> 
<path style="fill:#000000; fill-opacity:1.0000; stroke:none;fill-rule:evenodd;"
d="M 19.4825,14.4012
17.7825,14.4012
17.7825,12.7012
19.4825,12.7012
Z" /> 
<circle cx="21.1725" cy="13.5512" r="0.8500" /> 
<circle cx="23.7125" cy="13.5512" r="0.8500" /> 
<circle cx="26.2525" cy="13.5512" r="0.8500" /> 
<path style="fill:#000000; fill-opacity:1.0000; stroke:none;fill-rule:evenodd;"
d="M 17.7425,34.2462
17.7425,32.4462
19.5425,32.4462
19.5425,34.2462
Z" /> 
<circle cx="18.6425" cy="30.8062" r="0.9000" /> 
<circle cx="18.6425" cy="28.2662" r="0.9000" /> 
<circle cx="18.6425" cy="25.7262" r="0.9000" /> 
<circle cx="44.6675" cy="45.3012" r="0.8000" /> 
<circle cx="44.6675" cy="52.9212" r="0.8000" /> 
<path style="fill:#000000; fill-opacity:1.0000; stroke:none;fill-rule:evenodd;"
d="M 43.2475,10.0562
43.2285,10.1519
43.1743,10.2330
43.0932,10.2872
42.9975,10.3062
41.0975,10.3062
41.0018,10.2872
40.9207,10.2330
40.8665,10.1519
40.8475,10.0562
40.8475,8.1562
40.8665,8.0606
40.9207,7.9795
41.0018,7.9253
41.0975,7.9062
42.9975,7.9062
43.0932,7.9253
43.1743,7.9795
43.2285,8.0606
43.2475,8.1563
Z" /> 
<circle cx="37.0475" cy="9.1062" r="1.2000" /> 
<path style="fill:#000000; fill-opacity:1.0000; stroke:none;fill-rule:evenodd;"
d="M 52.0725,20.1162
52.0725,18.4162
53.7725,18.4162
53.7725,20.1162
Z" /> 
<circle cx="55.4625" cy="19.2662" r="0.8500" /> 
<circle cx="52.9225" cy="21.8062" r="0.8500" /> 
<circle cx="55.4625" cy="21.8062" r="0.8500" /> 
<circle cx="52.9225" cy="24.3462" r="0.8500" /> 
<circle cx="55.4625" cy="24.3462" r="0.8500" /> 
<circle cx="55.4625" cy="26.8862" r="0.8500" /> 
<path style="fill:#000000; fill-opacity:1.0000; stroke:none;fill-rule:evenodd;"
d="M 54.4075,40.6412
54.4075,42.3412
52.7075,42.3412
52.7075,40.6412
Z" /> 
<circle cx="53.5575" cy="38.9512" r="0.8500" /> 
<circle cx="53.5575" cy="36.4112" r="0.8500" /> 
<circle cx="53.5575" cy="33.8712" r="0.8500" /> 
<circle cx="5.9325" cy="40.2612" r="1.0000" /> 
<circle cx="5.9325" cy="45.2612" r="1.0000" /> 
<circle cx="59.9075" cy="38.3162" r="0.3000" /> 
<circle cx="31.9825" cy="30.8486" r="0.3000" /> 
<circle cx="18.6325" cy="17.3612" r="0.3000" /> 
</g>
<g style="fill:none; 
stroke:#000000; stroke-width:0.2500; stroke-opacity:1; 
stroke-linecap:round; stroke-linejoin:round;">
<path d="M54.0975 20.4412
L54.0975 29.3299
" />
<path d="M49.7475 45.3012
L53.5575 41.4912
" />
<path d="M44.6675 45.3012
L49.7475 45.3012
" />
<path d="M37.0625 45.8812
L40.2925 49.1112
" />
<path d="M40.8575 52.9212
L40.8575 49.1112
" />
<path d="M59.9075 35.1399
L59.9075 38.3162
" />
<path d="M40.2925 49.1112
L40.8575 49.1112
" />
<path d="M40.8575 49.1112
L44.6675 45.3012
" />
<path d="M54.0975 29.3299
L59.9075 35.1399
" />
<path d="M52.9225 19.2662
L54.0975 20.4412
" />
<path d="M19.1499 26.9512
L14.8875 26.9512
" />
<path d="M31.9825 30.8486
L27.9751 26.8412
" />
<path d="M27.9751 26.8412
L19.2599 26.8412
" />
<path d="M19.2599 26.8412
L19.1499 26.9512
" />
<path d="M40.2125 44.6562
L40.8575 45.3012
" />
<path d="M33.2075 44.6562
L40.2125 44.6562
" />
<path d="M14.8875 26.9512
L12.2825 24.3462
" />
<path d="M31.9825 45.8812
L33.2075 44.6562
" />
<path d="M37.6075 54.0462
L43.5425 54.0462
" />
<path d="M29.4425 45.8812
L37.6075 54.0462
" />
<path d="M58.0025 44.6662
L54.1925 48.4762
" />
<path d="M43.5425 54.0462
L44.6675 52.9212
" />
<path d="M12.6742 28.1562
L17.3775 32.8595
" />
<path d="M17.3775 32.8595
L17.3775 34.4612
" />
<path d="M11.1075 25.7112
L11.1075 27.3729
" />
<path d="M44.6675 54.8262
L44.6675 52.9212
" />
<path d="M54.1925 48.4762
L54.1925 50.3812
" />
<path d="M11.8908 28.1562
L12.6742 28.1562
" />
<path d="M9.7425 24.3462
L11.1075 25.7112
" />
<path d="M17.3775 34.4612
L28.7975 45.8812
" />
<path d="M58.0025 33.8712
L58.0025 44.6662
" />
<path d="M49.7475 54.8262
L44.6675 54.8262
" />
<path d="M54.1925 50.3812
L49.7475 54.8262
" />
<path d="M53.5575 33.8712
L58.0025 33.8712
" />
<path d="M11.1075 27.3729
L11.8908 28.1562
" />
<path d="M13.5525 28.1562
L18.6025 28.1562
" />
<path d="M12.2825 26.8862
L13.5525 28.1562
" />
<path d="M6.9325 31.0612
L5.2975 29.4262
" />
<path d="M5.2975 18.6312
L6.5675 19.9012
" />
<path d="M6.5675 28.1562
L6.4725 28.2512
" />
<path d="M5.2975 29.4262
L6.4725 28.2512
" />
<path d="M6.4725 28.2512
L11.1075 28.2512
" />
<path d="M6.5675 19.9012
L6.5675 28.1562
" />
<path d="M5.9325 40.2612
L6.9325 39.2612
" />
<path d="M11.1075 28.2512
L12.2825 29.4262
" />
<path d="M6.9325 39.2612
L6.9325 31.0612
" />
<path d="M6.5675 15.4562
L26.2525 15.4562
" />
<path d="M26.2525 15.4562
L26.2525 13.5512
" />
<path d="M3.3925 33.8712
L3.3925 18.6312
" />
<path d="M3.3925 18.6312
L6.5675 15.4562
" />
<path d="M4.0275 37.0462
L2.1225 35.1412
" />
<path d="M5.2975 37.0462
L4.0275 37.0462
" />
<path d="M2.1225 35.1412
L3.3925 33.8712
" />
<path d="M35.6675 33.3462
L18.6425 33.3462
" />
<path d="M38.8725 5.9312
L42.0475 9.1062
" />
<path d="M35.7775 33.2362
L35.6675 33.3462
" />
<path d="M36.4125 17.3612
L36.4125 33.2362
" />
<path d="M26.2525 5.9312
L38.8725 5.9312
" />
<path d="M18.6325 13.5512
L26.2525 5.9312
" />
<path d="M36.4125 33.2362
L35.7775 33.2362
" />
<path d="M44.1087 21.8062
L42.0475 19.7450
" />
<path d="M42.0475 9.1062
L42.0475 19.7450
" />
<path d="M18.6325 17.3612
L36.4125 17.3612
" />
<path d="M44.1087 21.8062
L52.9225 21.8062
" />
</g>
<g style="fill:none; 
stroke:#000000; stroke-width:0.1000; stroke-opacity:1; 
stroke-linecap:round; stroke-linejoin:round;">
<circle cx="31.0025" cy="31.0012" r="31.0000" /> 
</g>
<g style="fill:#FFFFFF; fill-opacity:1.0000; stroke:none;">
<circle cx="59.9075" cy="38.3162" r="0.1500" /> 
<circle cx="31.9825" cy="30.8486" r="0.1500" /> 
<circle cx="18.6325" cy="17.3612" r="0.1500" /> 
</g>
<g style="fill:#FFFFFF; fill-opacity:1.0000; stroke:none;">
<circle cx="40.8575" cy="52.9212" r="0.4000" /> 
</g>
<g style="fill:#FFFFFF; fill-opacity:1.0000; stroke:none;">
<circle cx="40.8575" cy="45.3012" r="0.4000" /> 
</g>
<g style="fill:#FFFFFF; fill-opacity:1.0000; stroke:none;">
<circle cx="9.7425" cy="19.2662" r="0.5000" /> 
</g>
<g style="fill:#FFFFFF; fill-opacity:1.0000; stroke:none;">
<circle cx="12.2825" cy="19.2662" r="0.5000" /> 
</g>
<g style="fill:#FFFFFF; fill-opacity:1.0000; stroke:none;">
<circle cx="9.7425" cy="21.8062" r="0.5000" /> 
</g>
<g style="fill:#FFFFFF; fill-opacity:1.0000; stroke:none;">
<circle cx="12.2825" cy="21.8062" r="0.5000" /> 
</g>
<g style="fill:#FFFFFF; fill-opacity:1.0000; stroke:none;">
<circle cx="9.7425" cy="24.3462" r="0.5000" /> 
</g>
<g style="fill:#FFFFFF; fill-opacity:1.0000; stroke:none;">
<circle cx="12.2825" cy="24.3462" r="0.5000" /> 
</g>
<g style="fill:#FFFFFF; fill-opacity:1.0000; stroke:none;">
<circle cx="9.7425" cy="26.8862" r="0.5000" /> 
</g>
<g style="fill:#FFFFFF; fill-opacity:1.0000; stroke:none;">
<circle cx="12.2825" cy="26.8862" r="0.5000" /> 
</g>
<g style="fill:#FFFFFF; fill-opacity:1.0000; stroke:none;">
<circle cx="9.7425" cy="29.4262" r="0.5000" /> 
</g>
<g style="fill:#FFFFFF; fill-opacity:1.0000; stroke:none;">
<circle cx="12.2825" cy="29.4262" r="0.5000" /> 
</g>
<g style="fill:#FFFFFF; fill-opacity:1.0000; stroke:none;">
<circle cx="9.7425" cy="31.9662" r="0.5000" /> 
</g>
<g style="fill:#FFFFFF; fill-opacity:1.0000; stroke:none;">
<circle cx="12.2825" cy="31.9662" r="0.5000" /> 
</g>
<g style="fill:#FFFFFF; fill-opacity:1.0000; stroke:none;">
<circle cx="9.7425" cy="34.5062" r="0.5000" /> 
</g>
<g style="fill:#FFFFFF; fill-opacity:1.0000; stroke:none;">
<circle cx="12.2825" cy="34.5062" r="0.5000" /> 
</g>
<g style="fill:#FFFFFF; fill-opacity:1.0000; stroke:none;">
<circle cx="9.7425" cy="37.0462" r="0.5000" /> 
</g>
<g style="fill:#FFFFFF; fill-opacity:1.0000; stroke:none;">
<circle cx="12.2825" cy="37.0462" r="0.5000" /> 
</g>
<g style="fill:#FFFFFF; fill-opacity:1.0000; stroke:none;">
<circle cx="9.7425" cy="39.5862" r="0.5000" /> 
</g>
<g style="fill:#FFFFFF; fill-opacity:1.0000; stroke:none;">
<circle cx="12.2825" cy="39.5862" r="0.5000" /> 
</g>
<g style="fill:#FFFFFF; fill-opacity:1.0000; stroke:none;">
<circle cx="9.7425" cy="42.1262" r="0.5000" /> 
</g>
<g style="fill:#FFFFFF; fill-opacity:1.0000; stroke:none;">
<circle cx="12.2825" cy="42.1262" r="0.5000" /> 
</g>
<g style="fill:#000000; fill-opacity:1.0000; stroke:none;">
<circle cx="50.0945" cy="50.0932" r="1.3500" /> 
<circle cx="35.1725" cy="55.4612" r="1.5000" /> 
<circle cx="21.1725" cy="55.4612" r="1.5000" /> 
</g>
<g style="fill:#FFFFFF; fill-opacity:1.0000; stroke:none;">
<circle cx="37.0625" cy="45.8812" r="0.5000" /> 
</g>
<g style="fill:#FFFFFF; fill-opacity:1.0000; stroke:none;">
<circle cx="34.5225" cy="45.8812" r="0.5000" /> 
</g>
<g style="fill:#FFFFFF; fill-opacity:1.0000; stroke:none;">
<circle cx="31.9825" cy="45.8812" r="0.5000" /> 
</g>
<g style="fill:#FFFFFF; fill-opacity:1.0000; stroke:none;">
<circle cx="29.4425" cy="45.8812" r="0.5000" /> 
</g>
<g style="fill:#FFFFFF; fill-opacity:1.0000; stroke:none;">
<circle cx="26.9025" cy="45.8812" r="0.5000" /> 
</g>
<g style="fill:#FFFFFF; fill-opacity:1.0000; stroke:none;">
<circle cx="24.3625" cy="45.8812" r="0.5000" /> 
</g>
<g style="fill:#FFFFFF; fill-opacity:1.0000; stroke:none;">
<circle cx="21.8225" cy="45.8812" r="0.5000" /> 
</g>
<g style="fill:#FFFFFF; fill-opacity:1.0000; stroke:none;">
<circle cx="19.2825" cy="45.8812" r="0.5000" /> 
</g>
<g style="fill:#FFFFFF; fill-opacity:1.0000; stroke:none;">
<circle cx="5.2975" cy="37.0462" r="0.4000" /> 
</g>
<g style="fill:#FFFFFF; fill-opacity:1.0000; stroke:none;">
<circle cx="5.2975" cy="29.4262" r="0.4000" /> 
</g>
<g style="fill:#FFFFFF; fill-opacity:1.0000; stroke:none;">
<circle cx="5.2975" cy="18.6312" r="0.4000" /> 
</g>
<g style="fill:#FFFFFF; fill-opacity:1.0000; stroke:none;">
<circle cx="5.2975" cy="26.2512" r="0.4000" /> 
</g>
<g style="fill:#FFFFFF; fill-opacity:1.0000; stroke:none;">
<circle cx="18.6325" cy="13.5512" r="0.5000" /> 
</g>
<g style="fill:#FFFFFF; fill-opacity:1.0000; stroke:none;">
<circle cx="21.1725" cy="13.5512" r="0.5000" /> 
</g>
<g style="fill:#FFFFFF; fill-opacity:1.0000; stroke:none;">
<circle cx="23.7125" cy="13.5512" r="0.5000" /> 
</g>
<g style="fill:#FFFFFF; fill-opacity:1.0000; stroke:none;">
<circle cx="26.2525" cy="13.5512" r="0.5000" /> 
</g>
<g style="fill:#000000; fill-opacity:1.0000; stroke:none;">
<circle cx="17.4425" cy="19.4862" r="1.5000" /> 
<circle cx="17.4425" cy="39.5862" r="1.5000" /> 
<circle cx="47.8425" cy="19.4862" r="1.5000" /> 
<circle cx="47.8425" cy="39.5862" r="1.5000" /> 
</g>
<g style="fill:#FFFFFF; fill-opacity:1.0000; stroke:none;">
<circle cx="18.6425" cy="33.3462" r="0.5000" /> 
</g>
<g style="fill:#FFFFFF; fill-opacity:1.0000; stroke:none;">
<circle cx="18.6425" cy="30.8062" r="0.5000" /> 
</g>
<g style="fill:#FFFFFF; fill-opacity:1.0000; stroke:none;">
<circle cx="18.6425" cy="28.2662" r="0.5000" /> 
</g>
<g style="fill:#FFFFFF; fill-opacity:1.0000; stroke:none;">
<circle cx="18.6425" cy="25.7262" r="0.5000" /> 
</g>
<g style="fill:#000000; fill-opacity:1.0000; stroke:none;">
<circle cx="11.9105" cy="11.9092" r="1.3500" /> 
<circle cx="50.0945" cy="11.9092" r="1.3500" /> 
<circle cx="11.9105" cy="50.0932" r="1.3500" /> 
</g>
<g style="fill:#FFFFFF; fill-opacity:1.0000; stroke:none;">
<circle cx="44.6675" cy="45.3012" r="0.4000" /> 
</g>
<g style="fill:#FFFFFF; fill-opacity:1.0000; stroke:none;">
<circle cx="44.6675" cy="52.9212" r="0.4000" /> 
</g>
<g style="fill:#FFFFFF; fill-opacity:1.0000; stroke:none;">
<circle cx="42.0475" cy="9.1062" r="0.6000" /> 
</g>
<g style="fill:#FFFFFF; fill-opacity:1.0000; stroke:none;">
<circle cx="37.0475" cy="9.1062" r="0.6000" /> 
</g>
<g style="fill:#FFFFFF; fill-opacity:1.0000; stroke:none;">
<circle cx="52.9225" cy="19.2662" r="0.5000" /> 
</g>
<g style="fill:#FFFFFF; fill-opacity:1.0000; stroke:none;">
<circle cx="55.4625" cy="19.2662" r="0.5000" /> 
</g>
<g style="fill:#FFFFFF; fill-opacity:1.0000; stroke:none;">
<circle cx="52.9225" cy="21.8062" r="0.5000" /> 
</g>
<g style="fill:#FFFFFF; fill-opacity:1.0000; stroke:none;">
<circle cx="55.4625" cy="21.8062" r="0.5000" /> 
</g>
<g style="fill:#FFFFFF; fill-opacity:1.0000; stroke:none;">
<circle cx="52.9225" cy="24.3462" r="0.5000" /> 
</g>
<g style="fill:#FFFFFF; fill-opacity:1.0000; stroke:none;">
<circle cx="55.4625" cy="24.3462" r="0.5000" /> 
</g>
<g style="fill:#FFFFFF; fill-opacity:1.0000; stroke:none;">
<circle cx="55.4625" cy="26.8862" r="0.5000" /> 
</g>
<g style="fill:#FFFFFF; fill-opacity:1.0000; stroke:none;">
<circle cx="53.5575" cy="41.4912" r="0.5000" /> 
</g>
<g style="fill:#FFFFFF; fill-opacity:1.0000; stroke:none;">
<circle cx="53.5575" cy="38.9512" r="0.5000" /> 
</g>
<g style="fill:#FFFFFF; fill-opacity:1.0000; stroke:none;">
<circle cx="53.5575" cy="36.4112" r="0.5000" /> 
</g>
<g style="fill:#FFFFFF; fill-opacity:1.0000; stroke:none;">
<circle cx="53.5575" cy="33.8712" r="0.5000" /> 
</g>
<g style="fill:#FFFFFF; fill-opacity:1.0000; stroke:none;">
<circle cx="5.9325" cy="40.2612" r="0.5000" /> 
</g>
<g style="fill:#FFFFFF; fill-opacity:1.0000; stroke:none;">
<circle cx="5.9325" cy="45.2612" r="0.5000" /> 
</g> 
</svg>
