<?xml version="1.0" standalone="no"?>
 <!DOCTYPE svg PUBLIC "-//W3C//DTD SVG 1.1//EN" 
 "http://www.w3.org/Graphics/SVG/1.1/DTD/svg11.dtd"> 
<svg
  xmlns:svg="http://www.w3.org/2000/svg"
  xmlns="http://www.w3.org/2000/svg"
  xmlns:xlink="http://www.w3.org/1999/xlink"
  xmlns:inkscape="http://www.inkscape.org/namespaces/inkscape"
  version="1.1"
  width="62.0014mm" height="62.0014mm" viewBox="0.0000 0.0000 62.0014 62.0014">
<title>SVG Image created as sensores_bot_mirror.svg date 2026-07-05T22:31:43 </title>
  <desc>Image generated by PCBNEW </desc>
<g style="fill:#000000; fill-opacity:1.0000;stroke:#000000; stroke-opacity:1.0000;
stroke-linecap:round; stroke-linejoin:round;"
 transform="translate(0 0) scale(1 1)">
</g>
<g style="fill:#000000; fill-opacity:1.0000; stroke:none;">
<circle cx="21.1439" cy="52.9212" r="0.8000" /> 
<circle cx="21.1439" cy="45.3012" r="0.8000" /> 
<path style="fill:#000000; fill-opacity:1.0000; stroke:none;fill-rule:evenodd;"
d="M 53.1089,20.1162
53.1089,18.4162
51.4089,18.4162
51.4089,20.1162
Z" /> 
<circle cx="49.7189" cy="19.2662" r="0.8500" /> 
<circle cx="52.2589" cy="21.8062" r="0.8500" /> 
<circle cx="49.7189" cy="21.8062" r="0.8500" /> 
<circle cx="52.2589" cy="24.3462" r="0.8500" /> 
<circle cx="49.7189" cy="24.3462" r="0.8500" /> 
<circle cx="52.2589" cy="26.8862" r="0.8500" /> 
<circle cx="49.7189" cy="26.8862" r="0.8500" /> 
<circle cx="52.2589" cy="29.4262" r="0.8500" /> 
<circle cx="49.7189" cy="29.4262" r="0.8500" /> 
<circle cx="52.2589" cy="31.9662" r="0.8500" /> 
<circle cx="49.7189" cy="31.9662" r="0.8500" /> 
<circle cx="52.2589" cy="34.5062" r="0.8500" /> 
<circle cx="49.7189" cy="34.5062" r="0.8500" /> 
<circle cx="52.2589" cy="37.0462" r="0.8500" /> 
<circle cx="49.7189" cy="37.0462" r="0.8500" /> 
<circle cx="52.2589" cy="39.5862" r="0.8500" /> 
<circle cx="49.7189" cy="39.5862" r="0.8500" /> 
<circle cx="52.2589" cy="42.1262" r="0.8500" /> 
<circle cx="49.7189" cy="42.1262" r="0.8500" /> 
<path style="fill:#000000; fill-opacity:1.0000; stroke:none;fill-rule:evenodd;"
d="M 25.8389,44.9812
24.0389,44.9812
24.0389,46.7812
25.8389,46.7812
Z" /> 
<circle cx="27.4789" cy="45.8812" r="0.9000" /> 
<circle cx="30.0189" cy="45.8812" r="0.9000" /> 
<circle cx="32.5589" cy="45.8812" r="0.9000" /> 
<circle cx="35.0989" cy="45.8812" r="0.9000" /> 
<circle cx="37.6389" cy="45.8812" r="0.9000" /> 
<circle cx="40.1789" cy="45.8812" r="0.9000" /> 
<circle cx="42.7189" cy="45.8812" r="0.9000" /> 
<circle cx="56.7039" cy="37.0462" r="0.8000" /> 
<circle cx="56.7039" cy="29.4262" r="0.8000" /> 
<circle cx="56.7039" cy="18.6312" r="0.8000" /> 
<circle cx="56.7039" cy="26.2512" r="0.8000" /> 
<path style="fill:#000000; fill-opacity:1.0000; stroke:none;fill-rule:evenodd;"
d="M 42.5189,14.4012
44.2189,14.4012
44.2189,12.7012
42.5189,12.7012
Z" /> 
<circle cx="40.8289" cy="13.5512" r="0.8500" /> 
<circle cx="38.2889" cy="13.5512" r="0.8500" /> 
<circle cx="35.7489" cy="13.5512" r="0.8500" /> 
<path style="fill:#000000; fill-opacity:1.0000; stroke:none;fill-rule:evenodd;"
d="M 44.2589,34.2462
44.2589,32.4462
42.4589,32.4462
42.4589,34.2462
Z" /> 
<circle cx="43.3589" cy="30.8062" r="0.9000" /> 
<circle cx="43.3589" cy="28.2662" r="0.9000" /> 
<circle cx="43.3589" cy="25.7262" r="0.9000" /> 
<circle cx="17.3339" cy="45.3012" r="0.8000" /> 
<circle cx="17.3339" cy="52.9212" r="0.8000" /> 
<path style="fill:#000000; fill-opacity:1.0000; stroke:none;fill-rule:evenodd;"
d="M 18.7539,10.0562
18.7729,10.1519
18.8271,10.2330
18.9082,10.2872
19.0039,10.3062
20.9039,10.3062
20.9996,10.2872
21.0807,10.2330
21.1349,10.1519
21.1539,10.0562
21.1539,8.1562
21.1349,8.0606
21.0807,7.9795
20.9996,7.9253
20.9039,7.9062
19.0039,7.9062
18.9082,7.9253
18.8271,7.9795
18.7729,8.0606
18.7539,8.1563
Z" /> 
<circle cx="24.9539" cy="9.1062" r="1.2000" /> 
<path style="fill:#000000; fill-opacity:1.0000; stroke:none;fill-rule:evenodd;"
d="M 9.9289,20.1162
9.9289,18.4162
8.2289,18.4162
8.2289,20.1162
Z" /> 
<circle cx="6.5389" cy="19.2662" r="0.8500" /> 
<circle cx="9.0789" cy="21.8062" r="0.8500" /> 
<circle cx="6.5389" cy="21.8062" r="0.8500" /> 
<circle cx="9.0789" cy="24.3462" r="0.8500" /> 
<circle cx="6.5389" cy="24.3462" r="0.8500" /> 
<circle cx="6.5389" cy="26.8862" r="0.8500" /> 
<path style="fill:#000000; fill-opacity:1.0000; stroke:none;fill-rule:evenodd;"
d="M 7.5939,40.6412
7.5939,42.3412
9.2939,42.3412
9.2939,40.6412
Z" /> 
<circle cx="8.4439" cy="38.9512" r="0.8500" /> 
<circle cx="8.4439" cy="36.4112" r="0.8500" /> 
<circle cx="8.4439" cy="33.8712" r="0.8500" /> 
<circle cx="56.0689" cy="40.2612" r="1.0000" /> 
<circle cx="56.0689" cy="45.2612" r="1.0000" /> 
<circle cx="2.0939" cy="38.3162" r="0.3000" /> 
<circle cx="30.0189" cy="30.8486" r="0.3000" /> 
<circle cx="43.3689" cy="17.3612" r="0.3000" /> 
</g>
<g style="fill:none; 
stroke:#000000; stroke-width:0.2500; stroke-opacity:1; 
stroke-linecap:round; stroke-linejoin:round;">
<path d="M8.4439 41.4912
L5.2689 41.4912
" />
<path d="M5.2689 41.4912
L2.0939 38.3162
" />
<path d="M16.9047 32.7671
L12.0881 32.7671
" />
<path d="M30.0189 30.8486
L30.0189 45.8812
" />
<path d="M30.0189 45.8812
L16.9047 32.7671
" />
<path d="M12.0881 32.7671
L8.4439 36.4112
" />
<path d="M6.5389 24.3462
L6.5389 21.8062
" />
<path d="M56.7039 27.5212
L52.2589 31.9662
" />
<path d="M13.6689 44.1762
L8.4439 38.9512
" />
<path d="M49.7189 21.8062
L47.2089 21.8062
" />
<path d="M49.7189 21.8062
L49.7189 19.2662
" />
<path d="M25.7739 44.1762
L13.6689 44.1762
" />
<path d="M56.0689 45.2612
L54.2239 47.1062
" />
<path d="M53.4339 42.6262
L53.4339 33.1412
" />
<path d="M47.2089 21.8062
L43.3989 25.6162
" />
<path d="M56.7039 26.2512
L56.7039 27.5212
" />
<path d="M6.5389 37.0462
L8.4439 38.9512
" />
<path d="M50.8939 22.9812
L49.7189 21.8062
" />
<path d="M53.4339 22.9812
L50.8939 22.9812
" />
<path d="M40.8289 13.5512
L36.3839 9.1062
" />
<path d="M38.9539 47.1062
L28.7039 47.1062
" />
<path d="M40.1789 45.8812
L38.9539 47.1062
" />
<path d="M40.8289 23.0462
L43.3989 25.6162
" />
<path d="M6.5389 19.2662
L6.5389 21.8062
" />
<path d="M40.8289 13.5512
L40.8289 23.0462
" />
<path d="M53.4339 33.1412
L52.2589 31.9662
" />
<path d="M41.4039 47.1062
L40.1789 45.8812
" />
<path d="M6.5389 26.8862
L6.5389 37.0462
" />
<path d="M6.5389 26.8862
L6.5389 24.3462
" />
<path d="M56.7039 26.2512
L53.4339 22.9812
" />
<path d="M54.2239 47.1062
L41.4039 47.1062
" />
<path d="M36.3839 9.1062
L24.9539 9.1062
" />
<path d="M56.0689 45.2612
L53.4339 42.6262
" />
<path d="M27.4789 45.8812
L25.7739 44.1762
" />
<path d="M28.7039 47.1062
L27.4789 45.8812
" />
<path d="M53.4339 29.9129
L53.4339 28.0612
" />
<path d="M50.8939 31.4795
L51.7722 30.6012
" />
<path d="M51.7722 30.6012
L52.7456 30.6012
" />
<path d="M42.7189 45.8812
L47.8389 40.7612
" />
<path d="M47.8389 40.7612
L50.2056 40.7612
" />
<path d="M53.4339 28.0612
L52.2589 26.8862
" />
<path d="M50.2056 40.7612
L50.8939 40.0729
" />
<path d="M50.8939 40.0729
L50.8939 31.4795
" />
<path d="M52.7456 30.6012
L53.4339 29.9129
" />
<path d="M43.3989 30.6962
L50.9889 30.6962
" />
<path d="M50.9889 30.6962
L52.2589 29.4262
" />
<path d="M43.3689 13.5512
L43.3689 17.3612
" />
</g>
<g style="fill:none; 
stroke:#000000; stroke-width:0.1000; stroke-opacity:1; 
stroke-linecap:round; stroke-linejoin:round;">
<circle cx="30.9989" cy="31.0012" r="31.0000" /> 
</g>
<g style="fill:#FFFFFF; fill-opacity:1.0000; stroke:none;">
<circle cx="2.0939" cy="38.3162" r="0.1500" /> 
<circle cx="30.0189" cy="30.8486" r="0.1500" /> 
<circle cx="43.3689" cy="17.3612" r="0.1500" /> 
</g>
<g style="fill:#FFFFFF; fill-opacity:1.0000; stroke:none;">
<circle cx="21.1439" cy="52.9212" r="0.4000" /> 
</g>
<g style="fill:#FFFFFF; fill-opacity:1.0000; stroke:none;">
<circle cx="21.1439" cy="45.3012" r="0.4000" /> 
</g>
<g style="fill:#FFFFFF; fill-opacity:1.0000; stroke:none;">
<circle cx="52.2589" cy="19.2662" r="0.5000" /> 
</g>
<g style="fill:#FFFFFF; fill-opacity:1.0000; stroke:none;">
<circle cx="49.7189" cy="19.2662" r="0.5000" /> 
</g>
<g style="fill:#FFFFFF; fill-opacity:1.0000; stroke:none;">
<circle cx="52.2589" cy="21.8062" r="0.5000" /> 
</g>
<g style="fill:#FFFFFF; fill-opacity:1.0000; stroke:none;">
<circle cx="49.7189" cy="21.8062" r="0.5000" /> 
</g>
<g style="fill:#FFFFFF; fill-opacity:1.0000; stroke:none;">
<circle cx="52.2589" cy="24.3462" r="0.5000" /> 
</g>
<g style="fill:#FFFFFF; fill-opacity:1.0000; stroke:none;">
<circle cx="49.7189" cy="24.3462" r="0.5000" /> 
</g>
<g style="fill:#FFFFFF; fill-opacity:1.0000; stroke:none;">
<circle cx="52.2589" cy="26.8862" r="0.5000" /> 
</g>
<g style="fill:#FFFFFF; fill-opacity:1.0000; stroke:none;">
<circle cx="49.7189" cy="26.8862" r="0.5000" /> 
</g>
<g style="fill:#FFFFFF; fill-opacity:1.0000; stroke:none;">
<circle cx="52.2589" cy="29.4262" r="0.5000" /> 
</g>
<g style="fill:#FFFFFF; fill-opacity:1.0000; stroke:none;">
<circle cx="49.7189" cy="29.4262" r="0.5000" /> 
</g>
<g style="fill:#FFFFFF; fill-opacity:1.0000; stroke:none;">
<circle cx="52.2589" cy="31.9662" r="0.5000" /> 
</g>
<g style="fill:#FFFFFF; fill-opacity:1.0000; stroke:none;">
<circle cx="49.7189" cy="31.9662" r="0.5000" /> 
</g>
<g style="fill:#FFFFFF; fill-opacity:1.0000; stroke:none;">
<circle cx="52.2589" cy="34.5062" r="0.5000" /> 
</g>
<g style="fill:#FFFFFF; fill-opacity:1.0000; stroke:none;">
<circle cx="49.7189" cy="34.5062" r="0.5000" /> 
</g>
<g style="fill:#FFFFFF; fill-opacity:1.0000; stroke:none;">
<circle cx="52.2589" cy="37.0462" r="0.5000" /> 
</g>
<g style="fill:#FFFFFF; fill-opacity:1.0000; stroke:none;">
<circle cx="49.7189" cy="37.0462" r="0.5000" /> 
</g>
<g style="fill:#FFFFFF; fill-opacity:1.0000; stroke:none;">
<circle cx="52.2589" cy="39.5862" r="0.5000" /> 
</g>
<g style="fill:#FFFFFF; fill-opacity:1.0000; stroke:none;">
<circle cx="49.7189" cy="39.5862" r="0.5000" /> 
</g>
<g style="fill:#FFFFFF; fill-opacity:1.0000; stroke:none;">
<circle cx="52.2589" cy="42.1262" r="0.5000" /> 
</g>
<g style="fill:#FFFFFF; fill-opacity:1.0000; stroke:none;">
<circle cx="49.7189" cy="42.1262" r="0.5000" /> 
</g>
<g style="fill:#000000; fill-opacity:1.0000; stroke:none;">
<circle cx="11.9069" cy="50.0932" r="1.3500" /> 
<circle cx="26.8289" cy="55.4612" r="1.5000" /> 
<circle cx="40.8289" cy="55.4612" r="1.5000" /> 
</g>
<g style="fill:#FFFFFF; fill-opacity:1.0000; stroke:none;">
<circle cx="24.9389" cy="45.8812" r="0.5000" /> 
</g>
<g style="fill:#FFFFFF; fill-opacity:1.0000; stroke:none;">
<circle cx="27.4789" cy="45.8812" r="0.5000" /> 
</g>
<g style="fill:#FFFFFF; fill-opacity:1.0000; stroke:none;">
<circle cx="30.0189" cy="45.8812" r="0.5000" /> 
</g>
<g style="fill:#FFFFFF; fill-opacity:1.0000; stroke:none;">
<circle cx="32.5589" cy="45.8812" r="0.5000" /> 
</g>
<g style="fill:#FFFFFF; fill-opacity:1.0000; stroke:none;">
<circle cx="35.0989" cy="45.8812" r="0.5000" /> 
</g>
<g style="fill:#FFFFFF; fill-opacity:1.0000; stroke:none;">
<circle cx="37.6389" cy="45.8812" r="0.5000" /> 
</g>
<g style="fill:#FFFFFF; fill-opacity:1.0000; stroke:none;">
<circle cx="40.1789" cy="45.8812" r="0.5000" /> 
</g>
<g style="fill:#FFFFFF; fill-opacity:1.0000; stroke:none;">
<circle cx="42.7189" cy="45.8812" r="0.5000" /> 
</g>
<g style="fill:#FFFFFF; fill-opacity:1.0000; stroke:none;">
<circle cx="56.7039" cy="37.0462" r="0.4000" /> 
</g>
<g style="fill:#FFFFFF; fill-opacity:1.0000; stroke:none;">
<circle cx="56.7039" cy="29.4262" r="0.4000" /> 
</g>
<g style="fill:#FFFFFF; fill-opacity:1.0000; stroke:none;">
<circle cx="56.7039" cy="18.6312" r="0.4000" /> 
</g>
<g style="fill:#FFFFFF; fill-opacity:1.0000; stroke:none;">
<circle cx="56.7039" cy="26.2512" r="0.4000" /> 
</g>
<g style="fill:#FFFFFF; fill-opacity:1.0000; stroke:none;">
<circle cx="43.3689" cy="13.5512" r="0.5000" /> 
</g>
<g style="fill:#FFFFFF; fill-opacity:1.0000; stroke:none;">
<circle cx="40.8289" cy="13.5512" r="0.5000" /> 
</g>
<g style="fill:#FFFFFF; fill-opacity:1.0000; stroke:none;">
<circle cx="38.2889" cy="13.5512" r="0.5000" /> 
</g>
<g style="fill:#FFFFFF; fill-opacity:1.0000; stroke:none;">
<circle cx="35.7489" cy="13.5512" r="0.5000" /> 
</g>
<g style="fill:#000000; fill-opacity:1.0000; stroke:none;">
<circle cx="44.5589" cy="19.4862" r="1.5000" /> 
<circle cx="44.5589" cy="39.5862" r="1.5000" /> 
<circle cx="14.1589" cy="19.4862" r="1.5000" /> 
<circle cx="14.1589" cy="39.5862" r="1.5000" /> 
</g>
<g style="fill:#FFFFFF; fill-opacity:1.0000; stroke:none;">
<circle cx="43.3589" cy="33.3462" r="0.5000" /> 
</g>
<g style="fill:#FFFFFF; fill-opacity:1.0000; stroke:none;">
<circle cx="43.3589" cy="30.8062" r="0.5000" /> 
</g>
<g style="fill:#FFFFFF; fill-opacity:1.0000; stroke:none;">
<circle cx="43.3589" cy="28.2662" r="0.5000" /> 
</g>
<g style="fill:#FFFFFF; fill-opacity:1.0000; stroke:none;">
<circle cx="43.3589" cy="25.7262" r="0.5000" /> 
</g>
<g style="fill:#000000; fill-opacity:1.0000; stroke:none;">
<circle cx="50.0909" cy="11.9092" r="1.3500" /> 
<circle cx="11.9069" cy="11.9092" r="1.3500" /> 
<circle cx="50.0909" cy="50.0932" r="1.3500" /> 
</g>
<g style="fill:#FFFFFF; fill-opacity:1.0000; stroke:none;">
<circle cx="17.3339" cy="45.3012" r="0.4000" /> 
</g>
<g style="fill:#FFFFFF; fill-opacity:1.0000; stroke:none;">
<circle cx="17.3339" cy="52.9212" r="0.4000" /> 
</g>
<g style="fill:#FFFFFF; fill-opacity:1.0000; stroke:none;">
<circle cx="19.9539" cy="9.1062" r="0.6000" /> 
</g>
<g style="fill:#FFFFFF; fill-opacity:1.0000; stroke:none;">
<circle cx="24.9539" cy="9.1062" r="0.6000" /> 
</g>
<g style="fill:#FFFFFF; fill-opacity:1.0000; stroke:none;">
<circle cx="9.0789" cy="19.2662" r="0.5000" /> 
</g>
<g style="fill:#FFFFFF; fill-opacity:1.0000; stroke:none;">
<circle cx="6.5389" cy="19.2662" r="0.5000" /> 
</g>
<g style="fill:#FFFFFF; fill-opacity:1.0000; stroke:none;">
<circle cx="9.0789" cy="21.8062" r="0.5000" /> 
</g>
<g style="fill:#FFFFFF; fill-opacity:1.0000; stroke:none;">
<circle cx="6.5389" cy="21.8062" r="0.5000" /> 
</g>
<g style="fill:#FFFFFF; fill-opacity:1.0000; stroke:none;">
<circle cx="9.0789" cy="24.3462" r="0.5000" /> 
</g>
<g style="fill:#FFFFFF; fill-opacity:1.0000; stroke:none;">
<circle cx="6.5389" cy="24.3462" r="0.5000" /> 
</g>
<g style="fill:#FFFFFF; fill-opacity:1.0000; stroke:none;">
<circle cx="6.5389" cy="26.8862" r="0.5000" /> 
</g>
<g style="fill:#FFFFFF; fill-opacity:1.0000; stroke:none;">
<circle cx="8.4439" cy="41.4912" r="0.5000" /> 
</g>
<g style="fill:#FFFFFF; fill-opacity:1.0000; stroke:none;">
<circle cx="8.4439" cy="38.9512" r="0.5000" /> 
</g>
<g style="fill:#FFFFFF; fill-opacity:1.0000; stroke:none;">
<circle cx="8.4439" cy="36.4112" r="0.5000" /> 
</g>
<g style="fill:#FFFFFF; fill-opacity:1.0000; stroke:none;">
<circle cx="8.4439" cy="33.8712" r="0.5000" /> 
</g>
<g style="fill:#FFFFFF; fill-opacity:1.0000; stroke:none;">
<circle cx="56.0689" cy="40.2612" r="0.5000" /> 
</g>
<g style="fill:#FFFFFF; fill-opacity:1.0000; stroke:none;">
<circle cx="56.0689" cy="45.2612" r="0.5000" /> 
</g> 
</svg>
